<?xml version="1.0" encoding="UTF-8" standalone="no"?>
<svg
   version="1.0"
   width="300"
   height="335"
   viewBox="0 0 225 251.25"
   preserveAspectRatio="xMidYMid meet"
   id="svg105"
   sodipodi:docname="N1.svg"
   inkscape:version="1.1 (c68e22c387, 2021-05-23)"
   xmlns:inkscape="http://www.inkscape.org/namespaces/inkscape"
   xmlns:sodipodi="http://sodipodi.sourceforge.net/DTD/sodipodi-0.dtd"
   xmlns="http://www.w3.org/2000/svg"
   xmlns:svg="http://www.w3.org/2000/svg">
  <defs
     id="defs109">
    <pattern
       id="EMFhbasepattern"
       patternUnits="userSpaceOnUse"
       width="6"
       height="6"
       x="0"
       y="0" />
  </defs>
  <sodipodi:namedview
     id="namedview107"
     pagecolor="#ffffff"
     bordercolor="#666666"
     borderopacity="1.0"
     inkscape:pageshadow="2"
     inkscape:pageopacity="0.0"
     inkscape:pagecheckerboard="0"
     inkscape:document-units="px"
     showgrid="false"
     inkscape:zoom="1.0074671"
     inkscape:cx="329.04302"
     inkscape:cy="242.68784"
     inkscape:window-width="1366"
     inkscape:window-height="705"
     inkscape:window-x="-8"
     inkscape:window-y="-8"
     inkscape:window-maximized="1"
     inkscape:current-layer="svg105"
     units="px"
     inkscape:showpageshadow="false"
     width="280px" />
  <metadata
     id="metadata9">
Created by potrace 1.10, written by Peter Selinger 2001-2011
</metadata>
  <g
     transform="matrix(0.03280704,0,0,-0.03266069,-34.228723,259.69651)"
     fill="#000000"
     stroke="none"
     id="g103"
     style="fill:#000080">
    <path
       d="m 4340,7859 c -233,-10 -449,-35 -480,-54 -8,-5 -40,-13 -70,-17 -88,-11 -191,-35 -203,-47 -6,-6 -25,-11 -43,-11 -17,0 -37,-7 -44,-15 -7,-8 -25,-15 -40,-15 -15,0 -61,-13 -101,-30 -41,-16 -81,-30 -89,-30 -8,0 -24,-7 -34,-15 -11,-8 -26,-15 -34,-15 -24,0 -323,-151 -452,-228 -113,-68 -151,-93 -236,-157 -15,-11 -37,-27 -49,-35 -27,-18 -110,-85 -190,-154 -75,-64 -265,-253 -328,-326 -149,-172 -367,-491 -446,-650 -23,-46 -33,-67 -51,-97 -6,-10 -13,-25 -16,-33 -3,-8 -19,-43 -35,-77 -16,-35 -29,-68 -29,-75 0,-7 -7,-22 -15,-32 -8,-11 -15,-27 -15,-35 0,-9 -14,-49 -30,-90 -17,-40 -30,-86 -30,-101 0,-15 -7,-33 -15,-40 -8,-7 -15,-27 -15,-44 0,-18 -5,-37 -11,-43 -12,-12 -35,-111 -48,-203 -4,-30 -13,-66 -19,-80 -11,-26 -26,-134 -42,-310 -26,-278 -2,-803 42,-925 6,-16 14,-55 18,-85 11,-74 38,-187 50,-210 5,-10 10,-33 10,-50 0,-18 6,-33 15,-36 9,-4 15,-19 15,-40 0,-19 4,-42 9,-52 30,-61 51,-116 51,-136 0,-13 7,-29 15,-36 8,-7 15,-19 15,-26 0,-14 52,-135 71,-164 5,-8 12,-22 15,-30 25,-70 214,-388 278,-471 12,-14 28,-37 36,-49 41,-63 208,-259 315,-368 110,-114 289,-269 403,-350 26,-19 56,-42 68,-53 11,-10 23,-19 27,-19 4,0 36,-20 73,-45 36,-25 67,-45 70,-45 2,0 21,-10 42,-23 39,-25 144,-83 202,-113 19,-9 42,-21 50,-26 8,-4 22,-11 30,-14 8,-4 43,-19 78,-35 34,-16 68,-29 76,-29 7,0 19,-7 26,-15 7,-8 23,-15 36,-15 13,0 41,-9 61,-20 21,-11 45,-20 55,-20 9,0 20,-4 23,-10 3,-5 23,-10 45,-10 24,0 40,-5 44,-15 3,-9 18,-15 38,-15 18,0 42,-7 52,-15 11,-8 31,-15 45,-15 13,0 50,-6 80,-14 31,-8 79,-19 106,-26 168,-42 330,-55 675,-55 162,0 329,3 370,7 101,10 246,32 295,46 22,5 76,18 120,27 44,9 98,23 120,31 23,8 50,14 60,14 11,0 29,7 39,15 11,8 32,15 47,15 15,0 31,5 34,10 3,6 14,10 23,10 10,0 35,9 57,20 22,11 49,20 61,20 12,0 27,7 34,15 7,8 20,15 29,15 15,0 42,12 211,94 73,35 90,45 128,66 9,6 24,13 32,17 8,4 33,18 55,32 55,35 66,42 124,76 28,17 51,33 51,38 0,4 5,7 10,7 11,0 171,118 239,176 171,146 314,284 411,399 24,28 47,52 51,53 5,2 9,9 9,17 0,7 7,19 17,26 17,15 163,205 163,213 0,7 62,98 77,114 7,7 13,19 13,26 0,6 6,18 13,24 20,21 99,170 198,377 16,33 29,68 29,76 0,9 7,22 15,29 8,7 15,22 15,34 0,12 6,31 14,42 8,11 17,37 21,57 4,21 11,40 16,43 5,3 9,16 9,30 0,14 6,35 12,47 16,28 45,136 68,252 7,33 18,83 25,110 15,55 38,188 38,220 0,11 4,54 8,95 15,124 11,570 -6,715 -21,179 -30,233 -43,280 -6,22 -18,76 -27,120 -9,44 -23,95 -31,113 -8,18 -14,45 -14,60 0,15 -7,36 -15,46 -8,11 -15,30 -15,43 0,13 -4,31 -9,41 -19,36 -51,125 -51,142 0,10 -7,23 -15,30 -8,7 -15,19 -15,26 0,14 -52,135 -71,164 -5,8 -12,22 -15,30 -15,40 -89,178 -127,237 -15,24 -27,45 -27,47 0,3 -20,34 -45,70 -25,37 -45,68 -45,71 0,8 -90,124 -201,260 -103,125 -290,319 -355,367 -16,13 -68,55 -115,93 -46,39 -115,93 -154,120 -144,100 -196,135 -201,135 -2,0 -21,11 -42,23 -34,22 -171,98 -217,120 -11,6 -27,14 -35,19 -8,4 -22,11 -30,14 -8,3 -43,19 -77,35 -35,16 -69,29 -77,29 -7,0 -19,7 -26,15 -7,8 -24,15 -37,15 -14,0 -37,6 -51,14 -44,22 -95,38 -135,43 -21,3 -41,11 -44,19 -3,8 -18,14 -35,14 -16,0 -38,5 -48,10 -25,13 -140,40 -210,49 -30,3 -61,11 -69,16 -13,7 -127,26 -236,39 -16,2 -97,7 -180,10 -82,4 -161,8 -175,9 -14,2 -99,0 -190,-4 z m 285,-140 c 28,-6 111,-14 185,-18 146,-9 330,-35 360,-51 10,-6 36,-10 57,-10 21,-1 49,-7 63,-15 14,-8 35,-14 48,-15 25,0 136,-34 164,-50 10,-6 26,-10 37,-10 11,0 32,-6 48,-14 15,-8 48,-22 73,-31 96,-36 333,-148 360,-170 8,-7 25,-16 38,-20 12,-3 51,-25 87,-48 35,-23 100,-64 144,-92 45,-27 81,-53 81,-58 0,-4 10,-11 23,-16 12,-5 43,-27 69,-50 25,-23 51,-41 56,-41 6,0 20,-12 31,-26 11,-14 39,-39 62,-56 57,-41 293,-280 325,-328 15,-22 30,-40 35,-40 7,0 189,-234 189,-244 0,-3 19,-34 43,-69 24,-34 46,-69 50,-77 4,-8 16,-28 27,-45 11,-16 26,-43 34,-60 14,-29 49,-94 67,-125 5,-8 14,-26 19,-40 6,-14 22,-50 37,-80 14,-30 33,-71 41,-90 8,-19 21,-48 28,-63 8,-16 14,-36 14,-45 0,-9 7,-26 15,-36 8,-11 15,-30 15,-43 0,-13 4,-31 10,-41 16,-28 50,-140 50,-165 0,-13 5,-28 12,-35 7,-7 15,-36 19,-64 10,-66 36,-209 49,-266 6,-23 10,-84 10,-135 0,-51 7,-119 15,-150 18,-70 21,-325 4,-377 -7,-19 -15,-93 -20,-165 -4,-71 -17,-182 -28,-245 -12,-63 -25,-136 -30,-163 -4,-26 -13,-53 -19,-59 -7,-7 -12,-23 -12,-35 0,-28 -39,-154 -51,-168 -5,-5 -9,-21 -9,-35 0,-14 -7,-35 -15,-46 -8,-10 -15,-27 -15,-36 0,-9 -7,-30 -15,-47 -8,-17 -22,-45 -30,-62 -8,-17 -15,-35 -15,-41 0,-12 -101,-213 -144,-288 -14,-25 -30,-54 -35,-65 -5,-11 -21,-37 -35,-58 -14,-21 -26,-40 -26,-44 0,-3 -13,-22 -30,-43 -16,-21 -30,-41 -30,-45 0,-8 -138,-191 -194,-259 -61,-72 -315,-328 -366,-370 -83,-66 -279,-216 -283,-216 -3,0 -42,-25 -88,-56 -46,-31 -93,-60 -104,-65 -11,-5 -47,-25 -80,-44 -33,-19 -85,-46 -115,-61 -30,-14 -80,-37 -110,-52 -61,-29 -93,-42 -160,-67 -25,-9 -58,-23 -73,-31 -16,-8 -37,-14 -47,-14 -10,0 -31,-6 -47,-14 -42,-21 -128,-46 -155,-46 -13,0 -29,-5 -36,-12 -7,-7 -36,-15 -64,-19 -66,-10 -209,-36 -266,-49 -23,-6 -83,-10 -132,-10 -49,0 -115,-7 -147,-15 -72,-19 -353,-21 -386,-3 -12,6 -83,15 -157,19 -139,7 -308,31 -348,49 -13,5 -40,10 -61,10 -20,0 -46,7 -57,15 -10,8 -29,15 -42,15 -25,0 -136,34 -164,50 -10,6 -27,10 -39,10 -11,0 -33,6 -47,14 -15,8 -47,21 -72,31 -57,21 -91,36 -162,69 -31,14 -67,31 -80,36 -13,5 -30,14 -38,18 -8,5 -26,15 -40,23 -97,52 -123,67 -166,93 -108,64 -234,149 -234,157 0,5 -5,9 -11,9 -13,0 -106,70 -153,115 -17,17 -48,43 -68,58 -51,38 -254,240 -303,302 -22,27 -53,64 -70,81 -35,37 -115,139 -115,147 0,3 -11,18 -25,33 -14,15 -31,38 -38,51 -19,35 -119,196 -132,213 -7,8 -16,26 -20,40 -4,14 -18,39 -31,56 -13,17 -24,38 -24,46 0,9 -7,21 -15,28 -8,7 -15,19 -15,26 0,8 -13,40 -29,72 -31,62 -39,78 -71,162 -43,109 -70,186 -81,235 -6,22 -14,44 -20,50 -5,5 -9,23 -9,40 -1,16 -7,41 -15,55 -8,14 -14,43 -15,65 0,23 -4,45 -9,50 -15,15 -43,215 -51,365 -5,74 -13,162 -19,195 -13,73 -13,183 0,250 5,28 14,113 19,190 9,157 34,335 50,364 5,11 10,37 10,58 1,21 7,49 15,63 8,14 14,38 15,53 0,16 5,38 12,50 6,12 15,35 19,52 10,43 29,96 45,127 8,14 14,33 14,41 0,8 9,36 21,63 11,27 24,58 29,69 40,97 187,376 239,455 23,34 41,63 41,65 0,9 65,101 77,108 7,4 13,13 13,20 0,7 20,35 45,64 25,28 45,56 45,61 0,6 11,19 25,30 13,11 42,41 63,68 48,61 241,254 302,303 25,19 57,48 71,63 14,16 29,28 33,28 4,0 31,20 59,45 29,25 57,45 64,45 7,0 16,6 20,13 7,12 99,77 108,77 2,0 31,18 65,41 33,22 89,55 123,73 34,19 82,45 107,60 25,14 52,28 60,32 8,3 42,18 75,34 93,44 132,60 147,60 8,0 23,7 34,15 10,8 27,15 37,15 11,0 31,6 45,14 42,21 157,58 232,75 19,4 45,13 57,19 12,7 38,12 58,12 20,0 45,4 55,10 30,16 215,42 365,51 77,4 158,12 180,17 54,13 208,13 270,1 z"
       id="path11"
       style="fill:#000080" />
    <path
       d="m 4452,7493 c -43,-3 -65,-9 -69,-18 -7,-19 -27,-19 -43,0 -17,21 -68,17 -114,-8 -53,-30 -67,-54 -42,-73 23,-16 52,-10 82,17 27,25 42,24 56,-5 12,-29 -2,-49 -47,-66 -23,-9 -25,-13 -15,-25 7,-8 26,-15 43,-15 48,0 77,-61 42,-90 -22,-18 -48,-4 -88,50 -30,40 -43,50 -66,50 -59,0 -42,-57 36,-122 38,-33 51,-38 93,-38 64,0 105,34 105,88 0,28 5,37 19,40 17,4 18,-1 14,-67 -6,-79 4,-98 46,-87 l 24,6 -5,154 c -6,150 -5,154 16,165 11,7 21,18 21,25 0,13 -24,28 -38,24 -4,-1 -35,-3 -70,-5 z m -19,-57 c 8,-8 17,-34 21,-57 8,-51 -9,-75 -47,-65 -28,7 -43,34 -27,50 5,5 10,27 10,48 0,41 17,50 43,24 z"
       id="path13"
       style="fill:#000080" />
    <path
       d="m 5334,7490 c -30,-12 -64,-58 -64,-87 0,-22 -3,-24 -30,-18 -27,6 -30,4 -30,-19 0,-17 6,-26 15,-26 9,0 18,-6 21,-14 6,-15 -28,-139 -52,-191 -34,-74 -23,-125 27,-125 25,0 40,39 78,212 18,80 52,103 109,75 15,-8 42,-21 60,-30 19,-9 44,-17 56,-17 27,0 66,-26 66,-45 0,-25 -38,-27 -80,-3 l -40,23 -38,-21 c -47,-27 -67,-77 -50,-126 14,-40 31,-54 80,-68 l 36,-10 -15,-31 c -18,-37 -12,-55 21,-61 30,-6 66,30 66,65 0,11 13,47 29,81 16,34 32,75 35,93 8,35 26,46 63,37 l 25,-7 -7,57 c -9,72 2,88 51,73 39,-12 59,-1 48,26 -9,25 -83,49 -119,39 -28,-8 -30,-12 -35,-68 -7,-80 -26,-78 -66,6 -31,66 -87,132 -134,162 -33,20 -99,30 -126,18 z m 120,-87 c 93,-90 110,-141 33,-97 -23,13 -52,24 -65,24 -34,0 -92,27 -92,43 0,24 40,67 64,67 12,0 39,-17 60,-37 z m 80,-259 c 21,-21 20,-36 -5,-68 -25,-31 -42,-33 -70,-5 -20,20 -19,48 3,77 14,17 53,15 72,-4 z"
       id="path15"
       style="fill:#000080" />
    <path
       d="m 4575,7480 c -9,-15 11,-37 41,-44 26,-7 26,-8 21,-79 -3,-40 -10,-106 -16,-147 -10,-68 -9,-76 6,-88 10,-7 29,-12 43,-10 24,3 25,7 32,93 4,50 11,119 15,155 l 8,65 64,-3 c 36,-2 72,-7 82,-13 25,-13 33,-47 19,-75 -10,-18 -20,-23 -49,-21 -30,2 -36,-1 -39,-20 -8,-56 67,-133 128,-133 65,0 75,-20 34,-69 -22,-26 -24,-34 -13,-47 9,-11 22,-14 45,-9 27,5 34,2 39,-15 9,-27 -11,-50 -43,-50 -17,0 -41,16 -75,50 -27,28 -53,50 -56,50 -3,0 -17,-9 -31,-20 l -25,-19 25,-26 c 76,-82 210,-113 260,-60 34,36 31,82 -8,114 -30,26 -30,27 -22,86 5,33 15,96 24,140 8,44 15,81 16,83 0,1 11,2 24,2 31,0 40,14 26,40 -8,16 -21,20 -58,20 -26,0 -78,7 -117,15 -146,32 -389,53 -400,35 z m 445,-95 c 7,-8 10,-25 7,-37 -3,-13 -11,-44 -17,-71 -17,-68 -63,-96 -102,-60 -26,23 -23,51 6,59 30,7 58,47 56,77 -1,12 -2,28 -1,35 1,17 36,15 51,-3 z"
       id="path17"
       style="fill:#000080" />
    <path
       d="m 3715,7391 c -92,-34 -150,-51 -171,-51 -22,0 -79,-25 -104,-45 -8,-7 -29,-16 -45,-19 -26,-6 -39,0 -78,30 -40,31 -56,38 -97,38 -41,1 -54,-4 -79,-28 -38,-36 -43,-92 -11,-121 11,-10 20,-22 20,-26 0,-5 -46,-31 -102,-58 -57,-27 -113,-61 -125,-75 -13,-14 -27,-26 -33,-26 -8,0 -98,-57 -110,-71 -3,-3 -23,-16 -45,-29 -22,-13 -51,-36 -65,-50 -14,-15 -52,-49 -85,-77 -33,-27 -93,-83 -134,-124 -99,-100 -111,-113 -111,-123 0,-5 -18,-24 -40,-43 -31,-27 -40,-42 -40,-67 0,-38 15,-56 47,-56 29,0 37,18 24,53 -15,38 2,42 41,10 18,-15 35,-28 37,-30 3,-2 -1,-9 -7,-15 -7,-7 -12,-25 -12,-40 0,-27 1,-28 55,-28 46,0 56,3 66,22 9,17 8,28 -6,55 -18,33 -18,33 8,57 15,14 27,32 27,41 0,24 13,18 50,-27 81,-96 78,-94 96,-82 49,29 44,39 -69,150 -59,59 -107,112 -107,118 0,6 19,26 42,45 l 41,35 30,-35 c 27,-32 122,-147 158,-191 14,-18 18,-19 37,-7 35,22 37,46 5,78 -80,80 -163,180 -163,197 1,12 32,42 85,80 l 83,62 20,-22 c 36,-39 44,-63 26,-80 -14,-14 -18,-14 -37,-1 -39,27 -67,14 -67,-29 0,-8 35,-28 78,-45 42,-18 91,-39 107,-46 57,-25 78,-26 102,-3 13,12 23,27 23,34 0,6 -33,19 -75,29 -42,10 -78,22 -81,26 -2,4 3,23 12,42 17,36 13,50 -29,110 -15,22 -1,46 40,68 17,8 62,34 100,56 84,50 118,61 126,39 7,-19 -15,-42 -56,-60 -74,-31 -114,-86 -87,-119 5,-7 22,-27 36,-45 15,-19 37,-38 48,-43 12,-6 32,-16 46,-24 31,-18 61,-19 84,-2 27,20 6,53 -39,61 -40,8 -105,60 -105,85 1,23 20,45 58,64 42,20 46,17 96,-86 21,-42 42,-80 46,-82 5,-3 20,-1 34,5 29,11 35,43 13,69 -24,29 -87,142 -87,156 0,8 -6,18 -14,22 -7,4 -18,18 -25,31 -10,20 -9,23 14,34 33,15 32,21 -10,41 -36,17 -56,60 -37,79 14,14 66,1 88,-23 15,-17 16,-24 6,-39 -17,-28 -16,-28 25,-32 31,-3 38,-8 48,-38 7,-19 21,-55 33,-80 11,-25 28,-69 37,-97 16,-50 19,-53 50,-53 55,0 53,31 -6,147 -16,31 -29,64 -29,74 0,9 -7,22 -15,29 -23,19 -18,62 9,82 13,9 50,20 84,24 54,6 61,4 71,-14 20,-37 13,-62 -19,-73 -34,-12 -38,-34 -12,-65 43,-51 116,-69 156,-39 31,24 53,18 59,-14 7,-32 34,-46 67,-36 22,7 27,43 10,73 -13,23 -50,138 -50,156 0,8 -8,28 -17,44 -14,25 -15,32 -4,46 7,9 20,16 28,16 8,0 13,7 11,18 -4,24 -43,25 -103,3 z m -10,-71 c 10,-16 35,-119 35,-145 0,-28 -26,-45 -69,-45 -26,0 -31,4 -31,24 0,13 7,29 15,36 19,16 19,59 0,84 -10,13 -11,24 -4,37 10,20 44,26 54,9 z M 2521,6539 c 6,-13 0,-26 -26,-53 -18,-20 -39,-36 -46,-36 -15,0 -69,49 -69,63 0,17 43,69 64,77 22,8 57,-16 77,-51 z"
       id="path19"
       style="fill:#000080" />
    <path
       d="m 5777,7173 c -21,-21 -2,-44 71,-84 42,-24 86,-49 97,-56 23,-14 33,-19 58,-27 21,-7 23,-44 2,-52 -7,-3 -30,6 -49,21 -19,15 -50,35 -68,44 -18,10 -47,26 -65,37 -31,18 -32,18 -52,0 -40,-36 -14,-119 45,-151 41,-22 41,-49 1,-53 -31,-4 -67,21 -67,45 0,19 -41,33 -62,21 -27,-13 -22,-36 17,-79 19,-22 35,-49 35,-62 0,-28 9,-41 38,-56 26,-14 35,-1 30,45 -3,24 1,29 31,35 44,9 62,29 64,70 2,28 -3,36 -28,48 -52,25 -81,70 -55,86 12,7 146,-71 153,-89 3,-8 -4,-29 -16,-47 -12,-19 -26,-42 -32,-51 -5,-10 -23,-36 -40,-59 l -29,-41 24,-19 c 28,-21 50,-25 50,-8 0,6 26,55 58,108 32,53 61,104 65,113 3,10 18,20 32,24 22,5 32,1 56,-25 37,-40 36,-55 -1,-100 -17,-20 -57,-68 -89,-107 l -59,-71 22,-28 c 19,-24 25,-26 44,-16 12,6 22,16 22,22 0,13 149,209 160,209 20,0 61,-30 116,-83 32,-32 71,-66 87,-75 15,-9 27,-23 27,-32 0,-18 -27,-60 -39,-60 -5,0 -35,25 -67,56 -92,87 -101,88 -121,14 -18,-64 17,-104 60,-69 33,25 49,24 77,-6 l 23,-25 -66,-64 c -68,-64 -77,-82 -55,-104 21,-21 45,-13 78,26 18,20 61,67 96,104 62,65 65,67 95,56 22,-8 34,-7 42,1 8,8 -22,42 -112,128 -67,64 -134,123 -149,130 -15,8 -34,23 -44,33 -10,10 -31,27 -48,36 -16,10 -30,22 -30,26 0,4 -15,15 -32,24 -18,10 -38,24 -44,33 -7,8 -32,26 -57,41 -68,38 -219,131 -246,152 -25,19 -43,23 -54,11 z"
       id="path21"
       style="fill:#000080" />
    <path
       d="m 4340,6870 c -25,-5 -72,-9 -106,-9 -33,-1 -83,-8 -110,-16 -27,-8 -60,-15 -73,-15 -57,0 -283,-62 -388,-107 -17,-7 -36,-13 -41,-13 -6,0 -55,-20 -109,-45 -95,-44 -110,-52 -198,-102 -22,-12 -47,-26 -55,-30 -29,-13 -176,-117 -244,-172 -38,-31 -83,-67 -101,-81 -41,-32 -188,-183 -240,-246 -83,-99 -209,-274 -228,-314 -4,-8 -23,-42 -42,-75 -19,-33 -39,-70 -45,-82 -21,-51 -71,-159 -80,-175 -6,-10 -10,-23 -10,-29 0,-6 -6,-25 -13,-42 -47,-110 -107,-330 -107,-390 0,-14 -5,-38 -11,-54 -41,-104 -41,-661 0,-766 6,-16 11,-40 11,-54 0,-53 57,-266 101,-378 4,-11 11,-31 15,-45 4,-14 21,-56 39,-95 18,-38 40,-86 49,-105 8,-19 31,-62 51,-95 19,-33 38,-67 42,-75 9,-20 133,-204 142,-210 3,-3 35,-41 70,-85 135,-169 375,-382 539,-480 9,-6 28,-18 42,-27 62,-41 165,-95 305,-158 93,-42 321,-116 415,-135 47,-9 114,-23 150,-30 191,-40 574,-40 765,0 39,8 116,24 173,36 56,11 126,30 155,41 28,10 78,28 110,38 84,28 226,93 347,161 71,39 127,75 245,157 207,144 466,421 590,630 6,9 22,35 35,57 45,73 48,79 84,150 90,178 173,408 201,555 9,47 22,112 30,145 39,172 40,576 0,765 -7,36 -21,103 -30,150 -36,179 -138,446 -243,635 -48,86 -170,269 -183,273 -5,2 -9,10 -9,18 0,8 -3,14 -7,14 -5,0 -30,28 -58,63 -65,82 -194,212 -275,278 -36,29 -69,59 -73,66 -4,7 -13,13 -19,13 -7,0 -21,8 -32,19 -35,31 -178,126 -247,164 -35,19 -77,42 -94,51 -141,76 -403,169 -565,200 -47,9 -116,23 -155,31 -118,25 -437,40 -515,25 z m 500,-105 c 138,-23 181,-32 215,-43 17,-6 57,-18 90,-27 71,-20 129,-41 168,-61 16,-8 34,-14 40,-14 16,0 184,-79 275,-131 239,-133 553,-406 681,-592 16,-23 38,-51 50,-61 11,-11 21,-23 21,-27 0,-4 19,-36 42,-71 58,-85 131,-223 185,-348 8,-19 22,-47 29,-62 8,-14 14,-33 14,-41 0,-8 7,-28 15,-43 8,-16 15,-38 15,-49 1,-11 7,-31 15,-45 8,-14 14,-38 15,-53 0,-16 5,-38 12,-50 6,-12 15,-44 20,-72 4,-27 12,-70 17,-95 6,-25 15,-123 22,-218 12,-179 2,-432 -22,-569 -6,-32 -14,-79 -18,-106 -4,-26 -13,-53 -19,-59 -7,-7 -12,-26 -12,-44 0,-17 -7,-45 -15,-60 -8,-16 -15,-37 -15,-46 0,-17 -19,-66 -46,-121 -8,-16 -14,-36 -14,-45 0,-9 -7,-26 -15,-36 -8,-11 -15,-27 -15,-37 0,-9 -7,-22 -15,-29 -8,-7 -15,-19 -15,-26 0,-18 -114,-217 -152,-265 -15,-20 -28,-40 -28,-43 0,-20 -145,-191 -260,-306 -114,-115 -296,-270 -316,-270 -3,0 -23,-13 -43,-28 -20,-16 -43,-32 -51,-36 -8,-3 -42,-22 -75,-42 -57,-33 -171,-90 -245,-122 -19,-8 -43,-19 -53,-24 -37,-18 -228,-78 -250,-78 -13,0 -28,-5 -33,-10 -10,-10 -30,-15 -169,-39 -68,-11 -320,-34 -380,-33 -73,0 -349,23 -405,33 -30,6 -79,14 -108,18 -28,4 -57,12 -64,19 -7,7 -26,12 -42,12 -17,1 -42,7 -56,15 -14,8 -34,14 -45,15 -11,0 -33,7 -49,15 -15,8 -35,15 -43,15 -8,0 -27,6 -41,14 -15,7 -43,21 -62,29 -175,76 -360,182 -474,272 -187,148 -367,324 -443,435 -17,25 -40,54 -52,64 -11,11 -21,22 -21,26 0,4 -18,34 -39,66 -47,71 -88,144 -136,244 -21,41 -43,88 -51,103 -8,16 -14,36 -14,46 0,9 -4,21 -9,27 -12,11 -35,76 -62,169 -11,39 -25,84 -31,100 -6,17 -14,50 -18,75 -4,25 -13,72 -19,105 -34,192 -32,611 5,790 8,39 14,81 14,95 0,14 7,34 15,44 8,11 15,30 15,43 0,28 67,234 81,248 5,5 9,17 9,26 0,24 148,311 203,394 173,261 411,499 672,672 76,51 369,203 390,203 7,0 26,6 42,14 60,31 199,76 233,76 14,1 34,7 44,15 11,8 33,15 48,15 16,0 48,5 71,11 161,40 579,48 777,14 z"
       id="path23"
       style="fill:#000080" />
    <path
       d="m 6787,6313 c -15,-14 -5,-42 28,-84 43,-54 43,-69 5,-97 -50,-37 -78,-27 -52,18 14,23 14,31 3,44 -23,28 -51,19 -67,-21 -9,-21 -24,-56 -35,-79 -10,-22 -19,-44 -19,-48 0,-4 -9,-19 -21,-35 -15,-20 -18,-35 -13,-55 5,-23 11,-27 38,-24 22,2 32,9 34,23 2,11 10,39 19,63 18,48 42,55 66,18 9,-13 23,-31 32,-40 27,-26 14,-48 -50,-82 -79,-43 -87,-56 -54,-90 22,-21 28,-23 40,-12 20,18 77,58 84,58 3,0 32,20 66,45 62,46 105,57 115,30 4,-8 12,-15 20,-15 19,0 18,44 -1,60 -8,7 -15,19 -15,26 0,8 -4,14 -9,14 -5,0 -13,10 -16,23 -4,12 -19,38 -34,57 -14,19 -34,51 -45,70 -61,114 -98,155 -119,133 z m 138,-244 c 15,-29 15,-32 -2,-51 -34,-38 -51,-41 -78,-14 -33,33 -31,52 8,76 43,27 54,25 72,-11 z"
       id="path41"
       style="fill:#000080" />
    <path
       d="m 2013,6143 c -7,-2 -13,-9 -13,-14 0,-14 -41,-103 -50,-109 -4,-3 -15,-21 -25,-40 -9,-19 -23,-42 -30,-50 -7,-8 -16,-26 -20,-40 -4,-14 -18,-39 -31,-56 -13,-17 -24,-42 -24,-56 0,-14 -7,-31 -15,-38 -8,-7 -15,-22 -15,-34 0,-11 -16,-52 -35,-90 -18,-38 -40,-91 -47,-118 -10,-43 -18,-53 -53,-70 -66,-34 -160,-137 -173,-191 -17,-67 -15,-83 17,-119 22,-25 38,-33 63,-33 28,0 33,-4 36,-27 4,-37 30,-44 44,-12 11,24 15,25 57,19 26,-4 64,-13 86,-21 22,-7 52,-14 67,-14 15,0 39,-5 54,-10 45,-17 66,-4 62,38 -3,37 -3,37 -58,43 -100,12 -204,31 -221,40 -26,14 -30,59 -9,114 10,28 21,58 24,68 6,19 32,22 70,7 32,-12 33,-32 4,-45 -15,-7 -23,-19 -23,-35 0,-32 26,-36 117,-20 70,12 105,36 143,95 18,29 27,128 15,165 -4,12 4,15 40,15 43,0 45,1 48,33 2,23 -1,32 -12,32 -8,0 -30,6 -48,14 -18,8 -74,31 -124,52 l -92,37 5,41 c 3,23 11,46 18,51 7,6 16,21 20,35 4,14 12,31 18,38 15,19 55,93 73,134 19,46 36,52 67,27 33,-25 26,-50 -30,-113 -37,-41 -43,-55 -43,-91 0,-47 19,-70 81,-95 27,-12 39,-11 86,5 71,24 105,51 101,79 -4,31 -39,31 -83,2 -44,-30 -66,-32 -100,-10 -30,19 -38,40 -25,65 11,20 60,27 60,8 0,-6 12,-9 27,-7 35,4 42,33 14,59 -22,21 -27,44 -12,53 10,6 114,-59 119,-75 2,-5 15,-9 28,-9 45,0 59,73 17,86 -34,10 -218,107 -225,118 -4,6 -5,26 -2,44 5,27 3,32 -12,31 -11,0 -25,-3 -31,-6 z m -125,-565 c 30,-18 32,-22 19,-36 -12,-11 -13,-19 -5,-32 22,-35 -17,-75 -48,-49 -10,8 -14,22 -10,41 7,34 -9,45 -35,22 -28,-25 -24,-72 8,-106 32,-34 68,-36 100,-6 19,18 23,32 23,80 0,45 3,58 15,58 15,0 18,-9 16,-47 -1,-11 3,-24 8,-28 16,-9 13,-70 -5,-108 -17,-37 -54,-63 -94,-69 -20,-2 -26,2 -28,22 -5,35 -26,55 -71,69 -47,14 -55,30 -36,75 8,20 15,44 15,55 0,11 10,36 23,55 25,40 45,41 105,4 z m -218,-233 c 0,-3 -7,-22 -15,-42 -9,-20 -14,-51 -13,-68 2,-41 -26,-85 -54,-85 -29,0 -58,28 -58,55 0,20 61,101 100,132 15,13 40,17 40,8 z"
       id="path43"
       style="fill:#000080" />
    <path
       d="m 7087,6032 c -22,-24 -21,-31 7,-67 23,-28 24,-29 49,-12 28,18 27,29 -3,75 -18,27 -32,28 -53,4 z"
       id="path45"
       style="fill:#000080" />
    <path
       d="m 7034,5885 c -7,-16 -6,-19 31,-84 14,-24 25,-49 25,-56 0,-6 -21,-21 -46,-34 -57,-27 -77,-16 -46,24 25,31 17,68 -15,73 -15,2 -28,-9 -48,-45 -16,-26 -48,-77 -73,-112 -38,-55 -43,-69 -36,-90 6,-18 18,-27 35,-29 24,-3 29,3 45,48 10,28 27,58 37,68 18,16 20,15 43,-11 13,-16 24,-36 24,-46 0,-9 5,-22 10,-27 11,-11 3,-32 -34,-87 -14,-21 -17,-40 -14,-84 5,-53 8,-60 53,-101 39,-34 46,-45 34,-53 -8,-5 -18,-9 -24,-9 -5,0 -27,-5 -47,-11 -33,-8 -38,-14 -38,-38 0,-18 7,-31 17,-35 18,-7 111,12 128,26 5,4 25,8 45,8 19,0 44,7 54,15 11,8 34,15 51,15 28,0 32,-4 44,-46 8,-26 10,-49 5,-54 -10,-10 -160,-39 -241,-47 -56,-6 -66,-16 -54,-60 6,-23 13,-28 37,-26 40,2 131,23 177,39 48,18 81,18 97,-1 18,-22 43,-277 27,-287 -40,-26 -66,4 -68,79 -3,122 -30,142 -98,72 -37,-39 -40,-45 -27,-63 7,-12 24,-21 37,-21 34,0 49,-12 49,-40 0,-33 -14,-39 -99,-42 -93,-3 -101,-6 -101,-40 0,-52 12,-59 78,-45 32,7 101,12 154,12 94,0 96,-1 102,-25 6,-24 29,-34 40,-17 8,13 -12,272 -29,367 -9,50 -22,124 -29,165 -7,41 -18,89 -24,105 -5,17 -16,50 -24,75 -17,58 -48,69 -48,16 0,-39 -13,-50 -73,-61 -24,-5 -37,-3 -37,4 0,6 -25,26 -55,46 -55,35 -80,71 -69,100 9,23 26,18 63,-20 45,-47 84,-47 134,-1 45,41 49,85 14,137 -19,28 -30,35 -63,37 -51,4 -66,-13 -62,-69 4,-52 18,-58 41,-18 19,35 40,34 45,-1 3,-16 -4,-30 -20,-42 -30,-23 -44,-22 -80,3 -28,20 -29,24 -23,70 5,37 3,56 -9,74 -24,37 -19,55 21,71 35,15 37,15 60,-10 27,-30 53,-34 53,-9 0,9 -13,44 -29,77 -47,100 -61,134 -61,143 0,13 -34,43 -49,43 -6,0 -14,-7 -17,-15 z"
       id="path47"
       style="fill:#000080" />
    <path
       d="m 1579,4988 c 0,-7 -2,-48 -4,-90 -3,-43 0,-80 5,-83 5,-3 1,-20 -10,-38 -25,-40 -25,-69 -2,-124 14,-35 22,-43 43,-43 37,0 46,36 18,73 -23,32 -22,55 3,71 22,14 68,-27 68,-61 0,-18 5,-24 18,-21 12,2 18,14 20,41 4,47 36,67 77,49 49,-22 28,-61 -56,-105 -47,-25 -61,-55 -35,-76 24,-20 59,-6 116,48 l 53,49 -5,61 c -2,33 -7,64 -11,67 -4,4 -24,10 -44,13 -26,4 -39,12 -41,25 -6,30 13,39 46,22 17,-9 47,-16 67,-16 33,0 35,2 35,34 0,22 -6,36 -16,40 -9,3 -77,9 -151,13 l -135,6 -10,29 c -10,28 -47,41 -49,16 z m 155,-124 c 19,-18 19,-17 4,-49 -12,-26 -27,-32 -43,-16 -8,8 -38,16 -77,20 -10,1 -10,45 -1,54 13,14 101,7 117,-9 z"
       id="path49"
       style="fill:#000080" />
    <path
       d="m 1450,4319 c 0,-33 19,-59 43,-59 33,0 43,-11 50,-55 8,-48 1,-61 -36,-70 -23,-6 -28,-12 -25,-34 2,-19 8,-26 23,-24 25,2 88,25 106,39 8,6 23,14 34,17 37,10 137,55 147,65 8,8 8,22 2,44 -9,32 -12,33 -73,40 -35,4 -78,12 -94,18 -17,5 -42,10 -57,10 -14,0 -35,7 -46,15 -10,8 -31,15 -46,15 -22,0 -28,-5 -28,-21 z m 233,-86 c 17,-10 5,-32 -24,-42 -47,-16 -66,-14 -72,10 -10,40 2,51 47,44 22,-4 44,-9 49,-12 z"
       id="path51"
       style="fill:#000080" />
    <path
       d="m 7133,4268 c -68,-48 -65,-176 6,-213 28,-14 34,-14 61,0 30,15 71,70 84,111 9,30 43,37 67,13 27,-27 24,-41 -21,-87 -26,-26 -38,-46 -34,-56 16,-42 91,7 118,77 15,39 15,47 1,79 -18,44 -59,78 -93,78 -29,0 -65,-37 -101,-105 -30,-56 -62,-70 -81,-35 -15,28 -5,55 31,80 31,22 37,48 17,68 -16,16 -18,16 -55,-10 z"
       id="path53"
       style="fill:#000080" />
    <path
       d="m 1740,4083 c -30,-8 -71,-19 -90,-25 -19,-6 -62,-14 -95,-17 -54,-5 -60,-9 -63,-30 -2,-13 1,-33 6,-45 6,-12 13,-43 16,-71 7,-56 15,-68 39,-59 23,8 32,50 18,80 -21,46 -14,63 27,69 20,4 53,11 72,16 19,5 56,9 82,9 29,0 52,6 62,16 18,17 18,20 10,52 -7,25 -9,25 -84,5 z"
       id="path55"
       style="fill:#000080" />
    <path
       d="m 7073,4038 c -6,-7 -13,-29 -16,-48 -3,-19 -10,-55 -15,-80 -14,-61 -2,-80 47,-80 21,0 51,-4 67,-9 16,-5 62,-17 103,-26 90,-21 93,-19 112,86 7,39 16,72 21,75 13,8 -11,34 -32,34 -20,0 -40,-39 -40,-79 0,-43 -19,-59 -62,-54 -43,6 -45,14 -22,73 19,46 13,70 -16,70 -26,0 -30,-11 -39,-101 -1,-11 -39,-18 -62,-12 -19,5 -21,11 -15,55 4,28 12,58 19,68 13,21 11,25 -19,34 -12,4 -25,1 -31,-6 z"
       id="path57"
       style="fill:#000080" />
    <path
       d="m 1815,3882 c -6,-5 -48,-19 -95,-31 -47,-13 -107,-30 -133,-39 l -48,-16 7,-46 c 4,-25 10,-52 14,-60 4,-8 10,-32 14,-52 6,-32 11,-38 31,-38 37,0 47,28 24,75 -24,53 -24,74 4,84 34,14 162,41 191,41 34,0 54,37 37,69 -12,22 -30,27 -46,13 z"
       id="path59"
       style="fill:#000080" />
    <path
       d="m 7034,3782 c -33,-28 -54,-69 -54,-106 0,-63 74,-115 198,-141 108,-22 183,117 107,199 -28,31 -50,33 -64,7 -8,-14 -6,-24 9,-41 24,-28 26,-73 3,-95 -21,-22 -71,-16 -138,16 -42,20 -50,29 -53,54 -3,40 9,56 49,64 27,5 35,12 37,34 3,25 1,27 -35,27 -21,0 -47,-8 -59,-18 z"
       id="path61"
       style="fill:#000080" />
    <path
       d="m 1861,3555 c -30,-14 -88,-37 -130,-51 -88,-30 -103,-41 -95,-72 8,-29 34,-28 99,2 65,31 132,56 167,63 38,7 65,39 52,61 -16,25 -33,25 -93,-3 z"
       id="path63"
       style="fill:#000080" />
    <path
       d="m 6937,3562 c -15,-16 -15,-20 -1,-40 8,-12 23,-22 32,-22 28,-1 126,-38 130,-49 6,-18 -48,-33 -143,-40 l -90,-6 1,-37 c 1,-26 -3,-38 -12,-38 -8,0 -26,-23 -41,-51 -16,-29 -36,-66 -45,-83 -9,-17 -17,-34 -18,-38 0,-4 35,-24 78,-45 42,-21 103,-55 135,-76 31,-20 61,-37 65,-37 14,0 104,170 98,186 -2,6 -14,14 -26,17 -18,5 -25,-3 -48,-54 -27,-61 -42,-70 -83,-49 -25,14 -24,45 1,77 23,30 26,56 6,72 -11,9 -18,6 -33,-16 -10,-15 -24,-40 -31,-55 -13,-30 -37,-35 -64,-14 -21,16 -23,39 -5,58 18,21 47,78 47,94 0,18 37,10 100,-21 146,-74 173,-79 178,-32 3,23 -1,28 -28,33 -17,4 -33,11 -36,15 -3,5 -12,9 -21,9 -26,0 -93,34 -89,45 1,6 38,13 82,16 133,10 199,38 166,71 -12,12 -71,36 -111,45 -13,3 -57,23 -98,44 -40,22 -75,39 -77,39 -1,0 -10,-8 -19,-18 z"
       id="path65"
       style="fill:#000080" />
    <path
       d="m 1885,3443 c -76,-39 -113,-55 -162,-73 -36,-13 -45,-48 -19,-69 11,-9 30,-2 90,34 71,42 106,54 106,38 0,-3 -31,-48 -70,-99 -38,-52 -70,-100 -70,-109 0,-8 10,-20 23,-26 18,-8 39,-1 121,41 54,27 104,50 111,50 7,0 23,8 35,18 18,14 22,25 16,45 -8,34 -15,34 -69,-3 -25,-16 -49,-30 -55,-30 -5,0 -15,-7 -22,-15 -12,-15 -60,-21 -60,-8 0,7 49,74 66,88 6,6 21,27 33,48 13,20 27,37 32,37 17,0 9,49 -10,60 -24,12 -12,15 -96,-27 z"
       id="path67"
       style="fill:#000080" />
    <path
       d="m 2020,3189 c -30,-21 -88,-55 -127,-76 -40,-21 -73,-43 -73,-50 0,-16 59,-102 85,-125 33,-29 77,-32 121,-9 21,11 50,25 64,31 30,12 80,84 80,115 0,25 -54,135 -72,146 -17,11 -15,12 -78,-32 z m 78,-64 c 19,-41 14,-65 -20,-97 -31,-28 -88,-58 -113,-58 -7,0 -27,15 -44,32 l -32,33 25,20 c 14,11 42,29 63,40 21,10 49,27 62,37 32,24 46,23 59,-7 z"
       id="path69"
       style="fill:#000080" />
    <path
       d="m 6712,3108 c -20,-20 -14,-43 18,-66 16,-12 33,-22 38,-22 5,0 28,-13 50,-30 23,-16 45,-30 48,-30 3,0 23,-13 44,-30 44,-35 65,-38 80,-11 15,29 12,39 -11,46 -20,7 -188,107 -235,140 -15,12 -23,12 -32,3 z"
       id="path71"
       style="fill:#000080" />
    <path
       d="m 2185,2975 c -32,-31 -148,-108 -188,-126 -22,-10 -27,-18 -25,-38 5,-44 38,-38 119,23 41,30 95,65 121,78 49,24 61,51 36,76 -18,18 -32,15 -63,-13 z"
       id="path73"
       style="fill:#000080" />
    <path
       d="m 6616,2960 c -35,-39 -38,-46 -33,-87 6,-55 53,-108 133,-148 68,-34 109,-29 152,20 39,43 48,85 28,123 -19,36 -45,48 -64,29 -12,-13 -12,-20 3,-51 17,-36 17,-37 -5,-61 -13,-14 -32,-25 -42,-25 -16,0 -63,24 -78,40 -3,3 -14,10 -25,16 -11,6 -26,24 -34,39 -12,25 -12,32 1,54 12,21 21,26 50,24 25,-2 41,4 54,18 24,27 8,41 -53,46 -47,5 -50,4 -87,-37 z"
       id="path75"
       style="fill:#000080" />
    <path
       d="m 2285,2843 c -11,-3 -29,-12 -40,-19 -11,-8 -29,-14 -41,-14 -12,0 -27,-7 -34,-15 -7,-8 -19,-15 -27,-15 -9,0 -37,-8 -65,-17 -38,-14 -48,-22 -46,-37 5,-29 34,-43 58,-28 31,19 45,15 73,-25 24,-34 25,-39 12,-58 -34,-45 -29,-77 12,-83 16,-2 28,11 56,62 20,36 59,96 87,135 44,61 49,72 40,95 -10,26 -34,32 -85,19 z m 5,-75 c -1,-7 -16,-31 -36,-53 l -34,-40 -20,24 c -27,32 -26,38 18,60 43,23 72,26 72,9 z"
       id="path77"
       style="fill:#000080" />
    <path
       d="m 6508,2791 c -44,-19 -97,-85 -97,-121 -1,-29 24,-62 56,-79 28,-14 65,-6 120,26 53,31 87,28 91,-8 4,-34 -29,-62 -74,-63 -40,-1 -61,-22 -51,-50 8,-20 80,-22 104,-3 97,76 114,140 48,186 -40,27 -84,24 -138,-10 -59,-35 -112,-17 -87,31 11,20 32,30 64,30 45,0 60,39 24,62 -20,13 -27,13 -60,-1 z"
       id="path79"
       style="fill:#000080" />
    <path
       d="m 2407,2543 c -89,-87 -116,-120 -112,-134 15,-46 40,-32 154,83 61,61 111,117 111,123 0,7 -8,19 -18,28 -16,15 -25,8 -135,-100 z"
       id="path81"
       style="fill:#000080" />
    <path
       d="m 2568,2548 c -22,-33 -75,-93 -135,-153 -58,-57 -61,-66 -37,-89 26,-27 41,-18 88,53 77,116 100,117 71,3 -9,-37 -21,-86 -27,-108 -7,-30 -7,-48 2,-63 15,-29 51,-24 67,9 7,14 51,66 98,115 46,50 85,93 85,96 0,4 -11,14 -24,22 -21,14 -25,14 -45,-6 -11,-12 -39,-46 -61,-74 -39,-51 -81,-74 -65,-35 4,9 11,38 16,64 4,26 12,55 17,65 22,43 22,82 0,103 -27,25 -32,25 -50,-2 z"
       id="path83"
       style="fill:#000080" />
    <path
       d="m 6193,2490 c -43,-17 -28,-48 75,-154 53,-56 105,-102 115,-104 11,-2 39,16 72,47 30,28 59,51 64,51 15,0 14,33 -1,48 -20,20 -35,14 -83,-35 l -46,-48 -32,36 c -34,39 -95,110 -124,146 -14,17 -23,20 -40,13 z"
       id="path85"
       style="fill:#000080" />
    <path
       d="m 6045,2367 c -23,-19 -26,-26 -17,-43 24,-41 52,-118 52,-138 0,-12 5,-27 11,-33 6,-6 15,-30 20,-54 16,-70 45,-90 68,-46 10,18 9,28 -3,52 -15,29 -14,30 12,52 42,35 61,37 94,13 28,-21 30,-21 49,-4 10,9 19,20 19,24 0,4 -26,24 -57,45 -32,21 -83,57 -113,80 -105,80 -104,79 -135,52 z m 155,-143 c 0,-6 -12,-17 -26,-25 -23,-12 -27,-12 -40,6 -19,26 -28,61 -20,81 5,12 13,9 46,-18 22,-18 40,-38 40,-44 z"
       id="path87"
       style="fill:#000080" />
    <path
       d="m 2761,2325 c -17,-20 -31,-43 -31,-51 0,-8 16,-40 36,-71 42,-66 43,-106 4,-111 -34,-4 -68,33 -72,78 -2,27 -7,35 -23,35 -11,0 -25,-11 -32,-24 -26,-53 60,-152 133,-154 29,-1 42,5 65,31 39,44 37,72 -12,144 -46,67 -45,93 5,93 29,0 50,-27 61,-77 6,-30 32,-38 41,-13 5,12 12,11 45,-5 41,-22 50,-48 24,-70 -8,-7 -15,-16 -15,-20 0,-9 -58,-101 -85,-135 -21,-26 -19,-41 7,-59 31,-22 37,-20 54,17 8,17 28,55 45,82 16,28 35,61 42,75 21,44 36,49 81,26 23,-12 42,-22 44,-23 5,-2 -98,-195 -114,-214 -8,-8 -14,-20 -14,-26 0,-17 38,-46 54,-40 8,3 42,62 75,131 34,69 65,126 70,126 5,0 11,-9 14,-19 2,-11 15,-21 28,-23 46,-6 31,-65 -56,-228 -30,-57 36,-85 68,-29 9,17 17,38 17,47 0,8 6,23 13,31 7,9 22,42 32,74 11,31 22,57 25,57 3,0 22,-5 44,-11 36,-10 38,-12 33,-42 -3,-18 -15,-59 -26,-91 -32,-91 -29,-118 21,-160 36,-31 49,-36 92,-36 72,0 99,29 133,142 28,95 35,101 90,73 l 31,-15 -20,-73 c -11,-39 -27,-96 -36,-125 -16,-57 -10,-72 28,-72 31,0 42,19 51,91 5,41 15,94 23,119 l 13,45 h 52 c 51,0 52,-1 46,-25 -3,-14 -11,-59 -16,-100 -5,-41 -14,-88 -21,-104 -10,-25 -9,-31 7,-42 10,-8 29,-14 41,-14 13,0 49,-7 81,-15 72,-19 95,-13 91,23 -3,25 -7,27 -67,34 -35,4 -68,11 -73,16 -5,5 -8,25 -6,43 3,33 4,34 43,30 79,-8 89,-7 93,12 6,31 -17,47 -69,47 -53,0 -63,8 -53,44 8,34 29,39 88,21 63,-19 88,-12 84,23 -3,23 -9,28 -43,34 -65,11 -163,9 -171,-4 -5,-8 -10,-5 -15,9 -6,16 -20,22 -68,27 -33,4 -63,11 -66,16 -4,6 -14,10 -24,10 -10,0 -42,7 -70,16 -55,18 -81,10 -81,-27 0,-25 -48,-169 -61,-186 -6,-7 -26,-13 -44,-13 -43,0 -73,40 -56,77 6,13 11,31 11,39 0,15 30,91 51,127 12,22 -13,57 -41,57 -18,0 -180,67 -194,81 -6,5 -19,9 -29,9 -11,0 -25,7 -31,15 -6,8 -22,16 -35,17 -13,2 -36,14 -50,27 -14,12 -44,32 -66,43 -22,12 -51,29 -65,40 -16,13 -36,18 -59,16 -30,-2 -36,1 -42,24 -8,30 -20,44 -61,71 -44,28 -81,22 -117,-18 z"
       id="path89"
       style="fill:#000080" />
    <path
       d="m 5861,2243 c -21,-8 -62,-54 -72,-80 -10,-27 5,-82 31,-116 11,-14 20,-29 20,-34 0,-4 13,-23 29,-42 23,-28 36,-34 78,-38 47,-5 55,-2 93,28 39,32 41,35 38,84 -3,46 -5,50 -30,53 -29,3 -31,0 -28,-54 1,-23 -5,-35 -25,-48 -25,-16 -28,-16 -57,1 -35,20 -102,132 -93,155 3,8 17,21 30,28 21,11 32,11 65,0 30,-10 44,-10 52,-2 16,16 1,59 -24,66 -28,7 -88,7 -107,-1 z"
       id="path91"
       style="fill:#000080" />
    <path
       d="m 5672,2138 c -17,-17 -15,-39 8,-63 23,-24 110,-191 110,-210 0,-17 34,-28 60,-20 27,8 26,15 -14,75 -18,28 -53,91 -77,140 -44,89 -61,104 -87,78 z"
       id="path93"
       style="fill:#000080" />
    <path
       d="m 5492,2047 c -29,-13 -58,-29 -64,-35 -7,-7 -19,-12 -27,-12 -24,0 -165,-51 -180,-65 -11,-11 -11,-17 3,-42 20,-36 76,-207 76,-233 0,-16 7,-20 34,-20 18,0 47,7 62,15 16,8 37,15 47,15 41,0 84,50 61,72 -8,8 -73,-9 -107,-28 -35,-20 -53,-7 -63,42 -6,30 -4,31 50,48 43,14 56,22 56,37 0,30 -24,33 -76,10 -50,-23 -53,-22 -72,22 -11,27 -10,29 21,42 18,7 46,17 63,21 16,4 37,13 46,22 16,13 18,13 23,-4 7,-21 19,-49 64,-147 17,-37 31,-72 31,-77 0,-26 90,8 142,52 55,47 55,103 -2,203 -47,82 -101,100 -188,62 z m 105,-52 c 28,-20 63,-93 63,-132 0,-51 -72,-97 -87,-55 -3,9 -18,44 -33,77 -44,96 -45,104 -18,114 33,14 51,13 75,-4 z"
       id="path95"
       style="fill:#000080" />
    <path
       d="m 5135,1918 c -39,-21 -45,-39 -45,-139 0,-54 -4,-100 -9,-103 -9,-6 -30,22 -62,79 -68,124 -64,120 -99,118 -60,-3 -60,-10 1,-244 5,-20 9,-46 9,-57 0,-27 15,-35 47,-27 22,5 24,10 20,38 -5,33 -18,75 -44,136 -19,45 -2,62 23,24 24,-36 37,-59 64,-110 25,-50 44,-67 65,-59 12,4 15,24 15,93 0,106 7,135 29,131 17,-4 29,-57 30,-140 1,-50 19,-66 61,-53 25,8 25,6 -5,89 -14,38 -25,78 -25,90 0,32 -34,139 -45,142 -6,2 -19,-2 -30,-8 z"
       id="path97"
       style="fill:#000080" />
    <path
       d="m 4606,1836 c -27,-7 -51,-17 -54,-24 -2,-6 4,-34 13,-62 11,-33 16,-78 15,-133 -3,-111 -4,-107 30,-107 38,0 45,16 30,70 -16,58 -4,70 65,63 52,-5 54,-5 61,21 3,15 3,30 -1,34 -4,4 -37,7 -73,7 h -67 l -3,37 c -4,43 7,49 90,45 65,-2 73,2 64,38 -6,23 -10,25 -64,24 -31,-1 -79,-7 -106,-13 z"
       id="path99"
       style="fill:#000080" />
    <path
       d="m 4316,1796 c -27,-28 -36,-47 -41,-91 -13,-102 12,-163 83,-197 19,-10 40,-18 45,-18 24,0 84,34 101,57 23,32 33,141 17,198 -19,68 -33,79 -106,83 -64,4 -66,4 -99,-32 z m 119,-22 c 20,-8 45,-67 45,-109 0,-67 -50,-126 -89,-105 -42,22 -51,40 -51,104 0,91 36,132 95,110 z"
       id="path101"
       style="fill:#000080" />
    <path
       style="fill:#ffffff;fill-opacity:1;fill-rule:evenodd;stroke:none;stroke-width:22.0818"
       d="M 1570.665,1001.6707 H 7365.6148 V 299.94436 H 1570.665 Z"
       id="path1382" />
    <text
       xml:space="preserve"
       style="font-style:normal;font-variant:normal;font-weight:700;font-size:566.747px;line-height:125%;font-family:'Nirmala UI';text-align:start;letter-spacing:0px;word-spacing:0px;text-anchor:start;fill:#000080;fill-opacity:1;stroke:none;stroke-width:23.6145"
       transform="scale(0.97128957,-1.0295591)"
       x="1561.509"
       y="-516.02856"
       id="text1398"><tspan
         sodipodi:role="line"
         x="1561.509"
         y="-516.02856"
         id="tspan1396"
         style="fill:#000080;stroke-width:23.6145"><tspan
           dx="0"
           dy="0"
           style="font-style:normal;font-variant:normal;font-weight:700;font-size:566.747px;font-family:'Nirmala UI';fill:#000080;stroke-width:23.6145"
           id="tspan1384">शरीरमाद्यं</tspan><tspan
           dx="0"
           dy="0"
           style="font-style:normal;font-variant:normal;font-weight:700;font-size:566.747px;font-family:'Franklin Gothic Heavy';fill:#000080;stroke-width:23.6145"
           id="tspan1386"> </tspan><tspan
           dx="0"
           dy="0"
           style="font-style:normal;font-variant:normal;font-weight:700;font-size:566.747px;font-family:'Nirmala UI';fill:#000080;stroke-width:23.6145"
           id="tspan1388">खलु</tspan><tspan
           dx="0"
           dy="0"
           style="font-style:normal;font-variant:normal;font-weight:700;font-size:566.747px;font-family:'Franklin Gothic Heavy';fill:#000080;stroke-width:23.6145"
           id="tspan1390"> </tspan><tspan
           dx="0"
           dy="0"
           style="font-style:normal;font-variant:normal;font-weight:700;font-size:566.747px;font-family:'Nirmala UI';fill:#000080;stroke-width:23.6145"
           id="tspan1392">धर्मसाधनम्</tspan><tspan
           dx="0"
           dy="0"
           style="font-style:normal;font-variant:normal;font-weight:700;font-size:566.747px;font-family:'Franklin Gothic Heavy';fill:#000080;stroke-width:23.6145"
           id="tspan1394"> </tspan></tspan></text>
  </g>
  <g
     transform="matrix(0.03197737,0,0,-0.0311388,-31.745118,254.94098)"
     fill="#000000"
     stroke="none"
     id="g1125"
     style="fill:#000080">
    <path
       d="m 4584,6696 c -14,-10 -51,-14 -134,-14 -85,0 -125,-4 -152,-16 -21,-9 -50,-16 -66,-16 -16,0 -35,-7 -42,-15 -7,-8 -18,-15 -25,-15 -7,0 -18,-7 -25,-15 -7,-8 -21,-15 -32,-15 -30,0 -81,-29 -109,-63 l -27,-31 -32,27 c -52,44 -66,37 -93,-52 -23,-71 -24,-286 -2,-338 8,-19 15,-42 15,-49 0,-8 14,-44 31,-80 35,-73 31,-84 -25,-79 -17,1 -46,3 -64,4 -42,1 -38,22 7,33 17,5 29,13 26,18 -9,15 -53,12 -80,-6 -29,-19 -65,-16 -180,16 -44,12 -105,25 -135,30 -30,5 -71,13 -90,19 -19,6 -63,11 -97,11 -114,0 -197,-50 -248,-147 -10,-21 -24,-44 -29,-52 -12,-16 -30,-62 -57,-151 -29,-92 -29,-248 -1,-351 18,-69 25,-87 53,-139 5,-8 19,-35 31,-59 24,-46 172,-211 190,-211 6,0 27,-13 47,-28 20,-15 54,-36 76,-46 22,-11 51,-24 65,-31 33,-16 91,-30 230,-55 63,-12 142,-28 175,-36 33,-8 102,-22 153,-32 51,-10 93,-22 94,-28 1,-5 -30,-33 -68,-62 -76,-58 -176,-159 -198,-201 -58,-107 -74,-194 -57,-313 28,-199 154,-333 404,-427 23,-9 26,-14 18,-29 -5,-10 -26,-30 -46,-43 -47,-31 -97,-109 -119,-184 -17,-58 -17,-63 2,-142 45,-183 145,-309 320,-397 60,-30 72,-57 45,-95 -11,-14 -32,-53 -48,-85 -26,-53 -29,-69 -28,-155 1,-127 31,-199 80,-189 15,3 19,17 24,88 5,65 13,98 34,139 31,62 70,105 85,96 6,-4 10,-69 10,-161 0,-134 3,-161 20,-200 11,-24 27,-44 36,-44 8,0 37,19 64,41 l 50,42 2,155 c 2,106 7,157 14,159 7,2 29,-24 49,-57 l 38,-62 -5,-93 c -6,-103 -1,-120 30,-110 30,9 59,53 65,100 3,22 9,55 13,74 13,64 -30,201 -84,266 l -24,29 38,34 c 22,19 62,52 89,74 90,72 164,149 202,211 36,59 36,62 36,161 -1,107 -9,135 -66,223 -15,24 -27,45 -27,47 0,3 -13,20 -30,38 -16,18 -30,39 -30,48 0,9 28,30 63,50 130,71 191,123 256,215 98,141 96,365 -7,515 -33,49 -60,73 -181,168 -76,59 -96,81 -86,91 10,9 137,45 220,61 183,36 294,63 322,78 12,7 29,12 38,12 14,0 70,26 185,86 85,45 209,180 264,290 63,126 69,155 69,310 0,153 -9,193 -73,327 -44,93 -90,141 -174,182 -101,48 -137,47 -341,-10 -102,-29 -163,-32 -304,-19 -60,5 -73,4 -69,-7 3,-9 25,-16 59,-19 47,-4 54,-8 57,-28 4,-28 -1,-30 -126,-35 -84,-3 -105,-1 -109,10 -3,8 8,45 25,81 17,37 38,90 46,117 22,73 49,268 43,301 -9,45 -32,122 -39,129 -3,3 -25,-1 -49,-10 l -44,-15 -33,37 c -32,36 -43,41 -162,73 -19,5 -52,10 -74,10 -26,0 -48,8 -68,25 -33,28 -64,32 -94,11 z m -67,-73 c 3,-10 28,-55 56,-101 64,-107 99,-204 95,-262 -3,-39 -6,-45 -23,-41 -48,8 -77,2 -110,-23 -29,-22 -42,-26 -63,-20 -15,4 -43,7 -63,5 -32,-2 -40,3 -69,40 -28,35 -34,50 -33,91 0,30 7,56 17,67 9,10 16,26 16,37 0,10 14,39 30,64 16,25 30,50 30,55 0,6 8,18 18,27 9,8 30,30 45,47 33,35 45,38 54,14 z m -260,-60 c 29,-20 53,-42 53,-49 0,-27 -71,-153 -100,-178 -34,-28 -39,-29 -64,-20 -20,8 -21,49 -2,106 8,24 17,57 20,73 15,67 27,105 33,105 4,0 30,-16 60,-37 z m 557,-32 c 31,-58 48,-159 39,-229 -6,-47 -61,-118 -85,-110 -14,5 -40,67 -65,158 -25,87 -26,118 -10,153 21,43 64,90 80,85 6,-3 25,-28 41,-57 z m 138,-22 c 41,-83 79,-215 76,-262 l -3,-42 h -50 -50 l -16,163 c -9,89 -19,166 -23,169 -9,9 15,34 28,30 6,-2 23,-28 38,-58 z m -864,9 c 19,-19 14,-55 -17,-137 -16,-42 -32,-88 -35,-103 -12,-52 -56,-27 -56,32 0,33 23,117 51,188 14,33 36,41 57,20 z m 1000,-78 c 4,-71 -11,-84 -37,-32 -25,49 -26,56 -5,77 26,26 39,12 42,-45 z m -1155,36 c 9,-7 17,-26 17,-44 0,-35 -29,-92 -47,-92 -9,0 -13,22 -13,75 0,78 7,88 43,61 z m 1463,-616 c 191,-96 226,-189 128,-338 -24,-37 -44,-79 -44,-93 0,-15 -7,-32 -15,-39 -8,-7 -15,-19 -15,-27 0,-21 -82,-124 -123,-156 -19,-14 -52,-35 -73,-47 -21,-12 -46,-25 -54,-29 -66,-36 -203,-90 -255,-102 -22,-4 -74,-18 -115,-30 -41,-11 -93,-25 -115,-30 -22,-4 -52,-11 -67,-15 l -28,-6 v 210 c 0,144 4,220 12,239 26,58 337,451 372,470 27,14 146,30 242,32 65,1 79,-3 150,-39 z m -1448,13 c 64,-31 407,-398 430,-461 8,-22 17,-117 22,-227 5,-104 12,-200 16,-212 9,-31 -17,-40 -64,-20 -20,8 -68,24 -107,35 -67,20 -93,28 -167,53 -18,6 -50,15 -71,20 -21,5 -45,13 -55,18 -9,5 -49,21 -88,35 -87,33 -212,113 -248,161 -15,19 -43,67 -62,106 -20,39 -53,97 -75,129 -35,52 -39,64 -39,120 0,76 17,108 79,146 25,16 66,45 91,65 25,20 52,38 60,42 8,3 66,6 128,6 88,1 122,-3 150,-16 z m 1830,-259 c 1,-16 7,-46 14,-66 12,-41 -2,-71 -30,-66 -12,2 -15,19 -14,83 1,44 1,82 2,83 0,2 6,2 13,0 6,-3 13,-18 15,-34 z m -2487,-82 c 4,-31 10,-74 14,-94 8,-44 -9,-52 -39,-19 -15,16 -16,31 -10,93 10,110 23,118 35,20 z m 2699,-57 c 0,-57 -3,-75 -14,-75 -18,0 -28,42 -21,88 9,52 13,62 25,62 6,0 10,-30 10,-75 z M 4430,4300 c 0,-102 5,-228 10,-280 12,-121 12,-130 0,-130 -5,0 -38,13 -72,28 -35,16 -83,37 -108,47 -84,35 -175,87 -197,114 -28,32 -33,121 -8,141 8,7 15,18 15,24 0,39 262,245 312,246 9,0 20,5 24,11 17,28 23,-28 24,-201 z m 361,121 c 128,-71 229,-179 229,-246 0,-36 -55,-106 -138,-176 -48,-40 -193,-109 -228,-109 -12,0 -14,52 -14,293 0,162 3,296 6,299 6,7 75,-22 145,-61 z m -78,-926 c 149,-71 203,-205 124,-312 -26,-36 -140,-133 -156,-133 -13,0 -18,34 -31,206 -13,181 -13,264 1,264 5,0 34,-11 62,-25 z m -272,-12 c 11,-12 14,-64 14,-237 0,-196 -2,-221 -16,-220 -22,2 -160,115 -195,161 -25,33 -29,47 -29,100 0,54 4,66 31,100 32,40 137,111 165,112 9,1 23,-6 30,-16 z"
       id="path1031"
       style="fill:#000080" />
    <path
       d="m 2381,4851 c -26,-17 -46,-369 -32,-561 11,-132 17,-177 41,-295 25,-118 76,-265 141,-404 46,-98 165,-288 224,-356 130,-153 160,-185 173,-185 10,0 12,7 7,27 -3,15 -10,30 -14,33 -4,3 -25,28 -47,55 -21,28 -49,62 -62,76 -91,103 -302,466 -302,519 0,9 -4,20 -9,25 -8,9 -25,64 -61,195 -25,94 -39,364 -30,580 5,113 10,224 10,246 0,42 -15,60 -39,45 z"
       id="path1033"
       style="fill:#000080" />
    <path
       d="m 6597,4854 c -4,-4 -7,-152 -8,-328 0,-177 -5,-346 -10,-376 -5,-30 -13,-82 -18,-115 -5,-33 -13,-71 -19,-85 -6,-14 -20,-58 -32,-98 -13,-40 -27,-75 -31,-78 -5,-3 -9,-12 -9,-21 0,-23 -92,-201 -142,-276 -23,-34 -94,-132 -158,-217 -141,-188 -133,-176 -126,-206 9,-36 30,-29 70,24 19,26 54,70 76,97 62,77 124,158 135,177 6,9 33,54 61,100 59,95 144,265 144,288 0,8 7,24 15,34 8,11 15,32 15,46 0,14 5,31 11,37 6,6 16,31 21,55 32,143 39,221 44,483 7,359 -5,493 -39,459 z"
       id="path1035"
       style="fill:#000080" />
    <path
       d="m 6344,4689 c -4,-6 -8,-127 -9,-268 -2,-240 -4,-262 -28,-351 -44,-163 -111,-325 -169,-410 -13,-19 -27,-42 -31,-50 -9,-20 -26,-45 -124,-191 -46,-67 -83,-125 -83,-130 0,-5 8,-13 19,-18 15,-9 25,-2 60,39 22,27 41,53 41,58 0,5 10,17 21,28 58,52 249,393 249,445 0,8 4,19 9,24 20,24 69,228 91,383 16,116 12,389 -7,425 -14,29 -27,34 -39,16 z"
       id="path1037"
       style="fill:#000080" />
    <path
       d="m 2609,4643 c -7,-19 -9,-104 -6,-263 8,-342 27,-416 172,-685 21,-38 51,-89 66,-113 16,-24 29,-45 29,-49 0,-3 14,-25 30,-50 17,-24 30,-46 30,-48 0,-8 104,-160 114,-167 20,-14 36,-8 36,11 0,19 -30,67 -120,191 -22,30 -47,70 -55,88 -9,17 -20,32 -25,32 -6,0 -10,5 -10,10 0,6 -20,45 -43,88 -79,138 -128,284 -152,449 -20,139 -34,412 -23,436 5,10 8,34 6,55 -4,47 -33,57 -49,15 z"
       id="path1039"
       style="fill:#000080" />
    <path
       d="m 6093,4508 c -6,-7 -13,-38 -16,-68 -24,-221 -38,-324 -47,-340 -5,-10 -10,-29 -10,-42 0,-47 -57,-173 -141,-313 -58,-97 -64,-120 -29,-120 73,0 240,376 260,585 4,41 13,118 20,171 9,72 9,102 1,118 -13,24 -24,26 -38,9 z"
       id="path1041"
       style="fill:#000080" />
    <path
       d="m 2869,4468 c -2,-95 4,-239 11,-268 5,-19 19,-80 31,-135 12,-55 28,-109 36,-120 7,-11 13,-28 13,-37 0,-22 89,-192 133,-255 38,-54 58,-69 81,-60 19,8 17,12 -59,132 -46,71 -78,133 -109,215 -10,25 -24,60 -32,78 -8,18 -14,43 -14,57 0,13 -4,35 -10,50 -5,14 -17,96 -25,183 -9,86 -17,163 -20,170 -8,21 -35,14 -36,-10 z"
       id="path1043"
       style="fill:#000080" />
  </g>
</svg>
