<?xml version="1.0" encoding="UTF-8"?>
<svg version="1.1" xmlns="http://www.w3.org/2000/svg" width="284" height="200">
<path d="M0 0 C3.54913545 2.44186385 5.63856968 4.91570905 7 9 C7.66 9 8.32 9 9 9 C9 9.66 9 10.32 9 11 C9.99 11.33 10.98 11.66 12 12 C12.6875 14.0625 12.6875 14.0625 13 16 C13.556875 16.061875 14.11375 16.12375 14.6875 16.1875 C18.05802012 17.3717368 19.7687468 19.25874607 22 22 C21.75 24.125 21.75 24.125 21 26 C21.495 27.485 21.495 27.485 22 29 C20.0625 31.6875 20.0625 31.6875 18 34 C20.33075929 33.04134491 20.33075929 33.04134491 22 30 C23.32 30 24.64 30 26 30 C26.0272415 31.41655793 26.04650467 32.83327045 26.0625 34.25 C26.07410156 35.03890625 26.08570313 35.8278125 26.09765625 36.640625 C26 39 26 39 25.46484375 40.97265625 C24.87931313 43.52635701 25.16322279 45.59661167 25.5 48.1875 C25.70609511 49.78707909 25.88280236 51.39146241 26 53 C25.67 53.33 25.34 53.66 25 54 C25.020625 55.11375 25.04125 56.2275 25.0625 57.375 C25 61 25 61 23 64 C22.34 64 21.68 64 21 64 C20.731875 64.61875 20.46375 65.2375 20.1875 65.875 C19 68 19 68 16 70 C11.17425558 70.36420713 7.49683714 69.75486327 3 68 C3 67.01 3 66.02 3 65 C2.525625 64.525625 2.05125 64.05125 1.5625 63.5625 C-0.32506858 61.67493142 -0.68992143 60.63566788 -1 58 C-0.5625 55.25 -0.5625 55.25 0 53 C-2.1976752 51.69083721 -2.1976752 51.69083721 -5.8125 52.25 C-9.43874211 52.31569279 -9.83673974 52.13786422 -12.8125 49.625 C-13.8953125 48.325625 -13.8953125 48.325625 -15 47 C-15.99 46.34 -16.98 45.68 -18 45 C-17.34 45 -16.68 45 -16 45 C-16 44.34 -16 43.68 -16 43 C-16.66 43 -17.32 43 -18 43 C-18.31297956 39.00951059 -18.47051741 36.7225803 -16.25 33.3125 C-15.5075 32.549375 -14.765 31.78625 -14 31 C-13.4225 30.236875 -12.845 29.47375 -12.25 28.6875 C-8.80454808 26.10341106 -6.24479143 26.65767811 -2 27 C-1.34 27.33 -0.68 27.66 0 28 C0.33 27.34 0.66 26.68 1 26 C-1.50696497 25.22862616 -3.40815486 25.00832969 -6.0625 25.0625 C-9 25 -9 25 -12 23 C-12 22.34 -12 21.68 -12 21 C-12.61875 20.7525 -13.2375 20.505 -13.875 20.25 C-16.46275992 18.72778828 -17.05592658 17.83222025 -18 15 C-18.73029814 11.51079778 -18.41898903 9.65856762 -16.50390625 6.6484375 C-11.38959074 -0.05014622 -8.47176463 -2.34537108 0 0 Z M-9 0 C-8 2 -8 2 -8 2 Z M-8 3 C-7 6 -7 6 -7 6 Z M-1 3 C0 5 0 5 0 5 Z M-7 7 C-6 10 -6 10 -6 10 Z M0 7 C1 10 1 10 1 10 Z M7 11 C8 14 8 14 8 14 Z M-8 12 C-8 12.66 -8 13.32 -8 14 C-6.68 13.67 -5.36 13.34 -4 13 C-5.32 12.67 -6.64 12.34 -8 12 Z M1 12 C0.67 13.65 0.34 15.3 0 17 C0.66 16.67 1.32 16.34 2 16 C1.67 14.68 1.34 13.36 1 12 Z M8 15 C7.67 16.32 7.34 17.64 7 19 C7.99 18.67 8.98 18.34 10 18 C9.34 17.01 8.68 16.02 8 15 Z M15 19 C14.34 19.66 13.68 20.32 13 21 C13.99 21 14.98 21 16 21 C15.67 20.34 15.34 19.68 15 19 Z M5 26 C8.51033129 27.68630119 8.51033129 27.68630119 12.3125 27.625 C12.869375 27.41875 13.42625 27.2125 14 27 C14 26.34 14 25.68 14 25 C9.25923451 23.81301999 9.25923451 23.81301999 5 26 Z M7 32 C7 32.66 7 33.32 7 34 C7.66 33.67 8.32 33.34 9 33 C8.34 32.67 7.68 32.34 7 32 Z M0 35 C0.99 36.485 0.99 36.485 2 38 C2.33 37.01 2.66 36.02 3 35 C2.01 35 1.02 35 0 35 Z M14 35 C12.9739266 36.31337396 11.97272675 37.64664105 11 39 C11.33 39.66 11.66 40.32 12 41 C13.32 40.01 14.64 39.02 16 38 C15.67 37.01 15.34 36.02 15 35 C14.67 35 14.34 35 14 35 Z M-9 37 C-8.67 37.66 -8.34 38.32 -8 39 C-7.01 38.67 -6.02 38.34 -5 38 C-6.32 37.67 -7.64 37.34 -9 37 Z M20 37 C20.33 37.66 20.66 38.32 21 39 C21.33 38.34 21.66 37.68 22 37 C21.34 37 20.68 37 20 37 Z M7 38 C8 40 8 40 8 40 Z M19 39 C20 42 20 42 20 42 Z M6 42 C4.19212694 44.37402417 4.19212694 44.37402417 3 47 C3.33 47.66 3.66 48.32 4 49 C4.66 48.34 5.32 47.68 6 47 C7.31747324 46.30251417 8.64914193 45.63040043 10 45 C9.67 44.34 9.34 43.68 9 43 C9.66 43 10.32 43 11 43 C11 42.34 11 41.68 11 41 C8.78918149 40.89459074 8.78918149 40.89459074 6 42 Z M-7 42 C-6 44 -6 44 -6 44 Z M0 42 C1 44 1 44 1 44 Z M18 42 C18 42.99 18 43.98 18 45 C18.66 44.67 19.32 44.34 20 44 C19.34 43.34 18.68 42.68 18 42 Z M-8 46 C-7 48 -7 48 -7 48 Z M-1 46 C0 48 0 48 0 48 Z M21 47 C22 49 22 49 22 49 Z M16 48 C17 50 17 50 17 50 Z M1 49 C1 49.66 1 50.32 1 51 C1.66 51 2.32 51 3 51 C3 50.34 3 49.68 3 49 C2.34 49 1.68 49 1 49 Z M11 50 C11 50.33 11 50.66 11 51 C12.65 51 14.3 51 16 51 C16 50.67 16 50.34 16 50 C14.35 50 12.7 50 11 50 Z M17 52 C18 54 18 54 18 54 Z M18 54 C19 56 19 56 19 56 Z M11 57 C11.99 57.495 11.99 57.495 13 58 C13.33 58.99 13.66 59.98 14 61 C14.33 60.34 14.66 59.68 15 59 C14.67 58.34 14.34 57.68 14 57 C13.01 57 12.02 57 11 57 Z M20 59 C21 61 21 61 21 61 Z M16 65 C17 68 17 68 17 68 Z " fill="#A0C441" transform="translate(116,18)"/>
<path d="M0 0 C0.33 0 0.66 0 1 0 C1.66 3.3 2.32 6.6 3 10 C3.66 9.34 4.32 8.68 5 8 C4.9390918 8.88546509 4.9390918 8.88546509 4.87695312 9.78881836 C4.53854627 19.03026062 6.52912264 27.59907071 8.5 36.5625 C9.00188514 38.89268101 9.50065037 41.22350323 9.9979248 43.55467224 C10.30615353 44.99441486 10.61763399 46.4334661 10.93273926 47.87171936 C12 52.78402544 12 52.78402544 12 55 C9.03 55 6.06 55 3 55 C1.57499941 51.00999834 0.59924224 47.19469571 0 43 C-0.99 43.495 -0.99 43.495 -2 44 C-1.7215625 42.6696875 -1.7215625 42.6696875 -1.4375 41.3125 C-1.01957516 38.14821189 -1.19222258 36.05160358 -2 33 C-2.99 32.67 -3.98 32.34 -5 32 C-4.34 30.68 -3.68 29.36 -3 28 C-7.84986727 37.58895077 -12.57293388 47.20679312 -17 57 C-19.99707293 54.43829954 -21.30213684 51.58131127 -22.91796875 48.01953125 C-23.44970703 46.85615234 -23.98144531 45.69277344 -24.52929688 44.49414062 C-25.0821769 43.26699269 -25.63490942 42.0397783 -26.1875 40.8125 C-26.75133765 39.57328748 -27.3157842 38.33435183 -27.88085938 37.09570312 C-29.25992476 34.06647404 -30.63269432 31.03455077 -32 28 C-31.81566406 28.61359375 -31.63132812 29.2271875 -31.44140625 29.859375 C-30.88077717 32.57817796 -31.59063212 33.6786882 -33 36 C-33.33 35.67 -33.66 35.34 -34 35 C-34.36428777 36.9147688 -34.71605306 38.83192293 -35.0625 40.75 C-35.25972656 41.81734375 -35.45695312 42.8846875 -35.66015625 43.984375 C-35.97156937 46.74771905 -35.8991416 48.40946617 -35 51 C-35.66 51 -36.32 51 -37 51 C-37.33 52.32 -37.66 53.64 -38 55 C-40.97 55 -43.94 55 -47 55 C-46.40912947 48.06748219 -45.39936713 41.41423941 -43.93359375 34.6171875 C-43.73524429 33.67690704 -43.53689484 32.73662659 -43.33253479 31.76785278 C-42.70582173 28.80249023 -42.07179626 25.83874869 -41.4375 22.875 C-41.00797642 20.84906155 -40.57893548 18.82302071 -40.15039062 16.796875 C-39.10583093 11.86338322 -38.05471609 6.93133001 -37 2 C-34 3 -34 3 -32.19067383 6.23461914 C-31.51881412 7.66317311 -30.85833688 9.09711491 -30.20703125 10.53515625 C-29.85613937 11.28840683 -29.5052475 12.04165741 -29.14372253 12.81773376 C-28.02353197 15.2282627 -26.91791662 17.64516563 -25.8125 20.0625 C-25.05628795 21.69640329 -24.29913809 23.32987288 -23.54101562 24.96289062 C-21.68308469 28.97030618 -19.83819952 32.98349774 -18 37 C-17.46310547 35.92258545 -16.92621094 34.8451709 -16.37304688 33.73510742 C-15.65498192 32.29604423 -14.93688104 30.85699896 -14.21875 29.41796875 C-13.86651367 28.71087769 -13.51427734 28.00378662 -13.15136719 27.27526855 C-10.51502292 21.99498686 -7.80252319 16.7616593 -5.03125 11.55078125 C-3.93076916 8.82875857 -3.79052577 6.90645493 -4 4 C-3.34 4 -2.68 4 -2 4 C-1.34 2.68 -0.68 1.36 0 0 Z " fill="#0B7C48" transform="translate(47,104)"/>
<path d="M0 0 C4.43761173 1.02285377 7.44659963 4.00757113 10.203125 7.5078125 C11.51467406 11.51148858 11.71524406 13.3488062 10.015625 17.1953125 C8.19129159 19.52291031 6.46593245 21.59856871 4.203125 23.5078125 C3.213125 23.5078125 2.223125 23.5078125 1.203125 23.5078125 C1.14125 24.0853125 1.079375 24.6628125 1.015625 25.2578125 C-0.11714801 28.39472237 -2.13885095 29.59948754 -4.796875 31.5078125 C-4.136875 31.8378125 -3.476875 32.1678125 -2.796875 32.5078125 C-2.136875 31.5178125 -1.476875 30.5278125 -0.796875 29.5078125 C-0.136875 29.5078125 0.523125 29.5078125 1.203125 29.5078125 C1.533125 27.8578125 1.863125 26.2078125 2.203125 24.5078125 C2.863125 24.8378125 3.523125 25.1678125 4.203125 25.5078125 C4.61304688 25.02570312 5.02296875 24.54359375 5.4453125 24.046875 C5.98414063 23.41523438 6.52296875 22.78359375 7.078125 22.1328125 C7.61179688 21.50632812 8.14546875 20.87984375 8.6953125 20.234375 C9.81744507 18.94944599 10.99684475 17.71409275 12.203125 16.5078125 C12.533125 16.8378125 12.863125 17.1678125 13.203125 17.5078125 C15.21033423 17.22106832 17.2117194 16.88914549 19.203125 16.5078125 C19.203125 17.1678125 19.203125 17.8278125 19.203125 18.5078125 C19.780625 18.7553125 20.358125 19.0028125 20.953125 19.2578125 C24.16064793 21.03976968 26.55383045 23.2092234 28.203125 26.5078125 C28.67308495 33.90968166 28.67308495 33.90968166 26.828125 36.2578125 C26.291875 36.6703125 25.755625 37.0828125 25.203125 37.5078125 C24.02737789 39.60770902 24.02737789 39.60770902 23.203125 41.5078125 C22.543125 41.5078125 21.883125 41.5078125 21.203125 41.5078125 C19.78 42.0028125 19.78 42.0028125 18.328125 42.5078125 C9.67332754 45.27734769 -1.70173581 43.5078125 -10.796875 43.5078125 C-10.796875 42.1878125 -10.796875 40.8678125 -10.796875 39.5078125 C-12.116875 39.5078125 -13.436875 39.5078125 -14.796875 39.5078125 C-14.796875 29.17447917 -14.796875 18.84114583 -14.796875 8.5078125 C-14.178125 8.2603125 -13.559375 8.0128125 -12.921875 7.7578125 C-10.40109033 6.27499799 -10.0115752 5.09917292 -8.796875 2.5078125 C-5.68181349 0.43110483 -3.72728979 -0.09663344 0 0 Z M1.203125 1.5078125 C2.203125 3.5078125 2.203125 3.5078125 2.203125 3.5078125 Z M-5.796875 4.5078125 C-4.796875 7.5078125 -4.796875 7.5078125 -4.796875 7.5078125 Z M-10.796875 7.5078125 C-9.796875 9.5078125 -9.796875 9.5078125 -9.796875 9.5078125 Z M-4.796875 7.5078125 C-3.796875 9.5078125 -3.796875 9.5078125 -3.796875 9.5078125 Z M-3.796875 9.5078125 C-3.466875 10.8278125 -3.136875 12.1478125 -2.796875 13.5078125 C-1.806875 12.8478125 -0.816875 12.1878125 0.203125 11.5078125 C-1.116875 10.8478125 -2.436875 10.1878125 -3.796875 9.5078125 Z M-9.796875 10.5078125 C-8.796875 12.5078125 -8.796875 12.5078125 -8.796875 12.5078125 Z M-8.796875 12.5078125 C-7.796875 14.5078125 -7.796875 14.5078125 -7.796875 14.5078125 Z M-4.796875 14.5078125 C-3.796875 16.5078125 -3.796875 16.5078125 -3.796875 16.5078125 Z M-6.796875 17.5078125 C-5.806875 18.9928125 -5.806875 18.9928125 -4.796875 20.5078125 C-3.146875 20.1778125 -1.496875 19.8478125 0.203125 19.5078125 C0.203125 19.1778125 0.203125 18.8478125 0.203125 18.5078125 C-2.106875 18.1778125 -4.416875 17.8478125 -6.796875 17.5078125 Z M-12.796875 18.5078125 C-11.796875 20.5078125 -11.796875 20.5078125 -11.796875 20.5078125 Z M11.203125 19.5078125 C12.203125 21.5078125 12.203125 21.5078125 12.203125 21.5078125 Z M-6.796875 20.5078125 C-5.796875 22.5078125 -5.796875 22.5078125 -5.796875 22.5078125 Z M-10.796875 21.5078125 C-9.796875 23.5078125 -9.796875 23.5078125 -9.796875 23.5078125 Z M10.203125 22.5078125 C11.203125 25.5078125 11.203125 25.5078125 11.203125 25.5078125 Z M17.203125 22.5078125 C18.203125 25.5078125 18.203125 25.5078125 18.203125 25.5078125 Z M-8.796875 24.5078125 C-8.466875 25.8278125 -8.136875 27.1478125 -7.796875 28.5078125 C-7.466875 27.5178125 -7.136875 26.5278125 -6.796875 25.5078125 C-7.456875 25.1778125 -8.116875 24.8478125 -8.796875 24.5078125 Z M9.203125 26.5078125 C10.203125 30.5078125 10.203125 30.5078125 10.203125 30.5078125 Z M16.203125 26.5078125 C17.203125 29.5078125 17.203125 29.5078125 17.203125 29.5078125 Z M-12.796875 28.5078125 C-11.796875 30.5078125 -11.796875 30.5078125 -11.796875 30.5078125 Z M-10.796875 31.5078125 C-10.796875 32.1678125 -10.796875 32.8278125 -10.796875 33.5078125 C-9.806875 33.1778125 -8.816875 32.8478125 -7.796875 32.5078125 C-8.786875 32.1778125 -9.776875 31.8478125 -10.796875 31.5078125 Z M-6.796875 33.5078125 C-8.116875 34.8278125 -9.436875 36.1478125 -10.796875 37.5078125 C-10.466875 38.1678125 -10.136875 38.8278125 -9.796875 39.5078125 C-8.146875 37.8578125 -6.496875 36.2078125 -4.796875 34.5078125 C-5.456875 34.1778125 -6.116875 33.8478125 -6.796875 33.5078125 Z M8.203125 33.5078125 C10.183125 34.4978125 10.183125 34.4978125 12.203125 35.5078125 C11.873125 34.8478125 11.543125 34.1878125 11.203125 33.5078125 C10.213125 33.5078125 9.223125 33.5078125 8.203125 33.5078125 Z M1.203125 34.5078125 C1.203125 35.1678125 1.203125 35.8278125 1.203125 36.5078125 C2.193125 36.8378125 3.183125 37.1678125 4.203125 37.5078125 C4.203125 36.8478125 4.203125 36.1878125 4.203125 35.5078125 C3.213125 35.1778125 2.223125 34.8478125 1.203125 34.5078125 Z " fill="#A0C441" transform="translate(157.796875,-0.5078125)"/>
<path d="M0 0 C3.49971199 -0.1173794 6.99890955 -0.18763961 10.5 -0.25 C11.48226562 -0.28351563 12.46453125 -0.31703125 13.4765625 -0.3515625 C19.78546067 -0.43568114 24.82731009 0.14907852 30 4 C33.3420614 7.9038934 34.65253156 11.68984887 34.40625 16.93359375 C33.67853523 20.63514294 31.91627045 23.78340317 30 27 C30.60714844 27.268125 31.21429688 27.53625 31.83984375 27.8125 C36.92107389 30.6057983 39.13863629 35.83495901 40.8125 41.125 C41.79379128 44.51885823 42.11940852 47.4680217 42 51 C39.03 51 36.06 51 33 51 C32.84144531 50.28714844 32.68289063 49.57429688 32.51953125 48.83984375 C30.353393 39.94790605 27.92938385 34.74342415 20.1875 29.6875 C19.39730469 29.21699219 18.60710937 28.74648437 17.79296875 28.26171875 C17.20128906 27.84535156 16.60960937 27.42898437 16 27 C16 26.34 16 25.68 16 25 C17.99330842 23.65668346 19.99384866 22.32405988 22 21 C24.16617415 17.75073878 24.21335669 17.4014758 23.625 13.8125 C23.41875 12.554375 23.2125 11.29625 23 10 C21.60459859 9.82975495 20.20865091 9.6639851 18.8125 9.5 C18.03519531 9.4071875 17.25789063 9.314375 16.45703125 9.21875 C13.98008214 8.99822671 11.48674635 9 9 9 C9 22.86 9 36.72 9 51 C6.03 51 3.06 51 0 51 C-0.16749902 44.21913831 -0.328071 37.43816172 -0.48217773 30.65698242 C-0.53560261 28.34932014 -0.59093234 26.04170114 -0.64819336 23.73413086 C-0.73009041 20.42050512 -0.80517364 17.10678495 -0.87890625 13.79296875 C-0.90594131 12.7585112 -0.93297638 11.72405365 -0.96083069 10.6582489 C-0.98092697 9.6974794 -1.00102325 8.7367099 -1.02172852 7.74682617 C-1.04171402 6.90077316 -1.06169952 6.05472015 -1.08229065 5.18302917 C-1 3 -1 3 0 0 Z " fill="#0C7D48" transform="translate(242,108)"/>
<path d="M0 0 C0.66 0 1.32 0 2 0 C5 5.75 5 5.75 5 8 C5.99 7.67 6.98 7.34 8 7 C7.67 7.99 7.34 8.98 7 10 C7.61741665 11.94102823 7.61741665 11.94102823 8.72241211 13.96484375 C9.12290268 14.75576416 9.52339325 15.54668457 9.9360199 16.36157227 C10.5999752 17.63665649 10.5999752 17.63665649 11.27734375 18.9375 C11.7226796 19.81398193 12.16801544 20.69046387 12.62684631 21.59350586 C14.05435444 24.40057356 15.494889 27.2006677 16.9375 30 C18.3751666 32.79998229 19.80987987 35.60134584 21.23744202 38.40649414 C22.12707439 40.15365901 23.02278025 41.89774689 23.92503357 43.63842773 C24.3286763 44.42934814 24.73231903 45.22026855 25.14819336 46.03515625 C25.50650742 46.7300415 25.86482147 47.42492676 26.23399353 48.14086914 C27 50 27 50 27 53 C23.76558142 53.79210251 21.19027274 54.06342425 18 53 C16.546875 50.328125 16.546875 50.328125 15.1875 47 C13.72780073 43.56054219 13.72780073 43.56054219 11 41 C4.5300927 39.36921349 -2.44300682 40.33003286 -9 41 C-10.98 44.96 -12.96 48.92 -15 53 C-18.3 53 -21.6 53 -25 53 C-24.09953624 50.16997104 -23.23525495 47.45744017 -21.875 44.8125 C-20.78262547 42.88516673 -20.78262547 42.88516673 -21 40 C-20.34 40.33 -19.68 40.66 -19 41 C-18.86271484 39.98873047 -18.86271484 39.98873047 -18.72265625 38.95703125 C-17.81548 35.2449641 -16.18641812 32.05670295 -14.4375 28.6875 C-13.71466651 27.26962159 -12.99201584 25.85164997 -12.26953125 24.43359375 C-11.89650879 23.70640137 -11.52348633 22.97920898 -11.13916016 22.22998047 C-9.27592329 18.58257251 -7.45207783 14.91561468 -5.625 11.25 C-4.97154372 9.94261357 -4.31790977 8.63531593 -3.6640625 7.328125 C-3.11492187 6.22984375 -2.56578125 5.1315625 -2 4 C-1.33333333 2.66666667 -0.66666667 1.33333333 0 0 Z M0 18 C-1.03033882 20.12040742 -2.04902854 22.24647908 -3.0625 24.375 C-3.63097656 25.55835938 -4.19945312 26.74171875 -4.78515625 27.9609375 C-5.38650391 29.46527344 -5.38650391 29.46527344 -6 31 C-5.67 31.66 -5.34 32.32 -5 33 C-0.71 33 3.58 33 8 33 C6.72936448 29.18809343 5.51749676 25.73849288 3.875 22.125 C3.52179688 21.34382813 3.16859375 20.56265625 2.8046875 19.7578125 C2.53914063 19.17773438 2.27359375 18.59765625 2 18 C1.34 18 0.68 18 0 18 Z " fill="#0B7C48" transform="translate(195,106)"/>
<path d="M0 0 C0.66 0 1.32 0 2 0 C2.43699219 0.91942383 2.43699219 0.91942383 2.8828125 1.85742188 C9.37697633 15.50946124 15.94908421 29.10964063 22.82421875 42.57421875 C23.65373047 44.20810547 23.65373047 44.20810547 24.5 45.875 C24.9846875 46.82117188 25.469375 47.76734375 25.96875 48.7421875 C27 51 27 51 27 53 C23.7 53 20.4 53 17 53 C16.16180842 51.37750059 15.3295884 49.75191503 14.5 48.125 C14.0359375 47.22007812 13.571875 46.31515625 13.09375 45.3828125 C12 43 12 43 12 41 C4.41 41 -3.18 41 -11 41 C-11.66 42.98 -12.32 44.96 -13 47 C-13.97004121 49.01470098 -14.96244882 51.01922047 -16 53 C-18.97 53 -21.94 53 -25 53 C-24.40226044 49.37354535 -23.40979127 46.42800477 -21.79101562 43.13378906 C-21.33384155 42.19641907 -20.87666748 41.25904907 -20.40563965 40.29327393 C-19.91084106 39.29414978 -19.41604248 38.29502563 -18.90625 37.265625 C-18.39952759 36.2318573 -17.89280518 35.1980896 -17.37072754 34.13299561 C-16.30082878 31.9530429 -15.22813043 29.77446228 -14.15283203 27.59716797 C-12.50067419 24.25136531 -10.857037 20.90148425 -9.21484375 17.55078125 C-8.17497285 15.43465317 -7.13462479 13.31875948 -6.09375 11.203125 C-5.59895142 10.19590393 -5.10415283 9.18868286 -4.59436035 8.15093994 C-4.13718628 7.22617859 -3.68001221 6.30141724 -3.20898438 5.34863281 C-2.80562866 4.5309845 -2.40227295 3.71333618 -1.98669434 2.87091064 C-1 1 -1 1 0 0 Z M0 17 C-1.03040167 19.28779038 -2.04952018 21.57951136 -3.0625 23.875 C-3.35705078 24.52597656 -3.65160156 25.17695313 -3.95507812 25.84765625 C-4.69661513 27.54010541 -5.35439001 29.26868575 -6 31 C-5.67 31.66 -5.34 32.32 -5 33 C-0.71 33 3.58 33 8 33 C5.69 27.72 3.38 22.44 1 17 C0.67 17 0.34 17 0 17 Z " fill="#0B7D48" transform="translate(85,106)"/>
<path d="M0 0 C4.07665232 -1.27740363 6.96674525 -1.51618668 11 0 C15.70687776 5.1950835 18.85666232 11.7813185 22 18 C22.39848145 17.40106934 22.79696289 16.80213867 23.20751953 16.18505859 C24.23157172 14.65162599 25.26518068 13.12456086 26.3046875 11.6015625 C28.02518497 9.04558937 28.02518497 9.04558937 29.3828125 6.3984375 C30.76308561 3.91394589 31.92909706 1.95334076 34 0 C37.45642463 -0.74733505 40.52471947 -0.55631961 44 0 C42.73712511 3.42352813 41.2813274 6.26671029 39.1875 9.25 C36.59456452 13.0382155 34.32487236 16.90256039 32.17578125 20.95703125 C31 23 31 23 29.45849609 24.77514648 C27.63812551 27.55201912 27.57609644 29.33877383 27.48828125 32.640625 C27.45283203 33.71054688 27.41738281 34.78046875 27.38085938 35.8828125 C27.35830078 36.99398437 27.33574219 38.10515625 27.3125 39.25 C27.27833984 40.37664062 27.24417969 41.50328125 27.20898438 42.6640625 C27.12657726 45.44235954 27.06161028 48.22116399 27 51 C23.04 51 19.08 51 15 51 C15.0721875 49.43507812 15.144375 47.87015625 15.21875 46.2578125 C15.31252384 44.21354276 15.40627254 42.16927187 15.5 40.125 C15.54769531 39.09246094 15.59539062 38.05992187 15.64453125 36.99609375 C15.68964844 36.00996094 15.73476562 35.02382812 15.78125 34.0078125 C15.82314453 33.09660645 15.86503906 32.18540039 15.90820312 31.24658203 C16.09088368 26.77576694 14.91836791 25.02144173 12.5 21.15234375 C12.14486328 20.58044815 11.78972656 20.00855255 11.42382812 19.41932678 C10.28674014 17.58940387 9.14376573 15.76325524 8 13.9375 C6.85701112 12.10771097 5.71530955 10.27715076 4.57617188 8.44496155 C3.54323642 6.78435319 2.50608403 5.12637011 1.46875 3.46850586 C0 1 0 1 0 0 Z " fill="#0C7D48" transform="translate(98,108)"/>
<path d="M0 0 C8.91 0 17.82 0 27 0 C27 2.64 27 5.28 27 8 C21.06 8 15.12 8 9 8 C9 11.63 9 15.26 9 19 C14.94 19 20.88 19 27 19 C27 21.64 27 24.28 27 27 C21.06 27 15.12 27 9 27 C9 34.92 9 42.84 9 51 C6.03 51 3.06 51 0 51 C0 34.17 0 17.34 0 0 Z " fill="#0B7D48" transform="translate(147,108)"/>
<path d="M0 0 C3.43925601 0.56090871 4.76659773 1.51026824 6.875 4.25 C8.88407835 6.74597234 10.86017907 8.82555422 13.375 10.8125 C14.674375 11.8953125 14.674375 11.8953125 16 13 C16 13.66 16 14.32 16 15 C17.11375 15.6496875 17.11375 15.6496875 18.25 16.3125 C21.29086209 18.17848355 22.88581362 20.15678384 25 23 C25.66 23.66 26.32 24.32 27 25 C27.33 25 27.66 25 28 25 C28 26.98 28 28.96 28 31 C27.34 31 26.68 31 26 31 C25.175 31.99 24.35 32.98 23.5 34 C22.675 34.99 21.85 35.98 21 37 C20.34 37 19.68 37 19 37 C18.67 38.32 18.34 39.64 18 41 C17.505 40.505 17.505 40.505 17 40 C15.783125 40.0825 14.56625 40.165 13.3125 40.25 C9.98604845 40.29769106 8.26476058 39.87397355 5.6875 37.75 C4.800625 36.8425 3.91375 35.935 3 35 C2.45214844 34.47535156 1.90429688 33.95070312 1.33984375 33.41015625 C-0.7606903 29.63164456 -0.27445601 25.92750198 -0.125 21.6875 C0.02609987 15.9679254 -0.11389769 10.67681802 -1 5 C-0.5625 2.0625 -0.5625 2.0625 0 0 Z M2 2 C3 4 3 4 3 4 Z M3 4 C4 6 4 6 4 6 Z M4 6 C4.33 6.66 4.66 7.32 5 8 C5.33 7.34 5.66 6.68 6 6 C5.34 6 4.68 6 4 6 Z M2 9 C3 11 3 11 3 11 Z M8 17 C9 19 9 19 9 19 Z M6 25 C7 27 7 27 7 27 Z M11 26 C11 27.32 11 28.64 11 30 C11.66 29.67 12.32 29.34 13 29 C12.67 28.01 12.34 27.02 12 26 C11.67 26 11.34 26 11 26 Z M5 27 C6 30 6 30 6 30 Z M10 30 C11 33 11 33 11 33 Z M4 31 C5 33 5 33 5 33 Z M9 33 C10 36 10 36 10 36 Z " fill="#9DC141" transform="translate(143,48)"/>
<path d="M0 0 C30.86770073 0 30.86770073 0 35.4375 3.9375 C38.75273307 7.89960781 39.28846473 9.77928137 39.22265625 14.96875 C38.762742 19.16445898 36.18243684 22.37103043 33 25 C32.34 25 31.68 25 31 25 C30.54625 25.515625 30.0925 26.03125 29.625 26.5625 C28.820625 27.2740625 28.820625 27.2740625 28 28 C25.9375 27.625 25.9375 27.625 24 27 C23.34 27.33 22.68 27.66 22 28 C21.9175 27.21625 21.835 26.4325 21.75 25.625 C21.29090262 22.86943709 21.29090262 22.86943709 19.0625 21.875 C18.0415625 21.441875 18.0415625 21.441875 17 21 C16.34 20.01 15.68 19.02 15 18 C14.34 18.33 13.68 18.66 13 19 C12.67 17.35 12.34 15.7 12 14 C11.34 14 10.68 14 10 14 C9.34 12.68 8.68 11.36 8 10 C7.01 10.495 7.01 10.495 6 11 C5.566875 10.2575 5.13375 9.515 4.6875 8.75 C3.08762968 6.03331818 3.08762968 6.03331818 1.3125 3.8125 C0 2 0 2 0 0 Z M6 4 C6.33 4.66 6.66 5.32 7 6 C7.33 5.34 7.66 4.68 8 4 C7.34 4 6.68 4 6 4 Z M14 6 C13.34 6.66 12.68 7.32 12 8 C12.99 8 13.98 8 15 8 C14.67 7.34 14.34 6.68 14 6 Z M13 9 C14 12 14 12 14 12 Z M19 9 C19.66 10.32 20.32 11.64 21 13 C21 11.68 21 10.36 21 9 C20.34 9 19.68 9 19 9 Z M29 11 C28.01 11.495 28.01 11.495 27 12 C27.33 12.99 27.66 13.98 28 15 C28 14.34 28 13.68 28 13 C28.99 12.67 29.98 12.34 31 12 C30.34 11.67 29.68 11.34 29 11 Z M14 12 C15 15 15 15 15 15 Z M21 17 C22 19 22 19 22 19 Z M28 17 C29 19 29 19 29 19 Z M22 21 C23 23 23 23 23 23 Z M29 21 C30 23 30 23 30 23 Z " fill="#A1C541" transform="translate(147,44)"/>
<path d="M0 0 C0.4640625 1.2065625 0.4640625 1.2065625 0.9375 2.4375 C2.20796865 5.50157145 3.09347216 5.68737452 6 7 C7 10 7 10 6.5625 12.5625 C5.18248622 20.99591756 6.18653184 29.54574158 7 38 C5.02 38.495 5.02 38.495 3 39 C2.56429687 38.40832031 2.12859375 37.81664062 1.6796875 37.20703125 C-2.44673324 31.72753579 -2.44673324 31.72753579 -7.4375 27.0625 C-8.283125 26.381875 -9.12875 25.70125 -10 25 C-10 24.34 -10 23.68 -10 23 C-10.7425 22.566875 -11.485 22.13375 -12.25 21.6875 C-16.54452964 19.05222045 -18.49127367 16.4190787 -20.1875 11.6875 C-19.94119718 6.84354455 -18.08463589 5.05339131 -14.859375 1.6015625 C-10.62891678 -2.04231958 -5.06217498 -1.68739166 0 0 Z M-10 1 C-9 3 -9 3 -9 3 Z M-9 3 C-8 5 -8 5 -8 5 Z M-4 4 C-3 7 -3 7 -3 7 Z M-8 5 C-7 7 -7 7 -7 7 Z M-5 7 C-4 9 -4 9 -4 9 Z M1 7 C2 9 2 9 2 9 Z M-6 9 C-6.99 9.66 -7.98 10.32 -9 11 C-7.68 11.33 -6.36 11.66 -5 12 C-5.33 11.01 -5.66 10.02 -6 9 Z M-5 12 C-4 15 -4 15 -4 15 Z M-1 12 C0 14 0 14 0 14 Z M-2 14 C-1 16 -1 16 -1 16 Z M-4 16 C-3 18 -3 18 -3 18 Z M-1 24 C0 27 0 27 0 27 Z M1 30 C1.33 30.66 1.66 31.32 2 32 C2.33 31.34 2.66 30.68 3 30 C2.34 30 1.68 30 1 30 Z M2 32 C3 34 3 34 3 34 Z M3 34 C4 36 4 36 4 36 Z " fill="#0B7D48" transform="translate(135,1)"/>
<path d="M0 0 C4.43761173 1.02285377 7.44659963 4.00757113 10.203125 7.5078125 C11.51467406 11.51148858 11.71524406 13.3488062 10.015625 17.1953125 C8.19129159 19.52291031 6.46593245 21.59856871 4.203125 23.5078125 C3.213125 23.5078125 2.223125 23.5078125 1.203125 23.5078125 C1.14125 24.0853125 1.079375 24.6628125 1.015625 25.2578125 C-0.1190552 28.40000381 -2.18933032 29.42177675 -4.796875 31.5078125 C-6.36250769 33.59532276 -7.83412646 35.71948508 -9.26953125 37.8984375 C-9.77355469 38.42953125 -10.27757812 38.960625 -10.796875 39.5078125 C-12.116875 39.5078125 -13.436875 39.5078125 -14.796875 39.5078125 C-14.796875 29.17447917 -14.796875 18.84114583 -14.796875 8.5078125 C-14.178125 8.2603125 -13.559375 8.0128125 -12.921875 7.7578125 C-10.40109033 6.27499799 -10.0115752 5.09917292 -8.796875 2.5078125 C-5.68181349 0.43110483 -3.72728979 -0.09663344 0 0 Z M1.203125 1.5078125 C2.203125 3.5078125 2.203125 3.5078125 2.203125 3.5078125 Z M-5.796875 4.5078125 C-4.796875 7.5078125 -4.796875 7.5078125 -4.796875 7.5078125 Z M-10.796875 7.5078125 C-9.796875 9.5078125 -9.796875 9.5078125 -9.796875 9.5078125 Z M-4.796875 7.5078125 C-3.796875 9.5078125 -3.796875 9.5078125 -3.796875 9.5078125 Z M-3.796875 9.5078125 C-3.466875 10.8278125 -3.136875 12.1478125 -2.796875 13.5078125 C-1.806875 12.8478125 -0.816875 12.1878125 0.203125 11.5078125 C-1.116875 10.8478125 -2.436875 10.1878125 -3.796875 9.5078125 Z M-9.796875 10.5078125 C-8.796875 12.5078125 -8.796875 12.5078125 -8.796875 12.5078125 Z M-8.796875 12.5078125 C-7.796875 14.5078125 -7.796875 14.5078125 -7.796875 14.5078125 Z M-4.796875 14.5078125 C-3.796875 16.5078125 -3.796875 16.5078125 -3.796875 16.5078125 Z M-6.796875 17.5078125 C-5.806875 18.9928125 -5.806875 18.9928125 -4.796875 20.5078125 C-3.146875 20.1778125 -1.496875 19.8478125 0.203125 19.5078125 C0.203125 19.1778125 0.203125 18.8478125 0.203125 18.5078125 C-2.106875 18.1778125 -4.416875 17.8478125 -6.796875 17.5078125 Z M-12.796875 18.5078125 C-11.796875 20.5078125 -11.796875 20.5078125 -11.796875 20.5078125 Z M-6.796875 20.5078125 C-5.796875 22.5078125 -5.796875 22.5078125 -5.796875 22.5078125 Z M-10.796875 21.5078125 C-9.796875 23.5078125 -9.796875 23.5078125 -9.796875 23.5078125 Z M-8.796875 24.5078125 C-8.466875 25.8278125 -8.136875 27.1478125 -7.796875 28.5078125 C-7.466875 27.5178125 -7.136875 26.5278125 -6.796875 25.5078125 C-7.456875 25.1778125 -8.116875 24.8478125 -8.796875 24.5078125 Z M-12.796875 28.5078125 C-11.796875 30.5078125 -11.796875 30.5078125 -11.796875 30.5078125 Z M-10.796875 31.5078125 C-10.796875 32.1678125 -10.796875 32.8278125 -10.796875 33.5078125 C-9.806875 33.1778125 -8.816875 32.8478125 -7.796875 32.5078125 C-8.786875 32.1778125 -9.776875 31.8478125 -10.796875 31.5078125 Z " fill="#0C7D48" transform="translate(157.796875,-0.5078125)"/>
<path d="M0 0 C2.64 0 5.28 0 8 0 C8 16.83 8 33.66 8 51 C5.36 51 2.72 51 0 51 C0 34.17 0 17.34 0 0 Z " fill="#0C7E48" transform="translate(227,108)"/>
<path d="M0 0 C2.5 1.5 2.5 1.5 4 3 C3.69381595 6.67420866 3.24228216 7.78135513 0.4375 10.3125 C-0.366875 10.869375 -1.17125 11.42625 -2 12 C-1.71125 12.62648437 -1.4225 13.25296875 -1.125 13.8984375 C-0.75375 14.71570313 -0.3825 15.53296875 0 16.375 C0.37125 17.18710938 0.7425 17.99921875 1.125 18.8359375 C2 21 2 21 2 23 C3.65 23.33 5.3 23.66 7 24 C7 23.34 7 22.68 7 22 C6.484375 21.608125 5.96875 21.21625 5.4375 20.8125 C4 19 4 19 4.0625 15.625 C5.09388725 11.63696928 5.93460498 9.74272186 9 7 C12.75 6.1875 12.75 6.1875 16 6 C16.75 7.75 16.75 7.75 17 10 C14.94773334 12.76266666 13.58468741 13.8405398 10.25 14.75 C9.13625 14.87375 9.13625 14.87375 8 15 C8 15.99 8 16.98 8 18 C8.763125 17.649375 9.52625 17.29875 10.3125 16.9375 C13 16 13 16 16 17 C15.195625 17.5775 14.39125 18.155 13.5625 18.75 C11.02133261 20.98126893 10.34879632 21.74456771 10 25 C6.875 25.8125 6.875 25.8125 3 26 C-2.19192892 22.80496682 -3.99952856 19.6680024 -6 14 C-6.66 15.32 -7.32 16.64 -8 18 C-7.01 18.66 -6.02 19.32 -5 20 C-6 21 -6 21 -8.28515625 21.09765625 C-9.65994141 21.08025391 -9.65994141 21.08025391 -11.0625 21.0625 C-11.98160156 21.05347656 -12.90070313 21.04445312 -13.84765625 21.03515625 C-14.55792969 21.02355469 -15.26820313 21.01195312 -16 21 C-16 20.34 -16 19.68 -16 19 C-15.01 18.67 -14.02 18.34 -13 18 C-12.67 17.01 -12.34 16.02 -12 15 C-13.65 14.67 -15.3 14.34 -17 14 C-17.31346682 10.00329808 -17.40395059 7.67325099 -15.3125 4.1875 C-10.60219878 -0.26819035 -6.22958152 -0.49441123 0 0 Z M-8 2 C-6.515 2.99 -6.515 2.99 -5 4 C-5.33 5.98 -5.66 7.96 -6 10 C-3.49034386 9.29660434 -3.49034386 9.29660434 -1 8 C0.06754834 6.06599083 0.06754834 6.06599083 0 4 C-1.89755144 1.65026182 -1.89755144 1.65026182 -5.125 1.875 C-6.07375 1.91625 -7.0225 1.9575 -8 2 Z M-12 4 C-13.75651531 5.61694804 -13.75651531 5.61694804 -15 8 C-14.43326199 11.2006714 -14.43326199 11.2006714 -13 14 C-12.34 14.33 -11.68 14.66 -11 15 C-10.34 11.7 -9.68 8.4 -9 5 C-9.99 4.67 -10.98 4.34 -12 4 Z M11 8 C10.34 9.65 9.68 11.3 9 13 C10.32 12.34 11.64 11.68 13 11 C13 10.01 13 9.02 13 8 C12.34 8 11.68 8 11 8 Z " fill="#0C7D47" transform="translate(178,174)"/>
<path d="M0 0 C1.32 0.33 2.64 0.66 4 1 C3.67 1.99 3.34 2.98 3 4 C1.35 4.33 -0.3 4.66 -2 5 C-2.19335938 5.80824219 -2.38671875 6.61648437 -2.5859375 7.44921875 C-2.84632813 8.51785156 -3.10671875 9.58648437 -3.375 10.6875 C-3.75785156 12.27111328 -3.75785156 12.27111328 -4.1484375 13.88671875 C-4.91905489 16.70406766 -5.85498543 19.31668325 -7 22 C-5.35 22.33 -3.7 22.66 -2 23 C-1.67 21.68 -1.34 20.36 -1 19 C-0.01 19 0.98 19 2 19 C1.125 24.875 1.125 24.875 0 26 C-1.66617115 26.04063832 -3.33388095 26.042721 -5 26 C-5 26.66 -5 27.32 -5 28 C-7 27 -7 27 -8.28515625 25.4375 C-11.24196852 22.95889655 -14.63499106 23.94759125 -18.30859375 24.1875 C-21.5042033 23.96487408 -22.71956915 23.2021552 -25 21 C-26.11222716 17.98109772 -26.1165079 16.41748665 -25.25 13.3125 C-24 11 -24 11 -21 9 C-17.9375 8.6875 -17.9375 8.6875 -15 9 C-14.01 10.485 -14.01 10.485 -13 12 C-13.33 12.99 -13.66 13.98 -14 15 C-12.68 15.99 -11.36 16.98 -10 18 C-9.72285156 17.21753906 -9.44570312 16.43507812 -9.16015625 15.62890625 C-8.79792969 14.61699219 -8.43570313 13.60507813 -8.0625 12.5625 C-7.70285156 11.55316406 -7.34320313 10.54382813 -6.97265625 9.50390625 C-6 7 -6 7 -5 6 C-5.99 6 -6.98 6 -8 6 C-8.33 7.65 -8.66 9.3 -9 11 C-9.99 11 -10.98 11 -12 11 C-12.36516854 6.49625468 -12.36516854 6.49625468 -10.78125 4.34375 C-8.48014554 2.60782909 -7.16017456 2.68868806 -4.3125 2.8125 C-3.10013672 2.85310547 -3.10013672 2.85310547 -1.86328125 2.89453125 C-1.24839844 2.92933594 -0.63351563 2.96414062 0 3 C0 2.01 0 1.02 0 0 Z M-20 11 C-20.33 11.66 -20.66 12.32 -21 13 C-19.68 13 -18.36 13 -17 13 C-17 12.34 -17 11.68 -17 11 C-17.99 11 -18.98 11 -20 11 Z M-22 13 C-22.33425735 15.37374861 -22.33425735 15.37374861 -22 18 C-19.62130509 20.65315971 -18.32875347 20.98103345 -14.75 21.1875 C-13.8425 21.125625 -12.935 21.06375 -12 21 C-15.8229103 16.81012846 -15.8229103 16.81012846 -21 15 C-21.33 14.34 -21.66 13.68 -22 13 Z " fill="#0B7D48" transform="translate(150,171)"/>
<path d="M0 0 C1.0828125 0.37125 1.0828125 0.37125 2.1875 0.75 C2.6825 2.235 2.6825 2.235 3.1875 3.75 C0.7125 3.255 0.7125 3.255 -1.8125 2.75 C-4.96069255 8.61215164 -7.07625242 14.3311453 -8.8125 20.75 C-7.4925 20.75 -6.1725 20.75 -4.8125 20.75 C-4.8125 21.41 -4.8125 22.07 -4.8125 22.75 C-7.7825 22.75 -10.7525 22.75 -13.8125 22.75 C-13.4825 21.43 -13.1525 20.11 -12.8125 18.75 C-13.04007731 16.58700789 -13.04007731 16.58700789 -13.8125 14.75 C-14.4725 14.42 -15.1325 14.09 -15.8125 13.75 C-16.94441474 14.7819257 -16.94441474 14.7819257 -17.7578125 16.5625 C-18.97518665 18.81988254 -20.14795129 20.79468202 -21.8125 22.75 C-25.625 23.75 -25.625 23.75 -28.8125 23.75 C-29.1425 22.43 -29.4725 21.11 -29.8125 19.75 C-28.8225 19.75 -27.8325 19.75 -26.8125 19.75 C-26.8125 20.41 -26.8125 21.07 -26.8125 21.75 C-22.95601092 19.17900728 -22.41538258 16.35090548 -21.125 12.125 C-20.90005859 11.41859375 -20.67511719 10.7121875 -20.44335938 9.984375 C-19.89022099 8.24257755 -19.35009637 6.49665697 -18.8125 4.75 C-20.4625 5.41 -22.1125 6.07 -23.8125 6.75 C-23.8125 8.07 -23.8125 9.39 -23.8125 10.75 C-24.8025 10.75 -25.7925 10.75 -26.8125 10.75 C-27.1425 9.76 -27.4725 8.77 -27.8125 7.75 C-26.5 5.125 -26.5 5.125 -23.8125 2.75 C-20.48370319 2.02589553 -17.21319612 1.82138866 -13.8125 1.75 C-14.33518466 4.51276177 -14.92119587 7.0760876 -15.8125 9.75 C-12.8425 10.245 -12.8425 10.245 -9.8125 10.75 C-9.585625 9.6775 -9.35875 8.605 -9.125 7.5 C-7.44743136 2.70694676 -5.4454067 -0.48403615 0 0 Z M-11.8125 12.75 C-12.1425 14.07 -12.4725 15.39 -12.8125 16.75 C-12.1525 15.43 -11.4925 14.11 -10.8125 12.75 C-11.1425 12.75 -11.4725 12.75 -11.8125 12.75 Z " fill="#0C7C48" transform="translate(57.8125,172.25)"/>
<path d="M0 0 C-0.33 0.99 -0.66 1.98 -1 3 C-2.98 3 -4.96 3 -7 3 C-8.55810358 11.48982597 -8.55810358 11.48982597 -10 20 C-8.02 19.67 -6.04 19.34 -4 19 C-4 19.99 -4 20.98 -4 22 C-2.68 22 -1.36 22 0 22 C-0.680625 20.9275 -1.36125 19.855 -2.0625 18.75 C-4.01783221 15.32989595 -4.01783221 15.32989595 -3.875 12.6875 C-3 11 -3 11 -1 9 C2.125 8.875 2.125 8.875 5 9 C5 10.32 5 11.64 5 13 C3.35 12.34 1.7 11.68 0 11 C1.0209375 12.60875 1.0209375 12.60875 2.0625 14.25 C4.01783221 17.67010405 4.01783221 17.67010405 3.875 20.3125 C3 22 3 22 1 24 C-2.5 24.25 -2.5 24.25 -6 24 C-6.66 23.34 -7.32 22.68 -8 22 C-8.99 22.66 -9.98 23.32 -11 24 C-12.32 24 -13.64 24 -15 24 C-14.36386618 16.11194058 -13.63802772 8.23158396 -8.5 1.9375 C-5.22828538 -0.59807883 -3.9963838 -1.33212793 0 0 Z " fill="#0B7D48" transform="translate(110,171)"/>
<path d="M0 0 C0.66 0 1.32 0 2 0 C2 1.32 2 2.64 2 4 C2.66 4.33 3.32 4.66 4 5 C4 5.66 4 6.32 4 7 C3.01 7.495 3.01 7.495 2 8 C2.33 8.66 2.66 9.32 3 10 C1.68 9.67 0.36 9.34 -1 9 C-1.33 11.31 -1.66 13.62 -2 16 C-1.01 15.34 -0.02 14.68 1 14 C1.99 14.33 2.98 14.66 4 15 C2 18 2 18 0.0546875 18.51171875 C-0.66460937 18.56972656 -1.38390625 18.62773437 -2.125 18.6875 C-3.40375 18.790625 -4.6825 18.89375 -6 19 C-5.85831863 17.56208484 -5.71148957 16.1246763 -5.5625 14.6875 C-5.48128906 13.88699219 -5.40007812 13.08648437 -5.31640625 12.26171875 C-5 10 -5 10 -4 7 C-5.65 7 -7.3 7 -9 7 C-9 7.66 -9 8.32 -9 9 C-9.66 9 -10.32 9 -11 9 C-11.99 12.3 -12.98 15.6 -14 19 C-15.32 18.67 -16.64 18.34 -18 18 C-17.34 15.03 -16.68 12.06 -16 9 C-16.66 9 -17.32 9 -18 9 C-17.3125 7.0625 -17.3125 7.0625 -16 5 C-13.56968481 4.27090544 -11.52838375 4 -9 4 C-8.34 3.835 -7.68 3.67 -7 3.5 C-5 3 -5 3 -3 3 C-2.505 2.505 -2.01 2.01 -1.5 1.5 C-1.005 1.005 -0.51 0.51 0 0 Z " fill="#0B7B48" transform="translate(240,176)"/>
<path d="M0 0 C0.99 0 1.98 0 3 0 C3.33 0.99 3.66 1.98 4 3 C3.01 3 2.02 3 1 3 C1 4.98 1 6.96 1 9 C1.99 9 2.98 9 4 9 C4.99 10.485 4.99 10.485 6 12 C7.32 11.34 8.64 10.68 10 10 C9.01 11.32 8.02 12.64 7 14 C12.445 14.495 12.445 14.495 18 15 C18 16.32 18 17.64 18 19 C17.34 19 16.68 19 16 19 C16 18.01 16 17.02 16 16 C15.01257813 16.08378906 14.02515625 16.16757813 13.0078125 16.25390625 C11.08582031 16.40666016 11.08582031 16.40666016 9.125 16.5625 C7.84882812 16.66691406 6.57265625 16.77132812 5.2578125 16.87890625 C2 17 2 17 0 16 C-1.37342831 15.9310528 -2.75002102 15.91532292 -4.125 15.9375 C-6.043125 15.9684375 -6.043125 15.9684375 -8 16 C-7.67 15.154375 -7.34 14.30875 -7 13.4375 C-5.93894046 9.79010784 -5.84890987 6.77725336 -6 3 C-4.35 3.33 -2.7 3.66 -1 4 C-0.67 2.68 -0.34 1.36 0 0 Z M-5 6 C-4 8 -4 8 -4 8 Z M1 10 C2 12 2 12 2 12 Z M3 13 C3 13.66 3 14.32 3 15 C3.66 15 4.32 15 5 15 C5 14.34 5 13.68 5 13 C4.34 13 3.68 13 3 13 Z " fill="#90B641" transform="translate(114,54)"/>
<path d="M0 0 C0.66 0.33 1.32 0.66 2 1 C2.625 3.5625 2.625 3.5625 3 6 C3.99 6 4.98 6 6 6 C6.66 6 7.32 6 8 6 C8 6.66 8 7.32 8 8 C9.65 8 11.3 8 13 8 C13 8.33 13 8.66 13 9 C10.69 9 8.38 9 6 9 C6 9.66 6 10.32 6 11 C4.02 11.99 4.02 11.99 2 13 C2 12.34 2 11.68 2 11 C-0.49361571 12.20381448 -2.68143083 13.45428722 -5 15 C-3.68 16.32 -2.36 17.64 -1 19 C-4.96 19 -8.92 19 -13 19 C-11.97027256 13.85136278 -11.5310808 13.30326913 -8 10 C-8 9.34 -8 8.68 -8 8 C-7.01 8 -6.02 8 -5 8 C-4.34 7.01 -3.68 6.02 -3 5 C-2.34 5 -1.68 5 -1 5 C-0.67 3.35 -0.34 1.7 0 0 Z " fill="#9ABD3E" transform="translate(160,24)"/>
<path d="M0 0 C2 2 2 2 2.375 5.3125 C1.94452982 9.54545677 0.96639625 11.03360375 -2 14 C-4.76250036 15.38125018 -6.94731099 15.19079306 -10 15 C-12 13 -12 13 -12.3125 10.1875 C-11.96197909 6.61218673 -11.1405297 4.8540396 -9 2 C-5.54754176 -0.30163882 -4.05261287 -0.34490322 0 0 Z M-5 2 C-7.47346304 4.47346304 -7.98313144 5.70761168 -8.1875 9.25 C-8.0946875 10.61125 -8.0946875 10.61125 -8 12 C-6.68 12.33 -5.36 12.66 -4 13 C-2.01637931 10.08291076 -2.0123809 8.87619096 -2.375 5.25 C-2.58125 4.1775 -2.7875 3.105 -3 2 C-3.66 2 -4.32 2 -5 2 Z " fill="#0B7D48" transform="translate(219,180)"/>
<path d="M0 0 C2.3125 0.625 2.3125 0.625 4.25 2.75 C5.3125 5.625 5.3125 5.625 4.75 8.6875 C3.20980049 11.83486422 2.18372054 13.60738557 -0.6875 15.625 C-4.3125 16.0625 -4.3125 16.0625 -7.6875 15.625 C-9.6875 12.625 -9.6875 12.625 -9.6875 9.25 C-8.23095685 3.97003107 -5.53641172 1.28753761 0 0 Z M-2.6875 2.625 C-4.95631841 5.71059304 -5.74201946 7.04709376 -5.375 10.9375 C-5.148125 11.824375 -4.92125 12.71125 -4.6875 13.625 C-2.71213255 13.27713292 -2.71213255 13.27713292 -0.6875 12.625 C0.7908226 9.66835481 0.37282783 6.88270263 0.3125 3.625 C-0.6775 3.295 -1.6675 2.965 -2.6875 2.625 Z " fill="#0B7D48" transform="translate(64.6875,179.375)"/>
<path d="M0 0 C0.33 1.65 0.66 3.3 1 5 C-4.75 9 -4.75 9 -7 9 C-7 9.99 -7 10.98 -7 12 C-4.69 11.34 -2.38 10.68 0 10 C0 10.66 0 11.32 0 12 C-3.3897789 14.51812147 -5.77967261 15.46892527 -10 15 C-11 14 -11 14 -11.25 10.75 C-10.98639756 6.79596338 -10.38856845 5.09629244 -8 2 C-4.77208445 -0.1519437 -3.71599191 -0.20086443 0 0 Z M-4 2 C-4.66 3.32 -5.32 4.64 -6 6 C-5.01 5.67 -4.02 5.34 -3 5 C-3.33 4.01 -3.66 3.02 -4 2 Z " fill="#0C7D48" transform="translate(93,180)"/>
<path d="M0 0 C-0.33 0.66 -0.66 1.32 -1 2 C-1.66 1.67 -2.32 1.34 -3 1 C-3.33 2.65 -3.66 4.3 -4 6 C-2.35 6 -0.7 6 1 6 C1 7.32 1 8.64 1 10 C1.99 10.33 2.98 10.66 4 11 C3 12 3 12 -0.1875 12.1875 C-3.86757532 12.00651269 -6.58897147 11.33113308 -10 10 C-10 9.01 -10 8.02 -10 7 C-10.474375 6.525625 -10.94875 6.05125 -11.4375 5.5625 C-13.25103592 3.74896408 -13.57093295 2.48858887 -14 0 C-11.69 0.66 -9.38 1.32 -7 2 C-6.67 1.34 -6.34 0.68 -6 0 C-3 -1 -3 -1 0 0 Z " fill="#93BA42" transform="translate(129,76)"/>
<path d="M0 0 C1.32 0.66 2.64 1.32 4 2 C4 2.66 4 3.32 4 4 C4.556875 4.061875 5.11375 4.12375 5.6875 4.1875 C8.94987173 5.33373872 10.68667874 7.49390197 13 10 C12.67 10.99 12.34 11.98 12 13 C5.88909517 13.09945415 0.02596573 13.0712828 -6 12 C-5.01 11.34 -4.02 10.68 -3 10 C-2.67 9.01 -2.34 8.02 -2 7 C-1.34 6.67 -0.68 6.34 0 6 C0 4.02 0 2.04 0 0 Z M6 7 C5.34 7.66 4.68 8.32 4 9 C4.99 9 5.98 9 7 9 C6.67 8.34 6.34 7.68 6 7 Z " fill="#9BC040" transform="translate(125,30)"/>
<path d="M0 0 C3.43925601 0.56090871 4.76659773 1.51026824 6.875 4.25 C9.63509614 7.66491487 12.55128082 10.29029207 16 13 C15.67 13.99 15.34 14.98 15 16 C14.67 15.34 14.34 14.68 14 14 C12.845 13.835 11.69 13.67 10.5 13.5 C9.345 13.335 8.19 13.17 7 13 C6.67 12.34 6.34 11.68 6 11 C5.34 11.66 4.68 12.32 4 13 C1.875 12.625 1.875 12.625 0 12 C-0.76173392 7.6835078 -1.16063604 4.25566547 0 0 Z M2 2 C3 4 3 4 3 4 Z M3 4 C4 6 4 6 4 6 Z M4 6 C4.33 6.66 4.66 7.32 5 8 C5.33 7.34 5.66 6.68 6 6 C5.34 6 4.68 6 4 6 Z " fill="#9FC241" transform="translate(143,48)"/>
<path d="M0 0 C0.33 1.32 0.66 2.64 1 4 C-0.65 3.67 -2.3 3.34 -4 3 C-2.68 5.64 -1.36 8.28 0 11 C-1.0625 13 -1.0625 13 -3 15 C-6.6875 15.25 -6.6875 15.25 -10 15 C-10.66 13.68 -11.32 12.36 -12 11 C-10.68 11 -9.36 11 -8 11 C-8 11.66 -8 12.32 -8 13 C-7.01 12.67 -6.02 12.34 -5 12 C-5.79117904 10.00016466 -5.79117904 10.00016466 -7 8 C-7.99 7.67 -8.98 7.34 -10 7 C-10 5.02 -10 3.04 -10 1 C-9.34 1.33 -8.68 1.66 -8 2 C-7.67 1.67 -7.34 1.34 -7 1 C-4.53721199 -0.231394 -2.7204945 -0.07159196 0 0 Z " fill="#0C7B47" transform="translate(206,180)"/>
<path d="M0 0 C0.33 0.99 0.66 1.98 1 3 C0.67 3.66 0.34 4.32 0 5 C0.99 5 1.98 5 3 5 C3 5.66 3 6.32 3 7 C1.68 7 0.36 7 -1 7 C-1.66 9.97 -2.32 12.94 -3 16 C-1.02 15.34 0.96 14.68 3 14 C3 14.66 3 15.32 3 16 C0.8125 17.6875 0.8125 17.6875 -2 19 C-3.65 18.67 -5.3 18.34 -7 18 C-6.34 14.7 -5.68 11.4 -5 8 C-5.66 7.67 -6.32 7.34 -7 7 C-7 6.34 -7 5.68 -7 5 C-6.01 4.67 -5.02 4.34 -4 4 C-3.67 3.01 -3.34 2.02 -3 1 C-2.01 0.67 -1.02 0.34 0 0 Z " fill="#0B7D48" transform="translate(78,176)"/>
<path d="M0 0 C0.928125 0.0825 1.85625 0.165 2.8125 0.25 C2.8125 1.57 2.8125 2.89 2.8125 4.25 C1.4925 3.92 0.1725 3.59 -1.1875 3.25 C-0.878125 3.806875 -0.56875 4.36375 -0.25 4.9375 C0.90855966 7.45907102 1.59920479 9.47716229 1.8125 12.25 C0.8125 14.0625 0.8125 14.0625 -1.1875 15.25 C-4.875 15.4375 -4.875 15.4375 -8.1875 15.25 C-8.5175 13.93 -8.8475 12.61 -9.1875 11.25 C-8.1975 10.92 -7.2075 10.59 -6.1875 10.25 C-5.8575 10.91 -5.5275 11.57 -5.1875 12.25 C-4.1975 12.58 -3.2075 12.91 -2.1875 13.25 C-3.5075 10.28 -4.8275 7.31 -6.1875 4.25 C-4.36434338 1.00883268 -3.82500054 0.30000004 0 0 Z " fill="#0C7D48" transform="translate(253.1875,179.75)"/>
<path d="M0 0 C0.66 0 1.32 0 2 0 C2 16.5 2 33 2 50 C1.67 50 1.34 50 1 50 C0.67 33.5 0.34 17 0 0 Z " fill="#02414C" transform="translate(143,108)"/>
<path d="M0 0 C0.66 0.33 1.32 0.66 2 1 C2.625 3.5625 2.625 3.5625 3 6 C3.99 6 4.98 6 6 6 C6.66 6 7.32 6 8 6 C8 6.66 8 7.32 8 8 C9.65 8 11.3 8 13 8 C13 8.33 13 8.66 13 9 C10.69 9 8.38 9 6 9 C6 9.66 6 10.32 6 11 C4.02 11.99 4.02 11.99 2 13 C2 12.34 2 11.68 2 11 C1.01 10.67 0.02 10.34 -1 10 C-0.7215625 9.1028125 -0.7215625 9.1028125 -0.4375 8.1875 C0.22093687 5.83591238 0.22093687 5.83591238 -1 3 C-0.67 2.01 -0.34 1.02 0 0 Z " fill="#89B541" transform="translate(160,24)"/>
<path d="M0 0 C0.33 0 0.66 0 1 0 C1 16.83 1 33.66 1 51 C0.67 51 0.34 51 0 51 C0 34.17 0 17.34 0 0 Z " fill="#056E42" transform="translate(225,108)"/>
<path d="M0 0 C0.33 0 0.66 0 1 0 C1 16.17 1 32.34 1 49 C0.67 49 0.34 49 0 49 C0 32.83 0 16.66 0 0 Z " fill="#02414C" transform="translate(237,109)"/>
<path d="M0 0 C2.3125 0.375 2.3125 0.375 5 2 C6.64563978 5.7669723 8 9.86096067 8 14 C7.34 14 6.68 14 6 14 C5.67 12.35 5.34 10.7 5 9 C4.34 9 3.68 9 3 9 C2.34 7.68 1.68 6.36 1 5 C0.01 5.495 0.01 5.495 -1 6 C-1.625 4.125 -1.625 4.125 -2 2 C-1.34 1.34 -0.68 0.68 0 0 Z " fill="#95BA42" transform="translate(154,49)"/>
<path d="M0 0 C0.66 1.32 1.32 2.64 2 4 C1.34 4 0.68 4 0 4 C0 2.68 0 1.36 0 0 Z M-3 4 C-2.01 4 -1.02 4 0 4 C-0.33 5.65 -0.66 7.3 -1 9 C-0.34 9 0.32 9 1 9 C1.33 8.01 1.66 7.02 2 6 C3.29243536 10.1196377 4.26252625 13.66831683 4 18 C2 15 2 15 2 13 C1.360625 12.690625 0.72125 12.38125 0.0625 12.0625 C-2 11 -2 11 -3 10 C-3.04080783 8.00041636 -3.04254356 5.99954746 -3 4 Z " fill="#8EB743" transform="translate(166,54)"/>
<path d="M0 0 C0 2.97 0 5.94 0 9 C-0.66 9 -1.32 9 -2 9 C-2.33 7.68 -2.66 6.36 -3 5 C-3.33 5.66 -3.66 6.32 -4 7 C-4.66 7 -5.32 7 -6 7 C-6.33 7.66 -6.66 8.32 -7 9 C-8.32 8.67 -9.64 8.34 -11 8 C-9.93119777 6.65499045 -8.84437492 5.32428562 -7.75 4 C-7.14671875 3.2575 -6.5434375 2.515 -5.921875 1.75 C-4 0 -4 0 0 0 Z M-4 9 C-3.01 9.495 -3.01 9.495 -2 10 C-2.99 10.495 -2.99 10.495 -4 11 C-4 10.34 -4 9.68 -4 9 Z " fill="#91B640" transform="translate(142,48)"/>
<path d="M0 0 C1.32 0.33 2.64 0.66 4 1 C3.01 1 2.02 1 1 1 C1 14.2 1 27.4 1 41 C0.67 41 0.34 41 0 41 C0 27.47 0 13.94 0 0 Z " fill="#0B5F50" transform="translate(252,118)"/>
<path d="M0 0 C5.61 0 11.22 0 17 0 C17 0.33 17 0.66 17 1 C11.72 1 6.44 1 1 1 C1 3.31 1 5.62 1 8 C6.28 8 11.56 8 17 8 C17 8.33 17 8.66 17 9 C11.39 9 5.78 9 0 9 C0 6.03 0 3.06 0 0 Z " fill="#086B4E" transform="translate(157,117)"/>
<path d="M0 0 C0.33 0 0.66 0 1 0 C1 13.2 1 26.4 1 40 C0.67 40 0.34 40 0 40 C0 26.8 0 13.6 0 0 Z " fill="#05844A" transform="translate(240,119)"/>
<path d="M0 0 C5.61 0 11.22 0 17 0 C17 0.33 17 0.66 17 1 C11.72 1 6.44 1 1 1 C1 7.93 1 14.86 1 22 C0.67 22 0.34 22 0 22 C0 14.74 0 7.48 0 0 Z " fill="#07705E" transform="translate(157,136)"/>
<path d="M0 0 C0.99 0.33 1.98 0.66 3 1 C3.6875 3.0625 3.6875 3.0625 4 5 C5.65 5 7.3 5 9 5 C8.67 5.99 8.34 6.98 8 8 C7.67 7.67 7.34 7.34 7 7 C5.081875 7.061875 5.081875 7.061875 3.125 7.125 C-0.74095683 7.19428238 -0.74095683 7.19428238 -3 5.5 C-3.33 5.005 -3.66 4.51 -4 4 C-1.525 4.495 -1.525 4.495 1 5 C0.67 3.35 0.34 1.7 0 0 Z M4 1 C4.99 1.495 4.99 1.495 6 2 C5.01 2.495 5.01 2.495 4 3 C4 2.34 4 1.68 4 1 Z " fill="#89AE41" transform="translate(153,81)"/>
<path d="M0 0 C0.99 0.99 1.98 1.98 3 3 C2.34 4.32 1.68 5.64 1 7 C1 6.34 1 5.68 1 5 C-2.04134491 6.66924071 -2.04134491 6.66924071 -3 9 C-3.66 8.67 -4.32 8.34 -5 8 C-5 5.69 -5 3.38 -5 1 C-2.525 1.495 -2.525 1.495 0 2 C0 1.34 0 0.68 0 0 Z " fill="#92B840" transform="translate(103,53)"/>
<path d="M0 0 C2.31 0.33 4.62 0.66 7 1 C7.33 1.99 7.66 2.98 8 4 C6.68 5.32 5.36 6.64 4 8 C3.67 6.68 3.34 5.36 3 4 C0.69 4 -1.62 4 -4 4 C-3.67 3.01 -3.34 2.02 -3 1 C-2.01 1.33 -1.02 1.66 0 2 C0 1.34 0 0.68 0 0 Z " fill="#8CB440" transform="translate(130,43)"/>
<path d="M0 0 C1.98 0.99 3.96 1.98 6 3 C5.01 3.495 5.01 3.495 4 4 C4 4.66 4 5.32 4 6 C4.99 6 5.98 6 7 6 C6.67 6.66 6.34 7.32 6 8 C3.69 7.67 1.38 7.34 -1 7 C-1.04254356 5.00045254 -1.04080783 2.99958364 -1 1 C-0.67 0.67 -0.34 0.34 0 0 Z " fill="#8EB341" transform="translate(99,26)"/>
<path d="M0 0 C2.475 0.99 2.475 0.99 5 2 C5.33 4.31 5.66 6.62 6 9 C5.34 9 4.68 9 4 9 C3.67 8.01 3.34 7.02 3 6 C1.35 6 -0.3 6 -2 6 C-1.34 4.02 -0.68 2.04 0 0 Z " fill="#A5C942" transform="translate(126,77)"/>
<path d="M0 0 C1.32 0.66 2.64 1.32 4 2 C4 2.66 4 3.32 4 4 C1.36 4.66 -1.28 5.32 -4 6 C-4 5.01 -4 4.02 -4 3 C-4.66 2.67 -5.32 2.34 -6 2 C-4.02 2 -2.04 2 0 2 C0 1.34 0 0.68 0 0 Z " fill="#91B942" transform="translate(172,50)"/>
<path d="M0 0 C8.91 0 17.82 0 27 0 C27 0.33 27 0.66 27 1 C18.09 1 9.18 1 0 1 C0 0.67 0 0.34 0 0 Z " fill="#037C68" transform="translate(147,106)"/>
<path d="M0 0 C0.99 0 1.98 0 3 0 C2.67 2.31 2.34 4.62 2 7 C0.68 7 -0.64 7 -2 7 C-1.125 1.125 -1.125 1.125 0 0 Z " fill="#A5C942" transform="translate(157,29)"/>
<path d="M0 0 C7.26 0 14.52 0 22 0 C21.67 0.66 21.34 1.32 21 2 C14.07 2 7.14 2 0 2 C0 1.34 0 0.68 0 0 Z " fill="#047965" transform="translate(185,148)"/>
<path d="M0 0 C0.33 0 0.66 0 1 0 C1 7.59 1 15.18 1 23 C0.67 23 0.34 23 0 23 C0 15.41 0 7.82 0 0 Z " fill="#079F55" transform="translate(126,136)"/>
<path d="M0 0 C2.97 0.495 2.97 0.495 6 1 C6 1.66 6 2.32 6 3 C4.02 3.33 2.04 3.66 0 4 C0 4.66 0 5.32 0 6 C-0.66 5.67 -1.32 5.34 -2 5 C-1.34 3.35 -0.68 1.7 0 0 Z " fill="#8DB641" transform="translate(175,57)"/>
<path d="M0 0 C0 1.65 0 3.3 0 5 C-0.66 4.67 -1.32 4.34 -2 4 C-2 4.33 -2 4.66 -2 5 C-3.65 5 -5.3 5 -7 5 C-7 4.34 -7 3.68 -7 3 C-6.34 3 -5.68 3 -5 3 C-5 2.34 -5 1.68 -5 1 C-3 0 -3 0 0 0 Z " fill="#A8CC43" transform="translate(185,27)"/>
<path d="M0 0 C0.99 0 1.98 0 3 0 C3 0.66 3 1.32 3 2 C3.66 2.33 4.32 2.66 5 3 C4.34 3 3.68 3 3 3 C3 3.66 3 4.32 3 5 C0.69 5 -1.62 5 -4 5 C-3.01 4.34 -2.02 3.68 -1 3 C-0.67 2.01 -0.34 1.02 0 0 Z " fill="#A7CB42" transform="translate(123,37)"/>
<path d="M0 0 C6.93 0 13.86 0 21 0 C21 0.33 21 0.66 21 1 C14.07 1 7.14 1 0 1 C0 0.67 0 0.34 0 0 Z " fill="#037E66" transform="translate(75,148)"/>
<path d="M0 0 C2.0625 0.75 2.0625 0.75 5.0625 3.75 C2.0925 3.42 -0.8775 3.09 -3.9375 2.75 C-3.9375 2.09 -3.9375 1.43 -3.9375 0.75 C-1.9375 -0.25 -1.9375 -0.25 0 0 Z " fill="#A2C540" transform="translate(153.9375,39.25)"/>
<path d="M0 0 C0.66 0 1.32 0 2 0 C2.103125 0.639375 2.20625 1.27875 2.3125 1.9375 C2.539375 2.618125 2.76625 3.29875 3 4 C3.99 4.33 4.98 4.66 6 5 C2.86650268 6.04449911 2.01031744 5.93423645 -1 5 C-0.67 3.35 -0.34 1.7 0 0 Z " fill="#8FB241" transform="translate(152,32)"/>
<path d="M0 0 C1.98 0.99 1.98 0.99 4 2 C4 3.32 4 4.64 4 6 C2.68 6 1.36 6 0 6 C0 4.02 0 2.04 0 0 Z " fill="#A7CB43" transform="translate(125,30)"/>
<path d="M0 0 C1.32 0.33 2.64 0.66 4 1 C3.6875 2.9375 3.6875 2.9375 3 5 C2.01 5.33 1.02 5.66 0 6 C0 4.02 0 2.04 0 0 Z " fill="#A4C741" transform="translate(133,80)"/>
<path d="M0 0 C0.99 0 1.98 0 3 0 C3.33 1.65 3.66 3.3 4 5 C2.68 4.34 1.36 3.68 0 3 C0 2.01 0 1.02 0 0 Z M-2 4 C-1.34 4 -0.68 4 0 4 C-0.33 4.99 -0.66 5.98 -1 7 C-1.33 6.01 -1.66 5.02 -2 4 Z " fill="#A6C943" transform="translate(130,46)"/>
<path d="M0 0 C2.69082872 0.17635452 5.32851446 0.61835921 8 1 C7.67 1.99 7.34 2.98 7 4 C3.62537285 3.45276317 1.91765 2.9451 -1 1 C-0.67 0.67 -0.34 0.34 0 0 Z " fill="#7EA741" transform="translate(116,41)"/>
<path d="M0 0 C1.65 1.65 3.3 3.3 5 5 C2.03 4.505 2.03 4.505 -1 4 C-1.33 3.01 -1.66 2.02 -2 1 C-1.34 0.67 -0.68 0.34 0 0 Z " fill="#A3C641" transform="translate(163,66)"/>
<path d="M0 0 C-0.99 0.66 -1.98 1.32 -3 2 C-3 2.66 -3 3.32 -3 4 C-3.99 4.33 -4.98 4.66 -6 5 C-6 4.01 -6 3.02 -6 2 C-6.66 1.67 -7.32 1.34 -8 1 C-5.29120665 -0.35439668 -2.99066732 -0.06501451 0 0 Z " fill="#97BB40" transform="translate(158,44)"/>
<path d="M0 0 C1.98 0.66 3.96 1.32 6 2 C6.33 1.34 6.66 0.68 7 0 C7 0.99 7 1.98 7 3 C4.69 3.33 2.38 3.66 0 4 C0 2.68 0 1.36 0 0 Z " fill="#036355" transform="translate(240,186)"/>
<path d="M0 0 C3.96 0 7.92 0 12 0 C12 0.33 12 0.66 12 1 C8.04 1 4.08 1 0 1 C0 0.67 0 0.34 0 0 Z " fill="#066F59" transform="translate(253,106)"/>
<path d="M0 0 C2.97 0 5.94 0 9 0 C9 0.66 9 1.32 9 2 C6.03 2 3.06 2 0 2 C0 1.34 0 0.68 0 0 Z " fill="#0A6551" transform="translate(81,135)"/>
<path d="M0 0 C3.3 0 6.6 0 10 0 C10 0.33 10 0.66 10 1 C6.7 1 3.4 1 0 1 C0 0.67 0 0.34 0 0 Z " fill="#086658" transform="translate(162,196)"/>
<path d="M0 0 C0.33 0 0.66 0 1 0 C1.33 2.64 1.66 5.28 2 8 C0.4375 6.8125 0.4375 6.8125 -1 5 C-0.6875 2.3125 -0.6875 2.3125 0 0 Z " fill="#056D51" transform="translate(180,188)"/>
<path d="M0 0 C0.99 0 1.98 0 3 0 C3 1.32 3 2.64 3 4 C1.68 3.67 0.36 3.34 -1 3 C-0.67 2.01 -0.34 1.02 0 0 Z " fill="#067056" transform="translate(51,188)"/>
<path d="M0 0 C3.3 0 6.6 0 10 0 C10 0.33 10 0.66 10 1 C6.7 1 3.4 1 0 1 C0 0.67 0 0.34 0 0 Z " fill="#069254" transform="translate(102,160)"/>
<path d="M0 0 C3.3 0 6.6 0 10 0 C10 0.33 10 0.66 10 1 C6.7 1 3.4 1 0 1 C0 0.67 0 0.34 0 0 Z " fill="#0E644D" transform="translate(191,136)"/>
<path d="M0 0 C0.33 0 0.66 0 1 0 C1 3.3 1 6.6 1 10 C0.67 10 0.34 10 0 10 C0 6.7 0 3.4 0 0 Z " fill="#02414C" transform="translate(239,109)"/>
<path d="M0 0 C3.3 0 6.6 0 10 0 C10 0.33 10 0.66 10 1 C6.7 1 3.4 1 0 1 C0 0.67 0 0.34 0 0 Z " fill="#047564" transform="translate(99,106)"/>
<path d="M0 0 C2.97 0 5.94 0 9 0 C9 0.33 9 0.66 9 1 C6.03 1 3.06 1 0 1 C0 0.67 0 0.34 0 0 Z " fill="#096F51" transform="translate(169,172)"/>
<path d="M0 0 C2.97 0 5.94 0 9 0 C9 0.33 9 0.66 9 1 C6.03 1 3.06 1 0 1 C0 0.67 0 0.34 0 0 Z " fill="#069757" transform="translate(275,160)"/>
<path d="M0 0 C2.97 0 5.94 0 9 0 C9 0.33 9 0.66 9 1 C6.03 1 3.06 1 0 1 C0 0.67 0 0.34 0 0 Z " fill="#079A57" transform="translate(242,160)"/>
<path d="M0 0 C2.97 0 5.94 0 9 0 C9 0.33 9 0.66 9 1 C6.03 1 3.06 1 0 1 C0 0.67 0 0.34 0 0 Z " fill="#079F55" transform="translate(213,160)"/>
<path d="M0 0 C2.97 0 5.94 0 9 0 C9 0.33 9 0.66 9 1 C6.03 1 3.06 1 0 1 C0 0.67 0 0.34 0 0 Z " fill="#079F55" transform="translate(170,160)"/>
<path d="M0 0 C2.97 0 5.94 0 9 0 C9 0.33 9 0.66 9 1 C6.03 1 3.06 1 0 1 C0 0.67 0 0.34 0 0 Z " fill="#069B54" transform="translate(147,160)"/>
<path d="M0 0 C2.97 0 5.94 0 9 0 C9 0.33 9 0.66 9 1 C6.03 1 3.06 1 0 1 C0 0.67 0 0.34 0 0 Z " fill="#069757" transform="translate(116,160)"/>
<path d="M0 0 C2.97 0 5.94 0 9 0 C9 0.33 9 0.66 9 1 C6.03 1 3.06 1 0 1 C0 0.67 0 0.34 0 0 Z " fill="#06A258" transform="translate(60,160)"/>
<path d="M0 0 C2.97 0 5.94 0 9 0 C9 0.33 9 0.66 9 1 C6.03 1 3.06 1 0 1 C0 0.67 0 0.34 0 0 Z " fill="#069B54" transform="translate(50,160)"/>
<path d="M0 0 C2.97 0 5.94 0 9 0 C9 0.33 9 0.66 9 1 C6.03 1 3.06 1 0 1 C0 0.67 0 0.34 0 0 Z " fill="#069757" transform="translate(0,160)"/>
<path d="M0 0 C0.33 0 0.66 0 1 0 C1 2.97 1 5.94 1 9 C0.67 9 0.34 9 0 9 C0 6.03 0 3.06 0 0 Z " fill="#0A5C50" transform="translate(277,118)"/>
<path d="M0 0 C2.97 0 5.94 0 9 0 C9 0.33 9 0.66 9 1 C6.03 1 3.06 1 0 1 C0 0.67 0 0.34 0 0 Z " fill="#047F6A" transform="translate(132,106)"/>
<path d="M0 0 C2.64 0 5.28 0 8 0 C8 0.33 8 0.66 8 1 C5.36 1 2.72 1 0 1 C0 0.67 0 0.34 0 0 Z " fill="#0B6354" transform="translate(45,196)"/>
<path d="M0 0 C0.33 0.66 0.66 1.32 1 2 C2.32 1.67 3.64 1.34 5 1 C5 1.66 5 2.32 5 3 C3.35 3 1.7 3 0 3 C0 2.01 0 1.02 0 0 Z " fill="#057458" transform="translate(101,186)"/>
<path d="M0 0 C2.64 0 5.28 0 8 0 C8 0.33 8 0.66 8 1 C5.36 1 2.72 1 0 1 C0 0.67 0 0.34 0 0 Z " fill="#06A258" transform="translate(227,160)"/>
<path d="M0 0 C0.33 0 0.66 0 1 0 C1 2.64 1 5.28 1 8 C0.67 8 0.34 8 0 8 C0 5.36 0 2.72 0 0 Z " fill="#03444C" transform="translate(175,127)"/>
<path d="M0 0 C0.33 0 0.66 0 1 0 C1 2.64 1 5.28 1 8 C0.67 8 0.34 8 0 8 C0 5.36 0 2.72 0 0 Z " fill="#036F62" transform="translate(175,108)"/>
<path d="M0 0 C2.64 0 5.28 0 8 0 C8 0.33 8 0.66 8 1 C5.36 1 2.72 1 0 1 C0 0.67 0 0.34 0 0 Z " fill="#0B6354" transform="translate(227,106)"/>
<path d="M0 0 C2.64 0 5.28 0 8 0 C8 0.33 8 0.66 8 1 C5.36 1 2.72 1 0 1 C0 0.67 0 0.34 0 0 Z " fill="#AABA52" transform="translate(152,89)"/>
<path d="M0 0 C0.33 0 0.66 0 1 0 C1 2.64 1 5.28 1 8 C0.67 8 0.34 8 0 8 C0 5.36 0 2.72 0 0 Z " fill="#9DB241" transform="translate(187,26)"/>
<path d="M0 0 C1.32 0 2.64 0 4 0 C4 0.66 4 1.32 4 2 C2.68 2.33 1.36 2.66 0 3 C0 2.01 0 1.02 0 0 Z " fill="#086251" transform="translate(77,187)"/>
<path d="M0 0 C0.99 0.33 1.98 0.66 3 1 C2.01 2.485 2.01 2.485 1 4 C0.67 2.68 0.34 1.36 0 0 Z " fill="#05734D" transform="translate(35,178)"/>
<path d="M0 0 C1.98 0 3.96 0 6 0 C6 0.33 6 0.66 6 1 C4.02 1.33 2.04 1.66 0 2 C0 1.34 0 0.68 0 0 Z " fill="#076C4A" transform="translate(104,175)"/>
<path d="M0 0 C2.31 0 4.62 0 7 0 C7 0.33 7 0.66 7 1 C4.69 1 2.38 1 0 1 C0 0.67 0 0.34 0 0 Z " fill="#06735B" transform="translate(37,172)"/>
<path d="M0 0 C2.31 0 4.62 0 7 0 C7 0.33 7 0.66 7 1 C4.69 1 2.38 1 0 1 C0 0.67 0 0.34 0 0 Z " fill="#07A756" transform="translate(246,107)"/>
<path d="M0 0 C2.31 0 4.62 0 7 0 C7 0.33 7 0.66 7 1 C4.69 1 2.38 1 0 1 C0 0.67 0 0.34 0 0 Z " fill="#9EBE57" transform="translate(125,89)"/>
<path d="M0 0 C0.33 0 0.66 0 1 0 C1 2.31 1 4.62 1 7 C0.67 7 0.34 7 0 7 C0 4.69 0 2.38 0 0 Z " fill="#7C9853" transform="translate(188,54)"/>
<path d="M0 0 C0.33 0 0.66 0 1 0 C1 2.31 1 4.62 1 7 C0.67 7 0.34 7 0 7 C0 4.69 0 2.38 0 0 Z " fill="#72C75C" transform="translate(96,54)"/>
<path d="M0 0 C0.33 0 0.66 0 1 0 C1 2.31 1 4.62 1 7 C0.67 7 0.34 7 0 7 C0 4.69 0 2.38 0 0 Z " fill="#77AF58" transform="translate(96,27)"/>
<path d="M0 0 C0.33 0 0.66 0 1 0 C1 1.98 1 3.96 1 6 C0.67 6 0.34 6 0 6 C0 4.02 0 2.04 0 0 Z " fill="#0A5A50" transform="translate(232,189)"/>
<path d="M0 0 C0.66 0 1.32 0 2 0 C2 1.65 2 3.3 2 5 C0 1.125 0 1.125 0 0 Z " fill="#08674B" transform="translate(62,184)"/>
<path d="M0 0 C1.32 0 2.64 0 4 0 C4 0.66 4 1.32 4 2 C2.68 2 1.36 2 0 2 C0 1.34 0 0.68 0 0 Z " fill="#158D4B" transform="translate(43,180)"/>
<path d="M0 0 C1.98 0 3.96 0 6 0 C6 0.33 6 0.66 6 1 C4.02 1 2.04 1 0 1 C0 0.67 0 0.34 0 0 Z " fill="#0C8954" transform="translate(250,178)"/>
<path d="M0 0 C1.98 0 3.96 0 6 0 C6 0.33 6 0.66 6 1 C4.02 1 2.04 1 0 1 C0 0.67 0 0.34 0 0 Z " fill="#0D7D53" transform="translate(213,178)"/>
<path d="M0 0 C1.98 0 3.96 0 6 0 C6 0.33 6 0.66 6 1 C4.02 1 2.04 1 0 1 C0 0.67 0 0.34 0 0 Z " fill="#0E6547" transform="translate(200,178)"/>
<path d="M0 0 C1.98 0 3.96 0 6 0 C6 0.33 6 0.66 6 1 C4.02 1 2.04 1 0 1 C0 0.67 0 0.34 0 0 Z " fill="#0E6547" transform="translate(188,178)"/>
<path d="M0 0 C1.98 0 3.96 0 6 0 C6 0.33 6 0.66 6 1 C4.02 1 2.04 1 0 1 C0 0.67 0 0.34 0 0 Z " fill="#147346" transform="translate(129,178)"/>
<path d="M0 0 C1.98 0 3.96 0 6 0 C6 0.33 6 0.66 6 1 C4.02 1 2.04 1 0 1 C0 0.67 0 0.34 0 0 Z " fill="#0E6F4C" transform="translate(109,178)"/>
<path d="M0 0 C1.98 0 3.96 0 6 0 C6 0.33 6 0.66 6 1 C4.02 1 2.04 1 0 1 C0 0.67 0 0.34 0 0 Z " fill="#0C7044" transform="translate(87,178)"/>
<path d="M0 0 C1.98 0 3.96 0 6 0 C6 0.33 6 0.66 6 1 C4.02 1 2.04 1 0 1 C0 0.67 0 0.34 0 0 Z " fill="#0C6A4B" transform="translate(61,178)"/>
<path d="M0 0 C1.98 0 3.96 0 6 0 C6 0.33 6 0.66 6 1 C4.02 1 2.04 1 0 1 C0 0.67 0 0.34 0 0 Z " fill="#066057" transform="translate(54,170)"/>
<path d="M0 0 C0.33 0 0.66 0 1 0 C1 1.98 1 3.96 1 6 C0.67 6 0.34 6 0 6 C0 4.02 0 2.04 0 0 Z " fill="#04624E" transform="translate(13,140)"/>
<path d="M0 0 C0.33 0 0.66 0 1 0 C1 1.98 1 3.96 1 6 C0.67 6 0.34 6 0 6 C0 4.02 0 2.04 0 0 Z " fill="#056951" transform="translate(44,138)"/>
<path d="M0 0 C0.33 0 0.66 0 1 0 C1 1.98 1 3.96 1 6 C0.67 6 0.34 6 0 6 C0 4.02 0 2.04 0 0 Z " fill="#06654F" transform="translate(170,9)"/>
<path d="M0 0 C1.65 0 3.3 0 5 0 C5 0.33 5 0.66 5 1 C3.35 1 1.7 1 0 1 C0 0.67 0 0.34 0 0 Z " fill="#077447" transform="translate(29,197)"/>
<path d="M0 0 C0.33 0 0.66 0 1 0 C1 1.65 1 3.3 1 5 C0.67 5 0.34 5 0 5 C0 3.35 0 1.7 0 0 Z " fill="#07604C" transform="translate(69,190)"/>
<path d="M0 0 C0.33 0 0.66 0 1 0 C1 1.65 1 3.3 1 5 C0.67 5 0.34 5 0 5 C0 3.35 0 1.7 0 0 Z " fill="#04684A" transform="translate(256,188)"/>
<path d="M0 0 C0.33 1.32 0.66 2.64 1 4 C0.34 3.34 -0.32 2.68 -1 2 C-0.67 1.34 -0.34 0.68 0 0 Z " fill="#076C49" transform="translate(221,189)"/>
<path d="M0 0 C0.33 1.32 0.66 2.64 1 4 C0.34 3.67 -0.32 3.34 -1 3 C-0.67 2.01 -0.34 1.02 0 0 Z " fill="#0F6248" transform="translate(147,190)"/>
<path d="M0 0 C0.33 0 0.66 0 1 0 C1 1.65 1 3.3 1 5 C0.67 5 0.34 5 0 5 C0 3.35 0 1.7 0 0 Z " fill="#02594F" transform="translate(61,185)"/>
<path d="M0 0 C0.33 0 0.66 0 1 0 C1 1.65 1 3.3 1 5 C0.67 5 0.34 5 0 5 C0 3.35 0 1.7 0 0 Z " fill="#024D52" transform="translate(122,185)"/>
<path d="M0 0 C0.33 0.66 0.66 1.32 1 2 C0.34 2.66 -0.32 3.32 -1 4 C-0.67 2.68 -0.34 1.36 0 0 Z " fill="#065954" transform="translate(214,183)"/>
<path d="M0 0 C0.99 0 1.98 0 3 0 C2.67 0.99 2.34 1.98 2 3 C2 2.34 2 1.68 2 1 C1.34 0.67 0.68 0.34 0 0 Z " fill="#077A53" transform="translate(138,183)"/>
<path d="M0 0 C0.33 0.99 0.66 1.98 1 3 C0.01 2.67 -0.98 2.34 -2 2 C-1.34 2 -0.68 2 0 2 C0 1.34 0 0.68 0 0 Z " fill="#0F6D47" transform="translate(73,177)"/>
<path d="M0 0 C1.65 0 3.3 0 5 0 C5 0.33 5 0.66 5 1 C3.35 1 1.7 1 0 1 C0 0.67 0 0.34 0 0 Z " fill="#04474D" transform="translate(144,171)"/>
<path d="M0 0 C0.33 0 0.66 0 1 0 C1 1.65 1 3.3 1 5 C0.67 5 0.34 5 0 5 C0 3.35 0 1.7 0 0 Z " fill="#0A5950" transform="translate(47,154)"/>
<path d="M0 0 C0.33 0 0.66 0 1 0 C1 1.65 1 3.3 1 5 C0.67 5 0.34 5 0 5 C0 3.35 0 1.7 0 0 Z " fill="#067153" transform="translate(46,149)"/>
<path d="M0 0 C0.33 0 0.66 0 1 0 C1 1.65 1 3.3 1 5 C0.67 5 0.34 5 0 5 C0 3.35 0 1.7 0 0 Z " fill="#067C57" transform="translate(58,146)"/>
<path d="M0 0 C0.33 0 0.66 0 1 0 C1 1.65 1 3.3 1 5 C0.67 5 0.34 5 0 5 C0 3.35 0 1.7 0 0 Z " fill="#055D51" transform="translate(57,141)"/>
<path d="M0 0 C0.33 0 0.66 0 1 0 C1 1.65 1 3.3 1 5 C0.67 5 0.34 5 0 5 C0 3.35 0 1.7 0 0 Z " fill="#056855" transform="translate(55,132)"/>
<path d="M0 0 C0.33 0 0.66 0 1 0 C1 1.65 1 3.3 1 5 C0.67 5 0.34 5 0 5 C0 3.35 0 1.7 0 0 Z " fill="#05745B" transform="translate(2,134)"/>
<path d="M0 0 C0.33 0 0.66 0 1 0 C1 1.65 1 3.3 1 5 C0.67 5 0.34 5 0 5 C0 3.35 0 1.7 0 0 Z " fill="#055D51" transform="translate(3,129)"/>
<path d="M0 0 C0.33 0 0.66 0 1 0 C1 1.65 1 3.3 1 5 C0.67 5 0.34 5 0 5 C0 3.35 0 1.7 0 0 Z " fill="#076352" transform="translate(54,127)"/>
<path d="M0 0 C0.33 0 0.66 0 1 0 C1 1.65 1 3.3 1 5 C0.67 5 0.34 5 0 5 C0 3.35 0 1.7 0 0 Z " fill="#06665A" transform="translate(6,115)"/>
<path d="M0 0 C0.33 0 0.66 0 1 0 C1 1.65 1 3.3 1 5 C0.67 5 0.34 5 0 5 C0 3.35 0 1.7 0 0 Z " fill="#055D51" transform="translate(7,110)"/>
<path d="M0 0 C1.65 0 3.3 0 5 0 C5 0.33 5 0.66 5 1 C3.35 1 1.7 1 0 1 C0 0.67 0 0.34 0 0 Z " fill="#98BF58" transform="translate(108,15)"/>
<path d="M0 0 C0.33 0 0.66 0 1 0 C1 1.65 1 3.3 1 5 C0.67 5 0.34 5 0 5 C0 3.35 0 1.7 0 0 Z " fill="#06665A" transform="translate(113,9)"/>
<path d="M0 0 C0 3 0 3 0 3 Z " fill="#067157" transform="translate(93,192)"/>
<path d="M0 0 C1 4 1 4 1 4 Z " fill="#037952" transform="translate(228,190)"/>
<path d="M0 0 C0.33 0.66 0.66 1.32 1 2 C0.01 1.67 -0.98 1.34 -2 1 C-1.34 0.67 -0.68 0.34 0 0 Z " fill="#055854" transform="translate(197,187)"/>
<path d="M0 0 C0.99 0.33 1.98 0.66 3 1 C2.01 1 1.02 1 0 1 C0 0.67 0 0.34 0 0 Z " fill="#086A51" transform="translate(112,185)"/>
<path d="M0 0 C1 4 1 4 1 4 Z " fill="#05544A" transform="translate(102,182)"/>
<path d="M0 0 C1 4 1 4 1 4 Z " fill="#187E3C" transform="translate(95,181)"/>
<path d="M0 0 C0.66 0.66 1.32 1.32 2 2 C1.01 2.495 1.01 2.495 0 3 C0 2.01 0 1.02 0 0 Z " fill="#057D4F" transform="translate(174,179)"/>
<path d="M0 0 C1 4 1 4 1 4 Z " fill="#05675C" transform="translate(103,178)"/>
<path d="M0 0 C1 4 1 4 1 4 Z " fill="#098353" transform="translate(183,177)"/>
<path d="M0 0 C4 1 4 1 4 1 Z " fill="#05624F" transform="translate(57,177)"/>
<path d="M0 0 C1 4 1 4 1 4 Z " fill="#086A51" transform="translate(273,155)"/>
<path d="M0 0 C0.99 0.495 0.99 0.495 2 1 C1.34 1.66 0.68 2.32 0 3 C0 2.01 0 1.02 0 0 Z " fill="#047344" transform="translate(59,152)"/>
<path d="M0 0 C1 4 1 4 1 4 Z " fill="#035C51" transform="translate(272,151)"/>
<path d="M0 0 C1 4 1 4 1 4 Z " fill="#04684E" transform="translate(12,146)"/>
<path d="M0 0 C1 4 1 4 1 4 Z " fill="#0F7951" transform="translate(0,144)"/>
<path d="M0 0 C1 4 1 4 1 4 Z " fill="#075C4C" transform="translate(56,137)"/>
<path d="M0 0 C1 4 1 4 1 4 Z " fill="#066E4D" transform="translate(4,125)"/>
<path d="M0 0 C1 4 1 4 1 4 Z " fill="#105748" transform="translate(53,123)"/>
<path d="M0 0 C1 4 1 4 1 4 Z " fill="#066E4D" transform="translate(52,118)"/>
<path d="M0 0 C4 1 4 1 4 1 Z " fill="#246E3D" transform="translate(256,117)"/>
<path d="M0 0 C1 4 1 4 1 4 Z " fill="#075C4C" transform="translate(50,108)"/>
<path d="M0 0 C4 1 4 1 4 1 Z " fill="#047553" transform="translate(242,106)"/>
<path d="M0 0 C1 4 1 4 1 4 Z " fill="#ADBB56" transform="translate(113,74)"/>
<path d="M0 0 C4 1 4 1 4 1 Z " fill="#8AB94B" transform="translate(171,15)"/>
<path d="M0 0 C3 1 3 1 3 1 Z " fill="#02414C" transform="translate(132,197)"/>
<path d="M0 0 C3 1 3 1 3 1 Z " fill="#08554F" transform="translate(250,196)"/>
<path d="M0 0 C3 1 3 1 3 1 Z " fill="#096A59" transform="translate(223,196)"/>
<path d="M0 0 C3 1 3 1 3 1 Z " fill="#066057" transform="translate(213,196)"/>
<path d="M0 0 C3 1 3 1 3 1 Z " fill="#096A59" transform="translate(200,196)"/>
<path d="M0 0 C3 1 3 1 3 1 Z " fill="#066057" transform="translate(195,196)"/>
<path d="M0 0 C3 1 3 1 3 1 Z " fill="#096A59" transform="translate(135,196)"/>
<path d="M0 0 C3 1 3 1 3 1 Z " fill="#08554F" transform="translate(128,196)"/>
<path d="M0 0 C3 1 3 1 3 1 Z " fill="#08554F" transform="translate(109,196)"/>
<path d="M0 0 C3 1 3 1 3 1 Z " fill="#096A59" transform="translate(86,196)"/>
<path d="M0 0 C3 1 3 1 3 1 Z " fill="#08554F" transform="translate(74,196)"/>
<path d="M0 0 C3 1 3 1 3 1 Z " fill="#066057" transform="translate(61,196)"/>
<path d="" fill="#036A60" transform="translate(0,0)"/>
<path d="M0 0 C0.66 0.66 1.32 1.32 2 2 C1.34 2 0.68 2 0 2 C0 1.34 0 0.68 0 0 Z " fill="#126442" transform="translate(199,190)"/>
<path d="M0 0 C0.66 0.66 1.32 1.32 2 2 C1.34 2 0.68 2 0 2 C0 1.34 0 0.68 0 0 Z " fill="#046049" transform="translate(162,190)"/>
<path d="M0 0 C0.33 0.66 0.66 1.32 1 2 C0.34 1.67 -0.32 1.34 -1 1 C-0.67 0.67 -0.34 0.34 0 0 Z " fill="#136441" transform="translate(108,190)"/>
<path d="" fill="#08554F" transform="translate(0,0)"/>
<path d="M0 0 C0.66 0.66 1.32 1.32 2 2 C1.34 2 0.68 2 0 2 C0 1.34 0 0.68 0 0 Z " fill="#106941" transform="translate(133,189)"/>
<path d="" fill="#058C63" transform="translate(0,0)"/>
<path d="M0 0 C3 1 3 1 3 1 Z " fill="#035048" transform="translate(28,190)"/>
<path d="" fill="#046049" transform="translate(0,0)"/>
<path d="" fill="#126442" transform="translate(0,0)"/>
<path d="" fill="#03634F" transform="translate(0,0)"/>
<path d="" fill="#08554F" transform="translate(0,0)"/>
<path d="M0 0 C3 1 3 1 3 1 Z " fill="#066057" transform="translate(149,188)"/>
<path d="" fill="#156F44" transform="translate(0,0)"/>
<path d="" fill="#076D51" transform="translate(0,0)"/>
<path d="" fill="#307D39" transform="translate(0,0)"/>
<path d="" fill="#1E9D58" transform="translate(0,0)"/>
<path d="M0 0 C3 1 3 1 3 1 Z " fill="#075547" transform="translate(254,185)"/>
<path d="M0 0 C3 1 3 1 3 1 Z " fill="#16814A" transform="translate(204,185)"/>
<path d="" fill="#065B4A" transform="translate(0,0)"/>
<path d="" fill="#02414C" transform="translate(0,0)"/>
<path d="" fill="#066057" transform="translate(0,0)"/>
<path d="" fill="#067461" transform="translate(0,0)"/>
<path d="" fill="#047759" transform="translate(0,0)"/>
<path d="" fill="#047759" transform="translate(0,0)"/>
<path d="M0 0 C0.33 0.66 0.66 1.32 1 2 C0.34 1.67 -0.32 1.34 -1 1 C-0.67 0.67 -0.34 0.34 0 0 Z " fill="#08554F" transform="translate(246,181)"/>
<path d="" fill="#076D51" transform="translate(0,0)"/>
<path d="" fill="#058552" transform="translate(0,0)"/>
<path d="" fill="#058C63" transform="translate(0,0)"/>
<path d="" fill="#054B4D" transform="translate(0,0)"/>
<path d="" fill="#046049" transform="translate(0,0)"/>
<path d="" fill="#025556" transform="translate(0,0)"/>
<path d="M0 0 C3 1 3 1 3 1 Z " fill="#04754F" transform="translate(226,178)"/>
<path d="" fill="#057453" transform="translate(0,0)"/>
<path d="" fill="#157451" transform="translate(0,0)"/>
<path d="" fill="#066057" transform="translate(0,0)"/>
<path d="" fill="#054B4D" transform="translate(0,0)"/>
<path d="M0 0 C3 1 3 1 3 1 Z " fill="#075547" transform="translate(232,177)"/>
<path d="M0 0 C0.99 0.495 0.99 0.495 2 1 C1.01 1.495 1.01 1.495 0 2 C0 1.34 0 0.68 0 0 Z " fill="#086A4B" transform="translate(55,176)"/>
<path d="" fill="#054B4D" transform="translate(0,0)"/>
<path d="" fill="#025556" transform="translate(0,0)"/>
<path d="M0 0 C3 1 3 1 3 1 Z " fill="#035048" transform="translate(141,172)"/>
<path d="M0 0 C3 1 3 1 3 1 Z " fill="#02414C" transform="translate(150,169)"/>
<path d="" fill="#066057" transform="translate(0,0)"/>
<path d="" fill="#076D51" transform="translate(0,0)"/>
<path d="" fill="#04754F" transform="translate(0,0)"/>
<path d="" fill="#025556" transform="translate(0,0)"/>
<path d="" fill="#076D51" transform="translate(0,0)"/>
<path d="M0 0 C0.99 0.495 0.99 0.495 2 1 C1.01 1.495 1.01 1.495 0 2 C0 1.34 0 0.68 0 0 Z " fill="#038C55" transform="translate(195,127)"/>
<path d="" fill="#058756" transform="translate(0,0)"/>
<path d="M0 0 C3 1 3 1 3 1 Z " fill="#08554F" transform="translate(260,118)"/>
<path d="" fill="#025556" transform="translate(0,0)"/>
<path d="" fill="#058756" transform="translate(0,0)"/>
<path d="M0 0 C3 1 3 1 3 1 Z " fill="#054B4D" transform="translate(265,107)"/>
<path d="M0 0 C3 1 3 1 3 1 Z " fill="#9DB842" transform="translate(170,43)"/>
<path d="M0 0 C0.66 0.66 1.32 1.32 2 2 C1.34 2 0.68 2 0 2 C0 1.34 0 0.68 0 0 Z " fill="#3B694F" transform="translate(178,15)"/>
<path d="M0 0 C0.66 0.66 1.32 1.32 2 2 C1.34 2 0.68 2 0 2 C0 1.34 0 0.68 0 0 Z " fill="#025556" transform="translate(138,3)"/>
<path d="M0 0 C2 1 2 1 2 1 Z " fill="#02414C" transform="translate(145,199)"/>
<path d="" fill="#02414C" transform="translate(0,0)"/>
<path d="M0 0 C2 1 2 1 2 1 Z " fill="#07A756" transform="translate(147,198)"/>
<path d="M0 0 C2 1 2 1 2 1 Z " fill="#02414C" transform="translate(248,197)"/>
<path d="M0 0 C2 1 2 1 2 1 Z " fill="#02414C" transform="translate(211,197)"/>
<path d="M0 0 C2 1 2 1 2 1 Z " fill="#02414C" transform="translate(198,197)"/>
<path d="M0 0 C2 1 2 1 2 1 Z " fill="#02414C" transform="translate(106,197)"/>
<path d="M0 0 C2 1 2 1 2 1 Z " fill="#02414C" transform="translate(84,197)"/>
<path d="M0 0 C2 1 2 1 2 1 Z " fill="#02414C" transform="translate(59,197)"/>
<path d="M0 0 C2 1 2 1 2 1 Z " fill="#0C6051" transform="translate(245,196)"/>
<path d="M0 0 C2 1 2 1 2 1 Z " fill="#0C6051" transform="translate(237,196)"/>
<path d="M0 0 C2 1 2 1 2 1 Z " fill="#07504E" transform="translate(234,196)"/>
<path d="M0 0 C2 1 2 1 2 1 Z " fill="#07504E" transform="translate(208,196)"/>
<path d="M0 0 C2 1 2 1 2 1 Z " fill="#04773E" transform="translate(182,196)"/>
<path d="M0 0 C2 1 2 1 2 1 Z " fill="#0C6051" transform="translate(104,196)"/>
<path d="M0 0 C2 1 2 1 2 1 Z " fill="#086F5D" transform="translate(98,196)"/>
<path d="M0 0 C2 1 2 1 2 1 Z " fill="#07504E" transform="translate(82,196)"/>
<path d="M0 0 C2 1 2 1 2 1 Z " fill="#086F5D" transform="translate(57,196)"/>
<path d="M0 0 C2 1 2 1 2 1 Z " fill="#07504E" transform="translate(189,195)"/>
<path d="M0 0 C2 1 2 1 2 1 Z " fill="#066F48" transform="translate(138,195)"/>
<path d="M0 0 C2 1 2 1 2 1 Z " fill="#07504E" transform="translate(64,195)"/>
<path d="" fill="#02414C" transform="translate(0,0)"/>
<path d="" fill="#07504E" transform="translate(0,0)"/>
<path d="" fill="#047451" transform="translate(0,0)"/>
<path d="" fill="#195F42" transform="translate(0,0)"/>
<path d="" fill="#027F54" transform="translate(0,0)"/>
<path d="" fill="#03605B" transform="translate(0,0)"/>
<path d="" fill="#02414C" transform="translate(0,0)"/>
<path d="" fill="#1B6D39" transform="translate(0,0)"/>
<path d="" fill="#1C763B" transform="translate(0,0)"/>
<path d="" fill="#0C6051" transform="translate(0,0)"/>
<path d="" fill="#07504E" transform="translate(0,0)"/>
<path d="M0 0 C2 1 2 1 2 1 Z " fill="#086849" transform="translate(187,190)"/>
<path d="M0 0 C2 1 2 1 2 1 Z " fill="#03934A" transform="translate(189,189)"/>
<path d="" fill="#047451" transform="translate(0,0)"/>
<path d="M0 0 C2 1 2 1 2 1 Z " fill="#035847" transform="translate(88,189)"/>
<path d="M0 0 C2 1 2 1 2 1 Z " fill="#068B4C" transform="translate(191,188)"/>
<path d="M0 0 C2 1 2 1 2 1 Z " fill="#086849" transform="translate(90,188)"/>
<path d="" fill="#059360" transform="translate(0,0)"/>
<path d="" fill="#047451" transform="translate(0,0)"/>
<path d="" fill="#086849" transform="translate(0,0)"/>
<path d="" fill="#086849" transform="translate(0,0)"/>
<path d="" fill="#066F48" transform="translate(0,0)"/>
<path d="M0 0 C2 1 2 1 2 1 Z " fill="#007F3F" transform="translate(129,187)"/>
<path d="" fill="#035847" transform="translate(0,0)"/>
<path d="" fill="#047756" transform="translate(0,0)"/>
<path d="" fill="#086F5D" transform="translate(0,0)"/>
<path d="" fill="#0C6051" transform="translate(0,0)"/>
<path d="" fill="#047756" transform="translate(0,0)"/>
<path d="" fill="#02414C" transform="translate(0,0)"/>
<path d="M0 0 C2 1 2 1 2 1 Z " fill="#02414C" transform="translate(178,185)"/>
<path d="" fill="#1B9247" transform="translate(0,0)"/>
<path d="" fill="#047451" transform="translate(0,0)"/>
<path d="" fill="#0C6051" transform="translate(0,0)"/>
<path d="" fill="#03605B" transform="translate(0,0)"/>
<path d="" fill="#07504E" transform="translate(0,0)"/>
<path d="M0 0 C2 1 2 1 2 1 Z " fill="#02414C" transform="translate(222,180)"/>
<path d="" fill="#035847" transform="translate(0,0)"/>
<path d="M0 0 C2 1 2 1 2 1 Z " fill="#04773E" transform="translate(242,179)"/>
<path d="M0 0 C2 1 2 1 2 1 Z " fill="#02414C" transform="translate(211,179)"/>
<path d="" fill="#07673C" transform="translate(0,0)"/>
<path d="M0 0 C2 1 2 1 2 1 Z " fill="#02414C" transform="translate(127,179)"/>
<path d="" fill="#07504E" transform="translate(0,0)"/>
<path d="M0 0 C2 1 2 1 2 1 Z " fill="#1A7E51" transform="translate(149,177)"/>
<path d="" fill="#035847" transform="translate(0,0)"/>
<path d="" fill="#07504E" transform="translate(0,0)"/>
<path d="M0 0 C2 1 2 1 2 1 Z " fill="#059360" transform="translate(238,175)"/>
<path d="M0 0 C2 1 2 1 2 1 Z " fill="#016045" transform="translate(75,175)"/>
<path d="M0 0 C2 1 2 1 2 1 Z " fill="#02414C" transform="translate(77,174)"/>
<path d="M0 0 C2 1 2 1 2 1 Z " fill="#07504E" transform="translate(32,174)"/>
<path d="M0 0 C2 1 2 1 2 1 Z " fill="#047451" transform="translate(167,173)"/>
<path d="M0 0 C2 1 2 1 2 1 Z " fill="#086F5D" transform="translate(34,173)"/>
<path d="" fill="#059360" transform="translate(0,0)"/>
<path d="M0 0 C2 1 2 1 2 1 Z " fill="#047451" transform="translate(103,169)"/>
<path d="" fill="#02414C" transform="translate(0,0)"/>
<path d="" fill="#059360" transform="translate(0,0)"/>
<path d="" fill="#07504E" transform="translate(0,0)"/>
<path d="" fill="#047451" transform="translate(0,0)"/>
<path d="" fill="#047451" transform="translate(0,0)"/>
<path d="" fill="#25A766" transform="translate(0,0)"/>
<path d="" fill="#086F5D" transform="translate(0,0)"/>
<path d="" fill="#0C6051" transform="translate(0,0)"/>
<path d="" fill="#07504E" transform="translate(0,0)"/>
<path d="" fill="#047451" transform="translate(0,0)"/>
<path d="" fill="#03605B" transform="translate(0,0)"/>
<path d="" fill="#047451" transform="translate(0,0)"/>
<path d="" fill="#059360" transform="translate(0,0)"/>
<path d="" fill="#047451" transform="translate(0,0)"/>
<path d="" fill="#07504E" transform="translate(0,0)"/>
<path d="" fill="#07504E" transform="translate(0,0)"/>
<path d="" fill="#03605B" transform="translate(0,0)"/>
<path d="" fill="#0C6051" transform="translate(0,0)"/>
<path d="" fill="#047451" transform="translate(0,0)"/>
<path d="" fill="#098353" transform="translate(0,0)"/>
<path d="" fill="#086F5D" transform="translate(0,0)"/>
<path d="" fill="#047451" transform="translate(0,0)"/>
<path d="" fill="#047451" transform="translate(0,0)"/>
<path d="" fill="#016045" transform="translate(0,0)"/>
<path d="" fill="#035847" transform="translate(0,0)"/>
<path d="" fill="#03605B" transform="translate(0,0)"/>
<path d="" fill="#016045" transform="translate(0,0)"/>
<path d="" fill="#047451" transform="translate(0,0)"/>
<path d="" fill="#07504E" transform="translate(0,0)"/>
<path d="" fill="#07504E" transform="translate(0,0)"/>
<path d="" fill="#07504E" transform="translate(0,0)"/>
<path d="" fill="#0C6051" transform="translate(0,0)"/>
<path d="" fill="#07504E" transform="translate(0,0)"/>
<path d="" fill="#07504E" transform="translate(0,0)"/>
<path d="" fill="#047451" transform="translate(0,0)"/>
<path d="" fill="#047451" transform="translate(0,0)"/>
<path d="" fill="#016045" transform="translate(0,0)"/>
<path d="" fill="#098353" transform="translate(0,0)"/>
<path d="" fill="#086F5D" transform="translate(0,0)"/>
<path d="" fill="#016045" transform="translate(0,0)"/>
<path d="" fill="#047451" transform="translate(0,0)"/>
<path d="" fill="#086F5D" transform="translate(0,0)"/>
<path d="" fill="#07504E" transform="translate(0,0)"/>
<path d="" fill="#03605B" transform="translate(0,0)"/>
<path d="" fill="#098353" transform="translate(0,0)"/>
<path d="" fill="#047451" transform="translate(0,0)"/>
<path d="" fill="#059360" transform="translate(0,0)"/>
<path d="" fill="#047451" transform="translate(0,0)"/>
<path d="" fill="#0C6051" transform="translate(0,0)"/>
<path d="" fill="#086F5D" transform="translate(0,0)"/>
<path d="" fill="#047451" transform="translate(0,0)"/>
<path d="" fill="#086F5D" transform="translate(0,0)"/>
<path d="" fill="#07504E" transform="translate(0,0)"/>
<path d="" fill="#098353" transform="translate(0,0)"/>
<path d="" fill="#047451" transform="translate(0,0)"/>
<path d="" fill="#016045" transform="translate(0,0)"/>
<path d="" fill="#07504E" transform="translate(0,0)"/>
<path d="M0 0 C2 1 2 1 2 1 Z " fill="#07504E" transform="translate(259,137)"/>
<path d="" fill="#0C6051" transform="translate(0,0)"/>
<path d="" fill="#047451" transform="translate(0,0)"/>
<path d="" fill="#047451" transform="translate(0,0)"/>
<path d="" fill="#0C6051" transform="translate(0,0)"/>
<path d="" fill="#02414C" transform="translate(0,0)"/>
<path d="" fill="#07504E" transform="translate(0,0)"/>
<path d="" fill="#016045" transform="translate(0,0)"/>
<path d="" fill="#016045" transform="translate(0,0)"/>
<path d="" fill="#0C6051" transform="translate(0,0)"/>
<path d="" fill="#086F5D" transform="translate(0,0)"/>
<path d="" fill="#016045" transform="translate(0,0)"/>
<path d="" fill="#059360" transform="translate(0,0)"/>
<path d="" fill="#086F5D" transform="translate(0,0)"/>
<path d="" fill="#07504E" transform="translate(0,0)"/>
<path d="" fill="#066F48" transform="translate(0,0)"/>
<path d="" fill="#086F5D" transform="translate(0,0)"/>
<path d="" fill="#098353" transform="translate(0,0)"/>
<path d="" fill="#07504E" transform="translate(0,0)"/>
<path d="" fill="#03605B" transform="translate(0,0)"/>
<path d="" fill="#059360" transform="translate(0,0)"/>
<path d="M0 0 C2 1 2 1 2 1 Z " fill="#047451" transform="translate(259,130)"/>
<path d="" fill="#03605B" transform="translate(0,0)"/>
<path d="" fill="#0C6051" transform="translate(0,0)"/>
<path d="" fill="#07504E" transform="translate(0,0)"/>
<path d="" fill="#016045" transform="translate(0,0)"/>
<path d="" fill="#086F5D" transform="translate(0,0)"/>
<path d="" fill="#047451" transform="translate(0,0)"/>
<path d="" fill="#068B4C" transform="translate(0,0)"/>
<path d="" fill="#035847" transform="translate(0,0)"/>
<path d="" fill="#059360" transform="translate(0,0)"/>
<path d="" fill="#03605B" transform="translate(0,0)"/>
<path d="" fill="#086F5D" transform="translate(0,0)"/>
<path d="" fill="#02414C" transform="translate(0,0)"/>
<path d="" fill="#07504E" transform="translate(0,0)"/>
<path d="" fill="#07504E" transform="translate(0,0)"/>
<path d="" fill="#07504E" transform="translate(0,0)"/>
<path d="" fill="#02414C" transform="translate(0,0)"/>
<path d="" fill="#07504E" transform="translate(0,0)"/>
<path d="" fill="#066F48" transform="translate(0,0)"/>
<path d="" fill="#07504E" transform="translate(0,0)"/>
<path d="" fill="#016045" transform="translate(0,0)"/>
<path d="" fill="#07504E" transform="translate(0,0)"/>
<path d="" fill="#248857" transform="translate(0,0)"/>
<path d="" fill="#035847" transform="translate(0,0)"/>
<path d="" fill="#066F48" transform="translate(0,0)"/>
<path d="" fill="#047451" transform="translate(0,0)"/>
<path d="" fill="#07504E" transform="translate(0,0)"/>
<path d="" fill="#07504E" transform="translate(0,0)"/>
<path d="" fill="#03605B" transform="translate(0,0)"/>
<path d="" fill="#07504E" transform="translate(0,0)"/>
<path d="" fill="#07504E" transform="translate(0,0)"/>
<path d="" fill="#016045" transform="translate(0,0)"/>
<path d="" fill="#07504E" transform="translate(0,0)"/>
<path d="" fill="#07504E" transform="translate(0,0)"/>
<path d="" fill="#07504E" transform="translate(0,0)"/>
<path d="" fill="#047451" transform="translate(0,0)"/>
<path d="" fill="#047451" transform="translate(0,0)"/>
<path d="" fill="#016045" transform="translate(0,0)"/>
<path d="" fill="#047451" transform="translate(0,0)"/>
<path d="" fill="#02414C" transform="translate(0,0)"/>
<path d="" fill="#016045" transform="translate(0,0)"/>
<path d="" fill="#047451" transform="translate(0,0)"/>
<path d="" fill="#047451" transform="translate(0,0)"/>
<path d="" fill="#07504E" transform="translate(0,0)"/>
<path d="" fill="#03605B" transform="translate(0,0)"/>
<path d="" fill="#03605B" transform="translate(0,0)"/>
<path d="" fill="#047451" transform="translate(0,0)"/>
<path d="" fill="#03605B" transform="translate(0,0)"/>
<path d="" fill="#07504E" transform="translate(0,0)"/>
<path d="" fill="#07504E" transform="translate(0,0)"/>
<path d="" fill="#086F5D" transform="translate(0,0)"/>
<path d="" fill="#047451" transform="translate(0,0)"/>
<path d="" fill="#016045" transform="translate(0,0)"/>
<path d="M0 0 C2 1 2 1 2 1 Z " fill="#02414C" transform="translate(195,103)"/>
<path d="" fill="#02414C" transform="translate(0,0)"/>
<path d="" fill="#577E51" transform="translate(0,0)"/>
<path d="" fill="#A1B748" transform="translate(0,0)"/>
<path d="" fill="#A1B748" transform="translate(0,0)"/>
<path d="M0 0 C2 1 2 1 2 1 Z " fill="#577E51" transform="translate(112,71)"/>
<path d="" fill="#7AC55C" transform="translate(0,0)"/>
<path d="M0 0 C2 1 2 1 2 1 Z " fill="#A3B448" transform="translate(159,43)"/>
<path d="M0 0 C2 1 2 1 2 1 Z " fill="#02414C" transform="translate(143,40)"/>
<path d="" fill="#577E51" transform="translate(0,0)"/>
<path d="" fill="#07504E" transform="translate(0,0)"/>
<path d="" fill="#4B9D3B" transform="translate(0,0)"/>
<path d="" fill="#577E51" transform="translate(0,0)"/>
<path d="M0 0 C2 1 2 1 2 1 Z " fill="#02414C" transform="translate(105,16)"/>
<path d="M0 0 C2 1 2 1 2 1 Z " fill="#02414C" transform="translate(175,14)"/>
<path d="" fill="#07504E" transform="translate(0,0)"/>
<path d="" fill="#02414C" transform="translate(0,0)"/>
<path d="" fill="#02414C" transform="translate(0,0)"/>
<path d="" fill="#047F6A" transform="translate(0,0)"/>
<path d="" fill="#02414C" transform="translate(0,0)"/>
<path d="" fill="#0C6051" transform="translate(0,0)"/>
<path d="" fill="#02414C" transform="translate(0,0)"/>
<path d="" fill="#02414C" transform="translate(0,0)"/>
<path d="" fill="#02414C" transform="translate(0,0)"/>
<path d="" fill="#02414C" transform="translate(0,0)"/>
<path d="" fill="#047F6A" transform="translate(0,0)"/>
<path d="" fill="#047F6A" transform="translate(0,0)"/>
<path d="" fill="#047F6A" transform="translate(0,0)"/>
<path d="" fill="#02414C" transform="translate(0,0)"/>
<path d="" fill="#047F6A" transform="translate(0,0)"/>
<path d="" fill="#02414C" transform="translate(0,0)"/>
<path d="" fill="#0C6051" transform="translate(0,0)"/>
<path d="" fill="#047F6A" transform="translate(0,0)"/>
<path d="" fill="#02414C" transform="translate(0,0)"/>
<path d="" fill="#07A756" transform="translate(0,0)"/>
<path d="" fill="#02414C" transform="translate(0,0)"/>
<path d="" fill="#047F6A" transform="translate(0,0)"/>
<path d="" fill="#0C6051" transform="translate(0,0)"/>
<path d="" fill="#07A756" transform="translate(0,0)"/>
<path d="" fill="#02414C" transform="translate(0,0)"/>
<path d="" fill="#02414C" transform="translate(0,0)"/>
<path d="" fill="#02414C" transform="translate(0,0)"/>
<path d="" fill="#02414C" transform="translate(0,0)"/>
<path d="" fill="#02414C" transform="translate(0,0)"/>
<path d="" fill="#02414C" transform="translate(0,0)"/>
<path d="" fill="#0C6051" transform="translate(0,0)"/>
<path d="" fill="#02414C" transform="translate(0,0)"/>
<path d="" fill="#02414C" transform="translate(0,0)"/>
<path d="" fill="#0C6051" transform="translate(0,0)"/>
<path d="" fill="#02414C" transform="translate(0,0)"/>
<path d="" fill="#047F6A" transform="translate(0,0)"/>
<path d="" fill="#047F6A" transform="translate(0,0)"/>
<path d="" fill="#057042" transform="translate(0,0)"/>
<path d="" fill="#47D062" transform="translate(0,0)"/>
<path d="" fill="#307D39" transform="translate(0,0)"/>
<path d="" fill="#02414C" transform="translate(0,0)"/>
<path d="" fill="#057042" transform="translate(0,0)"/>
<path d="" fill="#047F6A" transform="translate(0,0)"/>
<path d="" fill="#02414C" transform="translate(0,0)"/>
<path d="" fill="#08703E" transform="translate(0,0)"/>
<path d="" fill="#0C6051" transform="translate(0,0)"/>
<path d="" fill="#0C6051" transform="translate(0,0)"/>
<path d="" fill="#02414C" transform="translate(0,0)"/>
<path d="" fill="#0C6051" transform="translate(0,0)"/>
<path d="" fill="#02414C" transform="translate(0,0)"/>
<path d="" fill="#02414C" transform="translate(0,0)"/>
<path d="" fill="#02414C" transform="translate(0,0)"/>
<path d="" fill="#057042" transform="translate(0,0)"/>
<path d="" fill="#0C6051" transform="translate(0,0)"/>
<path d="" fill="#0C6051" transform="translate(0,0)"/>
<path d="" fill="#047F6A" transform="translate(0,0)"/>
<path d="" fill="#0C6051" transform="translate(0,0)"/>
<path d="" fill="#007F3F" transform="translate(0,0)"/>
<path d="" fill="#02414C" transform="translate(0,0)"/>
<path d="" fill="#02414C" transform="translate(0,0)"/>
<path d="" fill="#057042" transform="translate(0,0)"/>
<path d="" fill="#007F3F" transform="translate(0,0)"/>
<path d="" fill="#057042" transform="translate(0,0)"/>
<path d="" fill="#007F3F" transform="translate(0,0)"/>
<path d="" fill="#02414C" transform="translate(0,0)"/>
<path d="" fill="#02414C" transform="translate(0,0)"/>
<path d="" fill="#0C6051" transform="translate(0,0)"/>
<path d="" fill="#047F6A" transform="translate(0,0)"/>
<path d="" fill="#02414C" transform="translate(0,0)"/>
<path d="" fill="#0C6051" transform="translate(0,0)"/>
<path d="" fill="#02414C" transform="translate(0,0)"/>
<path d="" fill="#02414C" transform="translate(0,0)"/>
<path d="" fill="#0C6051" transform="translate(0,0)"/>
<path d="" fill="#0C6051" transform="translate(0,0)"/>
<path d="" fill="#047F6A" transform="translate(0,0)"/>
<path d="" fill="#02414C" transform="translate(0,0)"/>
<path d="" fill="#0C6051" transform="translate(0,0)"/>
<path d="" fill="#02414C" transform="translate(0,0)"/>
<path d="" fill="#02414C" transform="translate(0,0)"/>
<path d="" fill="#02414C" transform="translate(0,0)"/>
<path d="" fill="#0C6051" transform="translate(0,0)"/>
<path d="" fill="#02414C" transform="translate(0,0)"/>
<path d="" fill="#0C6051" transform="translate(0,0)"/>
<path d="" fill="#047F6A" transform="translate(0,0)"/>
<path d="" fill="#02414C" transform="translate(0,0)"/>
<path d="" fill="#0C6051" transform="translate(0,0)"/>
<path d="" fill="#0C6051" transform="translate(0,0)"/>
<path d="" fill="#0C6051" transform="translate(0,0)"/>
<path d="" fill="#02414C" transform="translate(0,0)"/>
<path d="" fill="#0C6051" transform="translate(0,0)"/>
<path d="" fill="#0C6051" transform="translate(0,0)"/>
<path d="" fill="#02414C" transform="translate(0,0)"/>
<path d="" fill="#007F3F" transform="translate(0,0)"/>
<path d="" fill="#047F6A" transform="translate(0,0)"/>
<path d="" fill="#02414C" transform="translate(0,0)"/>
<path d="" fill="#047F6A" transform="translate(0,0)"/>
<path d="" fill="#02414C" transform="translate(0,0)"/>
<path d="" fill="#02414C" transform="translate(0,0)"/>
<path d="" fill="#047F6A" transform="translate(0,0)"/>
<path d="" fill="#02414C" transform="translate(0,0)"/>
<path d="" fill="#0C6051" transform="translate(0,0)"/>
<path d="" fill="#0C6051" transform="translate(0,0)"/>
<path d="" fill="#02414C" transform="translate(0,0)"/>
<path d="" fill="#02414C" transform="translate(0,0)"/>
<path d="" fill="#02414C" transform="translate(0,0)"/>
<path d="" fill="#02414C" transform="translate(0,0)"/>
<path d="" fill="#0C6051" transform="translate(0,0)"/>
<path d="" fill="#0C6051" transform="translate(0,0)"/>
<path d="" fill="#02414C" transform="translate(0,0)"/>
<path d="" fill="#02414C" transform="translate(0,0)"/>
<path d="" fill="#02414C" transform="translate(0,0)"/>
<path d="" fill="#0C6051" transform="translate(0,0)"/>
<path d="" fill="#02414C" transform="translate(0,0)"/>
<path d="" fill="#0C6051" transform="translate(0,0)"/>
<path d="" fill="#075E3A" transform="translate(0,0)"/>
<path d="" fill="#0C6051" transform="translate(0,0)"/>
<path d="" fill="#07A756" transform="translate(0,0)"/>
<path d="" fill="#047F6A" transform="translate(0,0)"/>
<path d="" fill="#047F6A" transform="translate(0,0)"/>
<path d="" fill="#047F6A" transform="translate(0,0)"/>
<path d="" fill="#0C6051" transform="translate(0,0)"/>
<path d="" fill="#047F6A" transform="translate(0,0)"/>
<path d="" fill="#047F6A" transform="translate(0,0)"/>
<path d="" fill="#047F6A" transform="translate(0,0)"/>
<path d="" fill="#047F6A" transform="translate(0,0)"/>
<path d="" fill="#0C6051" transform="translate(0,0)"/>
<path d="" fill="#047F6A" transform="translate(0,0)"/>
<path d="" fill="#0C6051" transform="translate(0,0)"/>
<path d="" fill="#047F6A" transform="translate(0,0)"/>
<path d="" fill="#075E3A" transform="translate(0,0)"/>
<path d="" fill="#047F6A" transform="translate(0,0)"/>
<path d="" fill="#047F6A" transform="translate(0,0)"/>
<path d="" fill="#047F6A" transform="translate(0,0)"/>
<path d="" fill="#047F6A" transform="translate(0,0)"/>
<path d="" fill="#047F6A" transform="translate(0,0)"/>
<path d="" fill="#047F6A" transform="translate(0,0)"/>
<path d="" fill="#0C6051" transform="translate(0,0)"/>
<path d="" fill="#047F6A" transform="translate(0,0)"/>
<path d="" fill="#02414C" transform="translate(0,0)"/>
<path d="" fill="#07A756" transform="translate(0,0)"/>
<path d="" fill="#0C6051" transform="translate(0,0)"/>
<path d="" fill="#0C6051" transform="translate(0,0)"/>
<path d="" fill="#047F6A" transform="translate(0,0)"/>
<path d="" fill="#057042" transform="translate(0,0)"/>
<path d="" fill="#02414C" transform="translate(0,0)"/>
<path d="" fill="#0C6051" transform="translate(0,0)"/>
<path d="" fill="#07A756" transform="translate(0,0)"/>
<path d="" fill="#047F6A" transform="translate(0,0)"/>
<path d="" fill="#02414C" transform="translate(0,0)"/>
<path d="" fill="#02414C" transform="translate(0,0)"/>
<path d="" fill="#0C6051" transform="translate(0,0)"/>
<path d="" fill="#047F6A" transform="translate(0,0)"/>
<path d="" fill="#0C6051" transform="translate(0,0)"/>
<path d="" fill="#0C6051" transform="translate(0,0)"/>
<path d="" fill="#047F6A" transform="translate(0,0)"/>
<path d="" fill="#0C6051" transform="translate(0,0)"/>
<path d="" fill="#075E3A" transform="translate(0,0)"/>
<path d="" fill="#047F6A" transform="translate(0,0)"/>
<path d="" fill="#0C6051" transform="translate(0,0)"/>
<path d="" fill="#0C6051" transform="translate(0,0)"/>
<path d="" fill="#047F6A" transform="translate(0,0)"/>
<path d="" fill="#0C6051" transform="translate(0,0)"/>
<path d="" fill="#0C6051" transform="translate(0,0)"/>
<path d="" fill="#007F3F" transform="translate(0,0)"/>
<path d="" fill="#0C6051" transform="translate(0,0)"/>
<path d="" fill="#0C6051" transform="translate(0,0)"/>
<path d="" fill="#07A756" transform="translate(0,0)"/>
<path d="" fill="#07A756" transform="translate(0,0)"/>
<path d="" fill="#047F6A" transform="translate(0,0)"/>
<path d="" fill="#047F6A" transform="translate(0,0)"/>
<path d="" fill="#02414C" transform="translate(0,0)"/>
<path d="" fill="#075E3A" transform="translate(0,0)"/>
<path d="" fill="#07A756" transform="translate(0,0)"/>
<path d="" fill="#047F6A" transform="translate(0,0)"/>
<path d="" fill="#075E3A" transform="translate(0,0)"/>
<path d="" fill="#047F6A" transform="translate(0,0)"/>
<path d="" fill="#047F6A" transform="translate(0,0)"/>
<path d="" fill="#047F6A" transform="translate(0,0)"/>
<path d="" fill="#007F3F" transform="translate(0,0)"/>
<path d="" fill="#0C6051" transform="translate(0,0)"/>
<path d="" fill="#047F6A" transform="translate(0,0)"/>
<path d="" fill="#0C6051" transform="translate(0,0)"/>
<path d="" fill="#0C6051" transform="translate(0,0)"/>
<path d="" fill="#0C6051" transform="translate(0,0)"/>
<path d="" fill="#047F6A" transform="translate(0,0)"/>
<path d="" fill="#047F6A" transform="translate(0,0)"/>
<path d="" fill="#047F6A" transform="translate(0,0)"/>
<path d="" fill="#07A756" transform="translate(0,0)"/>
<path d="" fill="#0C6051" transform="translate(0,0)"/>
<path d="" fill="#0C6051" transform="translate(0,0)"/>
<path d="" fill="#02414C" transform="translate(0,0)"/>
<path d="" fill="#0C6051" transform="translate(0,0)"/>
<path d="" fill="#0C6051" transform="translate(0,0)"/>
<path d="" fill="#0C6051" transform="translate(0,0)"/>
<path d="" fill="#07A756" transform="translate(0,0)"/>
<path d="" fill="#07A756" transform="translate(0,0)"/>
<path d="" fill="#047F6A" transform="translate(0,0)"/>
<path d="" fill="#0C6051" transform="translate(0,0)"/>
<path d="" fill="#047F6A" transform="translate(0,0)"/>
<path d="" fill="#047F6A" transform="translate(0,0)"/>
<path d="" fill="#047F6A" transform="translate(0,0)"/>
<path d="" fill="#0C6051" transform="translate(0,0)"/>
<path d="" fill="#0C6051" transform="translate(0,0)"/>
<path d="" fill="#0C6051" transform="translate(0,0)"/>
<path d="" fill="#047F6A" transform="translate(0,0)"/>
<path d="" fill="#0C6051" transform="translate(0,0)"/>
<path d="" fill="#0C6051" transform="translate(0,0)"/>
<path d="" fill="#007F3F" transform="translate(0,0)"/>
<path d="" fill="#07A756" transform="translate(0,0)"/>
<path d="" fill="#047F6A" transform="translate(0,0)"/>
<path d="" fill="#007F3F" transform="translate(0,0)"/>
<path d="" fill="#0C6051" transform="translate(0,0)"/>
<path d="" fill="#07A756" transform="translate(0,0)"/>
<path d="" fill="#0C6051" transform="translate(0,0)"/>
<path d="" fill="#0C6051" transform="translate(0,0)"/>
<path d="" fill="#07A756" transform="translate(0,0)"/>
<path d="" fill="#02414C" transform="translate(0,0)"/>
<path d="" fill="#07A756" transform="translate(0,0)"/>
<path d="" fill="#0C6051" transform="translate(0,0)"/>
<path d="" fill="#0C6051" transform="translate(0,0)"/>
<path d="" fill="#047F6A" transform="translate(0,0)"/>
<path d="" fill="#0C6051" transform="translate(0,0)"/>
<path d="" fill="#047F6A" transform="translate(0,0)"/>
<path d="" fill="#02414C" transform="translate(0,0)"/>
<path d="" fill="#0C6051" transform="translate(0,0)"/>
<path d="" fill="#007F3F" transform="translate(0,0)"/>
<path d="" fill="#02414C" transform="translate(0,0)"/>
<path d="" fill="#047F6A" transform="translate(0,0)"/>
<path d="" fill="#047F6A" transform="translate(0,0)"/>
<path d="" fill="#0C6051" transform="translate(0,0)"/>
<path d="" fill="#0C6051" transform="translate(0,0)"/>
<path d="" fill="#07A756" transform="translate(0,0)"/>
<path d="" fill="#07A756" transform="translate(0,0)"/>
<path d="" fill="#047F6A" transform="translate(0,0)"/>
<path d="" fill="#0C6051" transform="translate(0,0)"/>
<path d="" fill="#02414C" transform="translate(0,0)"/>
<path d="" fill="#02414C" transform="translate(0,0)"/>
<path d="" fill="#07A756" transform="translate(0,0)"/>
<path d="" fill="#0C6051" transform="translate(0,0)"/>
<path d="" fill="#02414C" transform="translate(0,0)"/>
<path d="" fill="#0C6051" transform="translate(0,0)"/>
<path d="" fill="#07A756" transform="translate(0,0)"/>
<path d="" fill="#0C6051" transform="translate(0,0)"/>
<path d="" fill="#0C6051" transform="translate(0,0)"/>
<path d="" fill="#047F6A" transform="translate(0,0)"/>
<path d="" fill="#02414C" transform="translate(0,0)"/>
<path d="" fill="#0C6051" transform="translate(0,0)"/>
<path d="" fill="#0C6051" transform="translate(0,0)"/>
<path d="" fill="#0C6051" transform="translate(0,0)"/>
<path d="" fill="#07A756" transform="translate(0,0)"/>
<path d="" fill="#02414C" transform="translate(0,0)"/>
<path d="" fill="#02414C" transform="translate(0,0)"/>
<path d="" fill="#ADBB56" transform="translate(0,0)"/>
<path d="" fill="#ADBB56" transform="translate(0,0)"/>
<path d="" fill="#02414C" transform="translate(0,0)"/>
<path d="" fill="#047F6A" transform="translate(0,0)"/>
<path d="" fill="#02414C" transform="translate(0,0)"/>
<path d="" fill="#02414C" transform="translate(0,0)"/>
<path d="" fill="#ADBB56" transform="translate(0,0)"/>
<path d="" fill="#47D062" transform="translate(0,0)"/>
<path d="" fill="#47D062" transform="translate(0,0)"/>
<path d="" fill="#02414C" transform="translate(0,0)"/>
<path d="" fill="#ADBB56" transform="translate(0,0)"/>
<path d="" fill="#02414C" transform="translate(0,0)"/>
<path d="" fill="#ADBB56" transform="translate(0,0)"/>
<path d="" fill="#02414C" transform="translate(0,0)"/>
<path d="" fill="#02414C" transform="translate(0,0)"/>
<path d="" fill="#47D062" transform="translate(0,0)"/>
<path d="" fill="#ADBB56" transform="translate(0,0)"/>
<path d="" fill="#02414C" transform="translate(0,0)"/>
<path d="" fill="#ADBB56" transform="translate(0,0)"/>
<path d="" fill="#02414C" transform="translate(0,0)"/>
<path d="" fill="#0C6051" transform="translate(0,0)"/>
<path d="" fill="#ADBB56" transform="translate(0,0)"/>
<path d="" fill="#02414C" transform="translate(0,0)"/>
<path d="" fill="#02414C" transform="translate(0,0)"/>
<path d="" fill="#47D062" transform="translate(0,0)"/>
<path d="" fill="#ADBB56" transform="translate(0,0)"/>
<path d="" fill="#02414C" transform="translate(0,0)"/>
<path d="" fill="#02414C" transform="translate(0,0)"/>
<path d="" fill="#02414C" transform="translate(0,0)"/>
<path d="" fill="#02414C" transform="translate(0,0)"/>
<path d="" fill="#47D062" transform="translate(0,0)"/>
<path d="" fill="#9AAD3A" transform="translate(0,0)"/>
<path d="" fill="#9AAD3A" transform="translate(0,0)"/>
<path d="" fill="#02414C" transform="translate(0,0)"/>
<path d="" fill="#ADBB56" transform="translate(0,0)"/>
<path d="" fill="#47D062" transform="translate(0,0)"/>
<path d="" fill="#ADBB56" transform="translate(0,0)"/>
<path d="" fill="#96B43A" transform="translate(0,0)"/>
<path d="" fill="#ADBB56" transform="translate(0,0)"/>
<path d="" fill="#ADBB56" transform="translate(0,0)"/>
<path d="" fill="#ADBB56" transform="translate(0,0)"/>
<path d="" fill="#47D062" transform="translate(0,0)"/>
<path d="" fill="#02414C" transform="translate(0,0)"/>
<path d="" fill="#0C6051" transform="translate(0,0)"/>
<path d="" fill="#ADBB56" transform="translate(0,0)"/>
<path d="" fill="#02414C" transform="translate(0,0)"/>
<path d="" fill="#96B43A" transform="translate(0,0)"/>
<path d="" fill="#96B43A" transform="translate(0,0)"/>
<path d="" fill="#02414C" transform="translate(0,0)"/>
<path d="" fill="#ADBB56" transform="translate(0,0)"/>
<path d="" fill="#ADBB56" transform="translate(0,0)"/>
<path d="" fill="#ADBB56" transform="translate(0,0)"/>
<path d="" fill="#0C6051" transform="translate(0,0)"/>
<path d="" fill="#47D062" transform="translate(0,0)"/>
<path d="" fill="#02414C" transform="translate(0,0)"/>
<path d="" fill="#02414C" transform="translate(0,0)"/>
<path d="" fill="#ADBB56" transform="translate(0,0)"/>
<path d="" fill="#ADBB56" transform="translate(0,0)"/>
<path d="" fill="#9AAD3A" transform="translate(0,0)"/>
<path d="" fill="#007F3F" transform="translate(0,0)"/>
<path d="" fill="#ADBB56" transform="translate(0,0)"/>
<path d="" fill="#ADBB56" transform="translate(0,0)"/>
<path d="" fill="#ADBB56" transform="translate(0,0)"/>
<path d="" fill="#0C6051" transform="translate(0,0)"/>
<path d="" fill="#047F6A" transform="translate(0,0)"/>
<path d="" fill="#47D062" transform="translate(0,0)"/>
<path d="" fill="#0C6051" transform="translate(0,0)"/>
<path d="" fill="#02414C" transform="translate(0,0)"/>
<path d="" fill="#ADBB56" transform="translate(0,0)"/>
<path d="" fill="#47D062" transform="translate(0,0)"/>
<path d="" fill="#047F6A" transform="translate(0,0)"/>
<path d="" fill="#02414C" transform="translate(0,0)"/>
<path d="" fill="#02414C" transform="translate(0,0)"/>
<path d="" fill="#007F3F" transform="translate(0,0)"/>
<path d="" fill="#02414C" transform="translate(0,0)"/>
<path d="" fill="#0C6051" transform="translate(0,0)"/>
<path d="" fill="#07A756" transform="translate(0,0)"/>
<path d="" fill="#07A756" transform="translate(0,0)"/>
<path d="" fill="#02414C" transform="translate(0,0)"/>
<path d="" fill="#02414C" transform="translate(0,0)"/>
<path d="" fill="#047F6A" transform="translate(0,0)"/>
<path d="" fill="#007F3F" transform="translate(0,0)"/>
<path d="" fill="#02414C" transform="translate(0,0)"/>
<path d="" fill="#0C6051" transform="translate(0,0)"/>
<path d="" fill="#047F6A" transform="translate(0,0)"/>
<path d="" fill="#02414C" transform="translate(0,0)"/>
<path d="" fill="#02414C" transform="translate(0,0)"/>
<path d="" fill="#02414C" transform="translate(0,0)"/>
<path d="" fill="#0C6051" transform="translate(0,0)"/>
<path d="" fill="#02414C" transform="translate(0,0)"/>
<path d="" fill="#02414C" transform="translate(0,0)"/>
</svg>
